<?xml version="1.0" encoding="UTF-8"?>
<svg xmlns="http://www.w3.org/2000/svg" xmlns:xlink="http://www.w3.org/1999/xlink" version="1.1" viewBox="0 0 301.4 49.7">
  <defs>
    <style>
      .cls-1, .cls-2 {
        fill: none;
      }

      .cls-3 {
        isolation: isolate;
      }

      .cls-4 {
        clip-path: url(#clippath-1);
      }

      .cls-5 {
        fill: #231815;
      }

      .cls-6 {
        fill: #d4533a;
      }

      .cls-7 {
        fill: #fff;
      }

      .cls-2 {
        stroke: #231815;
        stroke-miterlimit: 10;
        stroke-width: 1.4px;
      }

      .cls-8 {
        clip-path: url(#clippath);
      }
    </style>
    <clipPath id="clippath">
      <rect class="cls-1" y="0" width="49.7" height="49.7"/>
    </clipPath>
    <clipPath id="clippath-1">
      <rect class="cls-1" y="0" width="49.7" height="49.7"/>
    </clipPath>
  </defs>
  <!-- Generator: Adobe Illustrator 28.6.0, SVG Export Plug-In . SVG Version: 1.2.0 Build 709)  -->
  <g>
    <g id="_レイヤー_1">
      <g class="cls-3">
        <g class="cls-3">
          <path class="cls-6" d="M77.8,22c.5.6,1,1.8,1.6,3.5.6,1.7.9,3.3.9,5,0,2.9-.4,5.2-1.1,6.7-.8,1.6-2,2.9-3.7,4.1-1.8,1.2-3.4,1.8-5,1.8s-1-.2-1-.5.1-.5.4-.7c.3-.3.5-.5.8-.6,2.2-.7,3.9-1.8,5.1-3.5,1.2-1.7,1.8-3.5,1.8-5.5-.4.6-.9,1.1-1.6,1.4-.6.3-1.3.5-1.9.5-1,0-1.9-1-2.6-2.9-.8-1.9-1.1-3.8-1.1-5.5s.4-2.9,1.2-3.8c.8-.9,1.7-1.3,2.8-1.3s1.1,0,1.4.2c0-.8,0-2.3,0-4.3-1.6.2-3.7.8-6.4,1.8-2.7.9-4.4,1.4-5.3,1.4s-1.1-.3-1.9-1c-.8-.7-1.2-1.3-1.2-1.9s.1-.6.4-.7c.3-.2.5-.2.8-.2s.5,0,.9.2c.4.1.8.2,1.2.2,1.1,0,5-.7,11.6-2.2.1-1.1.2-1.9.2-2.2,0-.8-.4-1.6-1.1-2.5-.7-.8-1.1-1.4-1.1-1.6s.1-.5.3-.8c.2-.3.5-.4.9-.4.7,0,1.2.2,1.6.5.4.3.7.7.9,1.1.2.4.5,1,1,1.6.5.6,1,1.2,1.8,1.7.4.2.8.4,1.4.6.6.2,1.1.3,1.5.4.4,0,1,.1,1.8.2.8,0,1.3.1,1.4.2.9.1,1.6.3,2,.6.4.3.6.7.6,1.3s-.2.9-.6,1.3c-.4.4-.8.6-1.4.6s-1.3-.1-2.7-.4c-1.4-.2-2.7-.4-3.9-.4s-.9,0-1.7.2c-.7.2-1.2.2-1.5.3,0,1.8,0,3.7.2,5.6ZM76.4,26.4c0-1.2-.4-2.1-1.2-2.7-.8-.6-1.5-.9-2.1-.9s-.6.3-.7.8c-.2.6-.3,1.3-.3,2.1s.3,2,.8,2.9c.5.9,1,1.3,1.5,1.3s.9-.4,1.3-1.2c.4-.8.6-1.6.6-2.4ZM78,10.7c0,.9,0,1.9-.1,3,0,0,.3,0,.8-.2.5-.1.9-.2,1.2-.2-.7-1.3-1.4-2.2-1.9-2.7Z"/>
          <path class="cls-6" d="M99.8,24.6c0-.3,0-.6.3-.9.2-.3.4-.4.6-.4.4,0,.9.1,1.5.4s.9.4.9.4c.3,0,.8-.3,1.6-.8.8-.5,1.5-1.1,2.2-1.7.7-.6,1.4-1.3,2.2-2,.8-.7,1.2-1.1,1.3-1.1.9-.7,1.7-1.1,2.5-1.1s1.7.3,2.6,1c.9.7,1.8,1.6,2.8,2.6,1,1.1,2,2.2,3.1,3.4,1.1,1.2,2.6,2.3,4.3,3.4,1.7,1.1,3.6,2,5.6,2.5,0,0,.2,0,.3.1.1,0,.3.2.5.5.2.3.3.6.3.9,0,1.5-.7,2.2-2.2,2.2s-2.6-.5-4.1-1.5c-1.5-1-3-2.3-4.3-3.7-1.4-1.5-2.6-2.9-3.9-4.4-1.2-1.5-2.3-2.7-3.2-3.7-.9-1-1.6-1.5-1.9-1.5s-.8.5-1.6,1.5c-.9,1-1.9,2.1-3,3.4-1.1,1.3-2,2.2-2.7,2.8-.9.7-1.7,1-2.4,1s-1.4-.3-2.2-.8c-.7-.5-1.1-1.4-1.1-2.5ZM128.5,20.4c0,1.2-.5,1.8-1.5,1.8s-1.3-.3-1.5-.9c-.3-.9-.7-1.7-1.2-2.2-.2-.2-.5-.5-.9-.7-.4-.2-.7-.4-.8-.6-.3-.3-.4-.6-.4-.9,0-.4.3-.6,1-.6s2,.4,3.4,1.2c1.3.8,2,1.7,2,2.8ZM132.4,17.6c0,1.3-.5,1.9-1.5,1.9s-1.3-.3-1.5-.9c-.3-.9-.7-1.7-1.2-2.2-.2-.2-.5-.5-.9-.7-.4-.2-.7-.4-.8-.6-.3-.3-.4-.6-.4-.9s.3-.5,1-.5,2,.4,3.4,1.2c1.3.8,2,1.7,2,2.7Z"/>
          <path class="cls-6" d="M163.9,41.3c-2.9,0-5.3-.8-7.1-2.3-1.8-1.5-2.8-3.9-2.8-7.1s.3-6.3,1-9.5c.7-3.1,1.5-5.6,2.5-7.3-4.4,1.7-6.8,2.7-7.2,3-1.2.8-2.6,1.2-3.9,1.2s-1.1-.4-2-1.3c-.9-.9-1.4-1.6-1.4-2.1s.2-.9.7-.9.2,0,.5.1.6.2,1.1.3c.5.1.9.2,1.4.2s3-.7,7.7-2.1c6.8-2,11.3-3.1,13.4-3.1s2.9.6,2.9,1.7-.6,1.8-1.8,1.8c-3.2,0-6.1.2-8.6.7-1.5,1.7-2.4,3.4-2.8,5-.6,2.6-1,6.9-1,12.9s.4,2.5,1.2,3.4c.8,1,1.8,1.4,3,1.4s.8,0,1.3,0c.6,0,1,0,1.3,0,.6,0,1.3.2,2,.7.7.5,1.1.9,1.1,1.5s-.2,1.2-.7,1.5c-.5.4-1.2.5-2,.5Z"/>
          <path class="cls-6" d="M196.8,40.9c-1.3,0-1.9-.2-1.9-.7s.2-.4.6-.6c.4-.2.8-.2,1.3-.2s.9,0,1.7-.3c.7-.2,1.6-.5,2.7-.9,1.1-.4,2.1-1,3.2-1.7s2.1-1.6,3-2.6c.9-1,1.7-2.3,2.3-3.8.6-1.5.9-3.2.9-5.1s-.3-3.7-.8-5.3c-.6-1.6-1.3-2.9-2.2-3.8-2.3-2.3-4.9-3.5-7.9-3.6.2,2,.4,4.2.4,6.4s-.5,4.9-1.6,7.8c-1.1,2.9-2.5,5.2-4.1,7.1-1.9,2.1-3.8,3.1-5.8,3.1s-1.3-.3-1.7-.9c-.4-.6-.9-1.4-1.3-2.4-.8-2-1.2-4.3-1.2-7.1s.2-2.4.6-4.1c.4-1.7,1.2-3.4,2.3-5,.9-1.4,1.7-2.4,2.4-3,.8-.7,1.8-1.3,3.1-2,1.9-1,4.3-1.5,7.4-1.5s2.9.3,4.7.9c1.8.6,3.2,1.4,4.2,2.3,3.3,3.2,5,6.9,5,11s-.4,4.6-1.3,6.5c-.9,1.9-2,3.5-3.3,4.6-1.3,1.1-2.8,2.1-4.4,2.8-1.6.8-3.1,1.3-4.4,1.5-1.3.3-2.5.4-3.6.4ZM198.1,15.1c0-1,0-1.9-.2-2.7-1.9.3-3.4.7-4.5,1.4-2.2,1.3-4,3.1-5.3,5.6-.6,1.1-1,2.4-1.3,3.9-.3,1.5-.4,2.6-.4,3.3s.2,2.2.6,3.6c.4,1.4.8,2.1,1.2,2.1.7,0,1.6-.4,2.7-1.3,1.1-.8,2.2-2,3.2-3.4s2-3.2,2.8-5.5c.8-2.2,1.2-4.5,1.2-6.9Z"/>
          <path class="cls-6" d="M221.8,15.5c0-1,.3-1.5,1-1.5s.3,0,.6,0c.3,0,.5,0,.5,0h1.8c1,0,1.7,0,2.1.1.4,0,.8.1,1.2.1.9,0,2,0,3.2-.2,1.2-.1,1.9-.3,2-.4,0,0,.2-.2.4-.5.2-.3.4-.4.4-.5s0-.1.2-.2c.1-.1.2-.2.2-.2.3-.1.6-.2.8-.2s.4,0,.6.2c.2.1.4.3.5.4.1.2.2.2.2.2,0,0,.2,0,.3.2,0,.2.2.3.2.4v.2c.1,0,.2,0,.2,0,.3.4.4.7.4,1.1s-.3.7-.8.7c-.2,0-.5,0-.8.2-.3.1-.7.2-1.2.2s-.7,0-1.1,0c-.4,0-.7,0-.8,0s-.3,0-.5,0c-.2,0-.4,0-.7,0s-.3,0-.5,0c-.2,0-.4,0-.5,0-.2,0-.4,0-.6.1-.1,0-.3.1-.6.1s-.5,0-.8,0c-.4,0-.6,0-.8,0s-.4,0-.6.1c-.2,0-.6.1-1,.1h-.6c-.6,0-1.2,0-1.6.1-.5,0-.9.1-1.2.1s-.8,0-1.1-.2c-.3-.1-.5-.2-.6-.3-.1-.1-.2-.2-.2-.3s0-.1,0-.1c0,0,0,0,0-.2ZM236.6,20.2c0,.2,0,.4-.2.6-.2.1-.3.2-.4.2h-.2c0,.1,0,.2-.2.2-.1,0-.3.1-.6.2-.3,0-.5,0-.8,0s-.6,0-1-.2c-.4-.1-.8-.2-1.3-.2l-5.5.4c-1.5,0-2.2-.3-2.2-.9s0-.1-.1-.2c0-.1-.1-.2-.1-.3,0-.2.1-.4.4-.5.3-.2.6-.3,1.1-.3h.5c.4,0,.7,0,.9,0,.3,0,.5,0,.8,0s.4,0,.7,0c.3,0,.5,0,.6,0h.3c0,0,.1,0,.1,0,0,0,0,0,0,0,0,0,.3,0,.7.2.4.1.7.2,1,.2s.6,0,.8-.3c.3-.2.5-.4.6-.5.1-.2.2-.3.2-.4s0-.1.1-.3c0-.1.2-.2.2-.2h.2c.1-.2.3-.2.4-.2s.2,0,.3.1c0,.1.3.2.7.3.4,0,.6.2.8.4,0,0,.1.1.3.4.2.2.3.4.3.5.2.2.3.5.3.7ZM225.2,10.9c-.3,0-.5-.2-.5-.7v-.6c0-.4.8-.5,2.3-.5s.6,0,1.1,0c.5,0,.8,0,1,0,.5,0,.8,0,1,0,.2,0,.4-.1.7-.2.3,0,.5,0,.6-.1.2,0,.2-.2.2-.4s0-.3.2-.5c.1-.3.2-.4.3-.4l.2-.3c.2-.2.3-.3.3-.3s0,0,.2-.1c.1,0,.2-.1.4-.1.2,0,.5.2.9.6.3.4.6.6.6.6s.1,0,.3.1c.1,0,.2.2.2.2h.1c0,.2.1.3.2.4,0,.1.1.2.1.3,0,.3.1.5.1.5,0,0,0,.1,0,.1,0,0,0,.1,0,.3,0,.6-.4.9-1.2.9s-.5,0-.7,0c-.2,0-.3,0-.3,0,0,0-.1,0-.2,0,0,0-.3,0-.5,0h-.5c-.3,0-.5,0-.7,0-.2,0-.4,0-.6,0s-.6,0-1,.2c-.5.1-.8.2-1.1.2s-.1,0-.2,0c-.1,0-.2,0-.3,0-.1,0-.3,0-.5,0-.2,0-.4,0-.5,0s-.2,0-.5,0c-.2,0-.5,0-.8,0s-.3,0-.6,0c-.3,0-.4,0-.5,0ZM227.9,29.2c.2,0,.3,0,.5.2.1.1.2.2.3.2,0,0,.1,0,.1,0,0,0,0,0,0,0,.4.2.9.3,1.5.3,1.5,0,2.3-.2,2.4-.5,0,0,0,0,.1,0,0,0,.1,0,.2,0,.1,0,.3-.1.7-.4.3-.3.7-.4,1.1-.4s.8,0,1.2.3c.4.2.8.4,1.1.6l.4.3s0,0,0,0,0,0,0,0c.1,0,.3.1.5.4.2.2.3.4.3.6s0,.3-.1.5c0,.2-.1.3-.1.3,0,.1,0,.2,0,.4,0,.3,0,.6-.2,1-.2.4-.2,1-.2,1.7s0,1.1,0,1.1c.2,0,.2.6.2,1.8s0,2,0,2.3c0,.3-.2.5-.5.7-.3.1-.5.3-.7.5-.3.4-.9.5-1.6.5s-1.1-.2-1.1-.5,0,0,0,0c-.2,0-.4-.2-.6-.6s-.4-.6-.6-.6-.2,0-.4,0-.4,0-.6,0-.1,0-.1,0c0,0,0,0-.1,0-.2,0-.4,0-.7.2l-.6.3c-.2,0-.4.2-.4.2,0,0,0,.1,0,.3s0,.2,0,.3,0,.2,0,.3c0,.4-.1.8-.4,1.1-.3.3-.5.5-.5.8-.1.5-.4.8-.7.8h-.5c-.3,0-.6,0-.8.2-.2.1-.4.2-.5.2-.3,0-.4,0-.4-.2s0-.1-.2-.3c-.1-.2-.2-.4-.2-.7l-.4-3.2h0c0-.1,0-.3,0-.3,0-.1,0-.3.1-.7,0-.3,0-.8,0-1.3s0-1.1,0-1.5v-.6c0,0,0-.3,0-.6s0-.7,0-.9,0-.6,0-.8c0-.2,0-.4,0-.5s0-.1,0-.2h0c0-.3,0-.5-.2-1-.1-.5-.2-.8-.2-.9v-.2c0-.1,0-.4.1-.8,0-.4,0-.7.2-1,0-.3.3-.4.5-.4s.2,0,.5.1c.2,0,.4.1.6.1.3,0,.5,0,.7.2.2.1.4.2.5.2ZM231.2,24.8h.6c.2,0,.5-.1.9-.4.3-.3.5-.5.5-.6s.1-.2.3-.4c.2-.2.4-.2.6-.2s.2,0,.3.1.2.1.3.1h.2c.3,0,.6.1.9.3.8.8,1.3,1.2,1.3,1.4,0,.3-.1.6-.4.9-.3.3-.5.5-.6.5-.6,0-1.1,0-1.8,0s-.5,0-.7,0c-.2,0-.3,0-.3,0-.1,0-.3,0-.4.1-.2,0-.3.1-.5.1s-.3,0-.5,0-.3,0-.4,0,0,0-.1,0c0,0-.2,0-.4.1-.2,0-.6,0-1.1,0s-.7,0-1-.1c-.3,0-.6-.1-.8-.1s-.3,0-.5,0c-.2,0-.4,0-.6,0-1,0-1.6-.2-1.6-.5s0,0,0,0,0-.1,0-.3c0-.4,0-.7.3-.9.2-.2.4-.4.6-.4h.3c0,0,0,0,.2,0,0,0,.2,0,.4.1.2,0,.3,0,.5,0s.4,0,.7,0c.3,0,.5,0,.6,0,.2,0,.4,0,.6.2.2.1.6.2,1.1.2h.9ZM232.3,31.7h-.2c-.1,0-.2,0-.3-.1,0,0-.1-.1-.2-.1s-.2,0-.5.1c-.3,0-.5.1-.8.1-.8,0-1.2,1.1-1.2,3.2l.2,2.9s.2.2.4.4c.2.2.4.4.5.4s.2,0,.4-.2c.2-.1.5-.2.8-.2l1.6-.5c.1,0,.2-.3.2-.8v-.8c0-.4,0-.7,0-.8,0-.1,0-.3,0-.4l-.2-.9s0,0,0-.1,0-.2,0-.5c0-.2,0-.4,0-.5,0-.4,0-.6-.2-.9-.1-.2-.3-.3-.4-.4-.1,0-.2,0-.3,0ZM258.3,33.7c0,.3,0,.6-.2.9-.1.4-.2.7-.2,1.1,0,0,0,0,0,.1s0,.4.2.8c.1.4.2.6.2.7,0,.1,0,.3.1.5s.2.4.2.5v.2c.2,0,.2.2.2.6s0,.7,0,.7c0,0,0,0,0,0,0,0,0,.1,0,.4,0,.4-.1.8-.4,1-.3.3-.5.4-.8.5-.3,0-.7.2-1.1.2s-.7.1-.8.2c-.5.2-1.1.2-1.8.2s-.9,0-1.6,0c-.7,0-1.2,0-1.4,0s-.5,0-.6,0c-.2,0-.4,0-.7,0s-.5,0-.8,0c-.3,0-.6,0-.7,0s-.2,0-.5,0c-.2,0-.5,0-.6,0-.2,0-.4,0-.5-.1,0,0-.1-.1-.2-.1s0,0-.1,0c0,0-.2,0-.4,0-.2,0-.5,0-.8,0-.9,0-1.3,0-1.3-.3h-.4c-.3-.1-.4-.2-.4-.2,0,0,0,0,0,0-.1,0-.4-.2-.7-.5-.3-.3-.5-.6-.5-1s0-.7-.2-.9c0-.3-.2-.6-.2-1,0-.2,0-.3,0-.4,0-.1,0-.3,0-.4,0-.1,0-.5,0-1.1,0-.6,0-1.4,0-2.3s0-1.8-.2-4.5c-.2-2.7-.2-4.4-.2-5.1s0-.3,0-.5c0-.2,0-.5,0-.9s0-.7,0-.9c0-.2,0-.3,0-.4s0,0,0-.1c0,0,0-.2,0-.3,0-.1,0-.2,0-.3s0-.2.1-.4c0-.2.1-.3.1-.3.2-.5.4-.7.8-.7s.4,0,.7.2c.3.2.6.2,1.1.2h.2c.1,0,.3,0,.5.2.2.1.3.2.3.2s.1,0,.3,0,.4,0,.4.3c0,.2.2.3.3.3.2,0,.7,0,1.5,0h1.8c.3,0,.5,0,.6,0,0,0,.2,0,.2,0,.2,0,.3,0,.5-.1.1,0,.2-.2.2-.5,0-.2,0-.4.1-.7,0-.2,0-.5,0-.9,0-.4,0-.7,0-1,0-.1,0-.3,0-.5,0-.3,0-.8-.1-1.5,0-.7-.2-1.3-.2-1.9,0-1,0-1.6-.2-1.6s0,0-.1-.3c0-.2-.1-.4-.3-.5-.2-.2-.4-.2-.7-.2s-.3,0-.5,0c-.2,0-.4,0-.4,0s-.2,0-.3,0c0,0-.2,0-.5,0-1.5,0-2.5,0-3.2.1-.7,0-1.2.1-1.4.1-.4,0-.8,0-1-.2-.2-.1-.4-.2-.4-.2-.4,0-.5-.5-.5-1.5s.4-.5,1.1-.5.5,0,.8,0c.3,0,.6,0,.9,0,.6,0,1,0,1.4,0,.4,0,.6,0,.7-.1,0,0,.2,0,.2-.1,0,0,.1,0,.2,0l.7.2h.2c.1.1.3.2.4.2.2,0,.4,0,.6,0,.5,0,.9-.2,1.2-.5.1-.1.3-.2.5-.3.2,0,.3-.2.4-.4.3-.4.5-.8.7-1,.2-.2.4-.3.4-.3s.1,0,.1,0c0-.2.2-.3.7-.3s.6,0,.7.2c0,0,.3.1.7.3.5.2.9.4,1.3.7.4.3.7.6.8.9,0,0,0,.2.1.3,0,.1.1.2.1.3,0,0,0,.2,0,.2h0c0,.3,0,.4,0,.5,0,.2,0,.4-.1.5,0,.1-.2.2-.4.2-.1,0-.3.3-.4.6,0,.4-.1.9-.1,1.6v1.6s.2.5.2.5c.1.2.2.4.2.5s0,0,0,0,0,.3,0,.9,0,.8,0,.8c0,0,0,0,0,.1s0,.2.1.5.1.7.1,1.1v1.6c0,.3,0,.6,0,.9v.5c0,0,0,0,0,0,0,0,0,0,0,.1v.2c0,.2-.2.4-.3.6s-.3.3-.5.4c0,0-.1.1-.2.3-.1.2-.3.4-.5.6-.2.2-.4.3-.6.3h0c0,.1,0,.1-.3.1s-.2,0-.3,0c-.2,0-.3,0-.4,0-.2,0-.4,0-.5-.2-.3-.2-.5-.4-.8-.5-.3,0-.5-.2-.8-.5-.2-.2-.4-.4-.6-.6-.2-.1-.4-.2-.4-.3h-.1s-1.4-.4-1.4-.4h-.1c0,0-.2,0-.4.1-.2,0-.5,0-.8,0h-.2c-.4,0-.7,0-.8.2-.1.1-.2.5-.2,1.1s0,1.2,0,1.7v3.5c0,.4,0,.8,0,1.1,0,.3,0,.5,0,.6,0,0,0,.2,0,.2,0,0,0,.1,0,.1,0,0,0,.2,0,.5s0,.6,0,.8l.5,3.1c0,.1,0,.2,0,.2,0,0,0,0,0,0,0,0,0,.2,0,.4v.3c0,0,.1.1.2.1s0,0,0,.3.1.2.3.2.2,0,.4,0c.2,0,.3,0,.3,0s0,0,0,0c0,0,0,0,.2,0,.2,0,.2,0,.2,0s0,0,.3,0,.2,0,.2,0c0,0,.1,0,.2,0s.3,0,.6,0c.3,0,.7,0,1.2,0h1.6c.5,0,.9,0,1.2,0,.3,0,.5,0,.6,0s.2,0,.2,0c0,0,0,0,.1,0,.4-.2.8-.5,1-.8.3-.3.4-.5.5-.7,0-.2.1-.3.2-.3,0,0,0,0,0,0s0-.1.2-.4c.2-.2.2-.3.2-.4h0c0,0,0-.1,0-.2s0-.2,0-.5c0-.2.2-.5.3-.7.4-.8.6-1.3.6-1.4s0-.4.2-.7c.1-.2.2-.3.3-.3s.1,0,.2-.2c.1-.1.2-.2.3-.2.1,0,.2,0,.4.1.2,0,.3.2.4.2h.2c.1.2.2.4.2.9s0,.5-.2.7c-.1.3-.2.6-.2.9Z"/>
          <path class="cls-6" d="M267.2,27.5c-.3,0-.6-.3-1.1-.8s-.7-1-.7-1.5.3-.4,1-.4.8,0,1.3.1c.5,0,.9.2,1.2.2,1,0,4.4.1,10.1.1v-3.7c-3.7,0-6.1.1-7.1.2,0,0,0,0,0,.1,0,0,0,.1,0,.1,0,.5-.1.9-.4,1.1-.6.6-1.3.9-2.2.9s-.8-1-.8-2.9,0-.8,0-1.5c0-.6,0-1,0-1.1,0-.5,0-1.3,0-2.3,0-1,0-1.7,0-2,0-.5,0-.9.2-1.1.1-.2.4-.3.9-.3s.6.2,1.3.7c.6.5,1.1.8,1.4.9,1.2,0,3.4,0,6.7,0,0-1.5,0-2.5,0-3.1-5.9,0-9.5.1-10.8.4-.8.2-1.4.3-1.9.3s-.7-.3-1.2-1c-.5-.7-.8-1.3-.8-1.8s.4-.5,1.1-.5.9,0,1.5.2c.6.1,1,.2,1.3.2,1.4.1,5,.2,10.7.2,0-.4-.1-.8-.2-1.4,0-.6-.2-1-.2-1.4,0-.4-.1-.7-.1-.8,0-.6,0-.9.3-1,.2-.2.7-.3,1.5-.3s2,.3,3.7.8c.5.2,1,.4,1.6.6.6.3.8.5.8.6,0,.4-.3.9-.9,1.6-.6.6-.9,1-1,1.2,2.5,0,4.2-.1,5.1-.1,1,0,1.8-.5,2.4-1.4.7-1.1,1.2-1.7,1.4-1.7.6,0,1.5.5,2.9,1.6l1,.8c.7.5,1.2,1,1.5,1.3.3.3.5.6.5.9s-.2.5-.6.8c-.4.3-.8.4-1.1.4s-1.2,0-3.1-.3c-1.7-.2-3.4-.3-5.1-.3s-.8,0-2,0-2.3,0-3.3,0c0,.3,0,.8,0,1.5,0,.7,0,1.2,0,1.6,1.6,0,3.6,0,5.9,0,0,0,0-.1.2-.3,0-.1.1-.3.2-.3,0,0,.1-.2.2-.3,0-.1.2-.2.3-.3,0,0,.2-.1.3-.2,0,0,.2-.1.3-.2.1,0,.2,0,.3,0,.6,0,1.4.2,2.5.7s1.7.8,1.7,1.1,0,.3-.1.3c0,0-.2.2-.4.2-.2,0-.3.2-.3.2-.4.2-.5.9-.5,2.1v.5c0,.3,0,.6,0,1.1,0,.4,0,.8,0,1,0,1.4-1.1,2-3.2,2s-.5-.2-.6-.7c-.6,0-1.7,0-3.2,0-1.6,0-2.8,0-3.7,0,0,.5,0,1.1,0,1.8,0,.7,0,1.2,0,1.5v.4c.5,0,1.1,0,1.8,0,.7,0,1.3,0,1.7,0,.4,0,.8,0,1,0,1,0,1.7-.4,2.2-1.1.6-.9,1-1.3,1.2-1.3.3,0,1.3.3,2.8.9.4.1.8.4,1.3.7s.8.6.8.8c0,.7-.2,1.3-.5,1.8-.4.7-.6,1.1-.7,1.3-.2.6-.3,1.4-.3,2.2h.2c.6,0,1-.2,1.3-.7.9-1.4,1.5-2.1,1.8-2.1s.5.2,1,.5c.5.3.9.7,1.3,1.1.9,1,1.3,1.7,1.3,2.2s-.3.7-.9.9c-.6.2-1.1.3-1.6.3s-.6,0-1-.1c-.4,0-.8-.1-1.3-.2-.5,0-1.2,0-2.2,0,0,.8.1,1.8.3,2.9.2,1.2.3,2,.3,2.3,0,.6-.4,1.2-1.3,1.7-.9.5-1.7.8-2.4.8s-.9-.2-1.1-.5c-.2-.3-.3-.9-.3-1.7-.5,0-1.5,0-3.1,0-1.5,0-2.7,0-3.5,0,0,.8,0,1.9,0,3.1s0,2-.2,2.5c-.2.7-.6,1.3-1.2,2-.6.7-1.2,1.1-1.9,1.2-1,.2-1.8.3-2.5.3-.1-.6-.5-1.2-1-1.8-.5-.6-1-1-1.5-1.2,0,0-.4-.2-1.1-.4-.6-.2-1.1-.4-1.5-.6-.3-.2-.5-.4-.5-.5,0-.4.2-.6.7-.6s.8,0,1.8.2,1.8.2,2.3.2c.7,0,1.2-.4,1.4-1.2,0-.3,0-1.3,0-3.1-6.3,0-10,0-11.3.3-.7.1-1.3.2-1.6.2s-.7-.3-1.1-.8c-.5-.5-.7-1-.7-1.4s.3-.4,1-.4.8,0,1.3.1c.5,0,.9.2,1.1.2,1,0,4.7.1,11.3.1,0-.4,0-1.1,0-2s0-1.6,0-2c-7,0-11.3,0-12.9.2-.2,0-.6.1-1.1.2-.5.1-.8.2-1.1.2s-.1,0-.2,0c0,0-.1,0-.2-.2,0,0-.1-.1-.2-.2,0,0-.1-.2-.2-.3,0-.1-.2-.2-.3-.3,0,0-.1-.1-.3-.3-.2-.2-.3-.3-.4-.5,0-.1-.1-.3-.1-.5,0-.3.4-.5,1.1-.5s1.1.1,2.8.3c1.4.1,5.8.2,13,.2,0-.4,0-1.1,0-1.9s0-1.4,0-1.8c-5.1,0-8.5.1-10.1.4-.7.1-1.3.2-1.7.2ZM279,19.9c0-.4,0-.9,0-1.7,0-.8,0-1.4,0-1.8-.5,0-1.3,0-2.3,0-1,0-1.9,0-2.7,0-.8,0-1.4,0-2,0,0,.4-.1,1-.1,1.8v1.5c2.3,0,4.7,0,7.2,0ZM283.8,19.9c2.1,0,4.3,0,6.8,0,0-.4,0-.9,0-1.5,0-.7,0-1.1,0-1.4v-.6c-.6,0-1.6,0-3.2,0-1.6,0-2.8,0-3.6,0,0,1.6,0,2.7,0,3.6ZM283.8,30.6c2,0,4.3,0,7,0,0-.5,0-1.6-.3-3.5-1.2,0-1.9,0-2.3,0s-.7,0-1.7,0c-1,0-2,0-2.8,0,0,1.6,0,2.8,0,3.6ZM283.9,32.3c0,.4,0,1.1,0,2s0,1.6,0,2c.7,0,1.9,0,3.4,0,1.5,0,2.6,0,3.3,0,.1-1.4.2-2.7.2-3.9-.4,0-1.5,0-3.1,0-1.6,0-2.9,0-3.9,0Z"/>
        </g>
      </g>
      <g class="cls-8">
        <g class="cls-4">
          <g>
            <path class="cls-7" d="M46.4,24.9c0,11.9-9.7,21.6-21.6,21.6S3.3,36.8,3.3,24.9,12.9,3.3,24.9,3.3s21.6,9.7,21.6,21.6"/>
            <circle class="cls-2" cx="24.8" cy="24.8" r="21.6"/>
            <path class="cls-5" d="M24.9,24.9s13,7.5,0,21.6c-1.4,0-20,.1-21.6-21.6,0-2.7,2-21.4,21.6-21.6,0,.6-13.2,12.4,0,21.6"/>
            <path class="cls-2" d="M24.9,24.9s13,7.5,0,21.6c-1.4,0-20,.1-21.6-21.6,0-2.7,2-21.4,21.6-21.6,0,.6-13.2,12.4,0,21.6Z"/>
          </g>
        </g>
      </g>
    </g>
  </g>
</svg>