<?xml version="1.0" encoding="UTF-8"?>
<svg id="_レイヤー_1" data-name="レイヤー_1" xmlns="http://www.w3.org/2000/svg" viewBox="0 0 345.15 46.78">
  <defs>
    <style>
      .cls-1, .cls-2 {
        fill: none;
        stroke: #c9533a;
        stroke-miterlimit: 10;
        stroke-width: 2.83px;
      }

      .cls-3 {
        fill: #d4533a;
      }

      .cls-4 {
        fill: #c9533a;
      }

      .cls-2 {
        stroke-linecap: round;
      }
    </style>
  </defs>
  <g>
    <path class="cls-3" d="M71.47,18.18c0-1.68-.19-4.35-.58-8.01-.03-.45-.12-1.13-.27-2.05-.15-.92-.23-1.43-.23-1.55,0-.51.1-.83.31-.97.21-.14.57-.2,1.09-.2.17,0,.49.12.97.36.48.24.98.5,1.5.79.52.29.84.46.95.52.08.03.89.08,2.43.16,1.54.08,2.54.11,3.01.11.66,0,1.62-.03,2.89-.09.77-.36,1.26-.78,1.48-1.26.55-.81,1-1.21,1.36-1.21.71,0,1.77.4,3.17,1.21,1.13.63,1.69,1.26,1.69,1.89,0,.21-.02.39-.06.54-.04.15-.08.25-.12.31-.04.06-.15.21-.33.45-.18.24-.32.44-.43.58-.17.21-.27.65-.33,1.31-.03.39-.04,1.47-.04,3.24,0,.9,0,1.64.02,2.23.01.58.02,1.51.02,2.77,0,3.54.05,7.09.14,10.64.1,3.55.14,5.81.14,6.77,0,1.05-.1,1.84-.29,2.38-.17.63-.57,1.35-1.22,2.16-.65.81-1.3,1.29-1.96,1.44-1.21.12-1.91.18-2.1.18-.14-.63-.42-1.28-.84-1.96-.43-.68-.85-1.09-1.26-1.24-.17-.09-.51-.24-1.03-.45-.52-.21-.95-.41-1.28-.61-.33-.2-.49-.38-.49-.56s.07-.38.21-.59c.14-.21.32-.31.54-.31.14,0,.65.04,1.55.13s1.55.13,1.96.13c.69,0,1.08-.36,1.2-1.08.17-5.31.26-8.49.29-9.54h-10.64c-.6,4.26-1.39,7.18-2.35,8.77-.58.93-.99,1.59-1.24,1.98-.25.39-.67.91-1.28,1.55-.6.65-1.31,1.24-2.1,1.78-2.12,1.53-4.05,2.29-5.81,2.29-.47,0-.7-.29-.7-.86,0-.39.23-.72.7-.99,1.46-.87,2.54-1.59,3.24-2.16.7-.57,1.44-1.4,2.21-2.48.88-1.23,1.57-2.41,2.06-3.55.49-1.14.93-2.97,1.3-5.49.37-2.52.56-5.68.56-9.5ZM85.61,18.23h-10.1c-.03,2.13-.14,4.22-.33,6.25h10.39c.03-1.32.04-3.4.04-6.25ZM85.61,15.84c0-.51-.02-1.09-.06-1.73-.04-.64-.06-1.12-.06-1.42,0-1.2-.07-2.28-.21-3.24l-9.69.04c0,.48-.01,1.44-.04,2.88-.03,1.44-.04,2.59-.04,3.46h10.1Z"/>
    <path class="cls-3" d="M104.45,16.16c0-2.82-.1-5.28-.29-7.38-.03-.36-.1-.97-.21-1.82-.11-.85-.17-1.34-.17-1.46,0-.48.07-.75.21-.81.27-.24.67-.36,1.2-.36.25,0,.68.14,1.3.4.62.27,1,.42,1.13.45.08.03.29.11.64.25.34.13.61.23.8.29h3.22c.33-.15.67-.35,1.01-.61.34-.25.62-.44.84-.56.22-.12.41-.18.58-.18.5,0,1.3.26,2.41.79,1.11.53,1.67,1,1.67,1.42s-.26.84-.78,1.26c-.27.21-.44.59-.49,1.15-.06.56-.08,1.73-.08,3.53,0,.39.08,1.14.23,2.25.15,1.11.23,1.77.23,1.98,0,.9-.3,1.67-.89,2.29s-1.12.94-1.59.94c-1.1,0-1.73-.33-1.9-.99h-5.69v4.09c0,1.32.08,4.7.23,10.12s.23,8.25.23,8.46c0,.54-.34,1.02-1.01,1.44s-1.34.63-2,.63c-.58,0-.96-.14-1.15-.43-.19-.29-.29-.83-.29-1.64,0-.21.1-4.16.31-11.86s.31-12.25.31-13.66ZM107.83,11.48h6.06c-.03-1.17-.11-2.47-.25-3.91h-5.44c-.25.96-.37,2.27-.37,3.91ZM107.83,13.37v3.73h5.73c.03-.24.06-.61.1-1.12.04-.51.08-.99.12-1.44.04-.45.06-.84.06-1.17h-6.02ZM116.48,38.39c0,.42-.32.87-.97,1.35-.65.48-1.2.72-1.67.72-.41,0-.69-.15-.84-.45-.15-.3-.23-.84-.23-1.62,0-.21.02-.5.06-.88.04-.38.08-1.18.12-2.41.04-1.23.06-2.98.06-5.26,0-1.53-.04-2.94-.12-4.23-.03-.36-.08-.86-.14-1.51s-.1-1.01-.1-1.1c0-.42.07-.7.21-.83.14-.13.4-.2.78-.2.44,0,1.37.34,2.8,1.04.25.15,1.53.22,3.83.22,2.17,0,3.41-.1,3.71-.31.08-.03.26-.15.54-.36.27-.21.53-.37.76-.47.23-.1.47-.16.72-.16.38,0,.91.18,1.57.54.41.24.62.58.62,1.04v.27c0,.18-.14.67-.41,1.49-.03.06-.06.11-.08.16s-.05.08-.06.11c-.01.03-.03.08-.04.13-.01.06-.03.13-.04.2-.01.08-.03.19-.04.34-.01.15-.02.32-.02.52s0,.44-.02.74-.02.65-.02,1.03v1.35c0,2.22.04,4.05.12,5.49l.12,2.16c0,.51-.29.98-.87,1.42-.58.44-1.1.65-1.57.65-.82,0-1.26-.75-1.32-2.25-.66-.09-1.83-.13-3.5-.13-1.79,0-3.09.04-3.92.13l-.04,1.08ZM123.99,29.16l-.04-4.28h-7.46l-.04,4.28h7.54ZM120.11,35.51c.25,0,1.53-.06,3.83-.18l.04-4.37h-7.54l.04,4.5c.36.03,1.57.04,3.63.04ZM138.5,7.16c0,.27-.21.66-.62,1.17-.41.51-.62.89-.62,1.12,0,.15-.04.73-.1,1.73-.07,1.01-.12,2.07-.17,3.19s-.06,2.15-.06,3.08c0,4.83.15,9.32.45,13.48s.45,6.53.45,7.13c0,1.14-.07,1.88-.21,2.2-.22.66-.58,1.31-1.09,1.96-.51.64-1.09,1.03-1.75,1.15-.74.15-1.54.22-2.39.22-.14-.54-.44-1.1-.91-1.69-.47-.58-.92-.95-1.36-1.1-.11-.03-.31-.09-.6-.18-.29-.09-.54-.18-.76-.27-.22-.09-.45-.18-.68-.27s-.42-.19-.56-.31-.21-.24-.21-.36c0-.39.19-.58.58-.58.17,0,.74.06,1.71.18.98.12,1.68.18,2.12.18.25,0,.47-.06.66-.18.19-.12.32-.25.39-.38.07-.14.16-.32.27-.56.08-2.22.12-7.21.12-14.99,0-.39,0-1.04-.02-1.96-.01-.91-.02-1.63-.02-2.14h-7.09c-.61.66-1.11.99-1.53.99-.47,0-.91-.11-1.32-.34-.41-.23-.62-.59-.62-1.1,0-.24.06-1.18.19-2.81.12-1.63.19-2.77.19-3.4,0-1.23-.08-2.59-.23-4.1-.15-1.5-.23-2.31-.23-2.43,0-.96.36-1.44,1.07-1.44.77,0,1.98.45,3.63,1.35h4.74c.19-.12.41-.28.66-.47.25-.19.43-.34.56-.43.12-.09.27-.17.43-.25.17-.07.33-.11.49-.11.63,0,1.53.35,2.68,1.03,1.15.69,1.73,1.25,1.73,1.67ZM132.6,7.56h-5.9c-.08.54-.15,1.84-.21,3.91h6.47c0-1.8-.12-3.1-.37-3.91ZM133.05,13.37h-6.55c.03.42.07,1.08.12,1.98.05.9.08,1.49.08,1.75h6.43c0-.42,0-1.05-.02-1.89s-.03-1.46-.06-1.84Z"/>
    <path class="cls-3" d="M150.57,12.78l1.15.49c.77.33,1.48.5,2.14.5,2.06,0,4.03-.28,5.89-.85,2.91-.87,6.29-1.31,10.14-1.31.77,0,1.68.35,2.74,1.03,1.06.69,1.59,1.41,1.59,2.16,0,.51-.11.89-.33,1.12-.22.24-.53.43-.93.56s-1.13.43-2.18.88c-1.06.45-2.18,1.04-3.36,1.75-.39.24-1.05.57-2,.99s-1.7.78-2.25,1.08c-.91,4.11-1.75,6.92-2.51,8.41-1.02,2.01-2.29,3.74-3.83,5.18-1.54,1.44-2.61,2.16-3.22,2.16-.3,0-.45-.15-.45-.45,0-.87.41-1.65,1.24-2.34.63-.54,1.33-1.36,2.08-2.45.76-1.09,1.35-2.12,1.79-3.08,1.59-3.42,2.39-6.6,2.39-9.54,0-.51-.12-.93-.35-1.26s-.5-.55-.78-.65c-.29-.1-.55-.23-.78-.38s-.35-.33-.35-.54c0-.24.04-.45.12-.63-1.59.42-2.49.67-2.68.76-.91.36-1.76.54-2.56.54-.44,0-1.09-.38-1.96-1.15-.87-.76-1.3-1.31-1.3-1.64,0-.9.18-1.35.54-1.35ZM163.52,19.62c.77-.36,1.39-.72,1.86-1.08.77-.57,1.45-1.25,2.04-2.03.59-.78.89-1.33.89-1.67,0-.54-.49-.81-1.48-.81-1.37,0-3.68.41-6.92,1.21.96.15,1.84.49,2.64,1.01.8.53,1.2,1.09,1.2,1.69,0,.3-.07.85-.21,1.67Z"/>
    <path class="cls-3" d="M188.71,21.96c.22,0,.73.15,1.55.45.81.3,1.3.45,1.46.45.3,0,3.11-.25,8.41-.74,5.3-.5,8.37-.8,9.19-.92.33-.06,1.2-.23,2.62-.5,1.42-.27,2.36-.41,2.82-.41.66,0,1.5.31,2.51.92s1.53,1.21,1.53,1.78c0,.6-.2,1.13-.6,1.6-.4.46-.83.7-1.3.7-.27,0-1.07-.14-2.39-.43s-2.25-.43-2.8-.43c-1.15,0-3.24.08-6.27.23-3.24.18-5.17.33-5.77.45-.14.03-.58.14-1.32.34-.74.2-1.48.38-2.23.54-.74.17-1.39.31-1.94.43-.82.12-1.31.18-1.44.18-.69,0-1.74-.44-3.15-1.33s-2.12-1.55-2.12-2c0-.87.41-1.3,1.24-1.3Z"/>
    <path class="cls-3" d="M235.2,18.27c.08,0,.32.08.7.23.38.15.89.22,1.52.22,1.18,0,3.16-.09,5.94-.27.11-.96.17-2.1.17-3.42,0-.57-.3-1.12-.89-1.64s-.89-.86-.89-1.01c0-.33.12-.56.35-.7.23-.13.68-.2,1.34-.2.99,0,2,.23,3.05.7,1.04.47,1.57,1.18,1.57,2.14,0,.39-.14.71-.41.97s-.41.41-.41.47c-.06.87-.14,1.68-.25,2.43,2.42-.27,3.83-.57,4.25-.9.69-.57,1.35-.86,1.98-.86.44,0,1.08.34,1.94,1.01.85.67,1.28,1.36,1.28,2.05,0,.45-.3.84-.91,1.17-.44.24-.8.99-1.07,2.25-.27,1.26-.53,2.68-.76,4.25s-.5,2.69-.8,3.35c-.6,1.26-1.39,2.31-2.35,3.15s-1.72,1.26-2.27,1.26c-.77,0-1.32-.92-1.65-2.75-.08-.3-.25-.52-.5-.67-.25-.09-.48-.25-.7-.47-.22-.22-.33-.4-.33-.52,0-.42.21-.63.62-.63.17,0,.47.04.91.13.44.09.76.13.95.13.71,0,1.35-.34,1.9-1.03.55-.69.95-1.55,1.22-2.59.26-1.04.45-2.02.58-2.95.12-.93.19-1.77.19-2.52,0-.54-.09-.91-.27-1.12-.18-.21-.46-.31-.84-.31-.58,0-1.79.12-3.63.36-.96,5.13-2.89,9.27-5.77,12.42-1.32,1.44-2.85,2.66-4.6,3.65-1.75.99-3.06,1.49-3.94,1.49-.33,0-.5-.23-.5-.68,0-.18.17-.46.52-.83.34-.38.68-.65,1.01-.83,2.06-1.02,4-2.8,5.83-5.35,1.83-2.55,3.08-5.67,3.77-9.36-2.5.36-3.9.63-4.2.81-.5.27-.88.4-1.15.4-.55,0-1.22-.3-2-.9-.78-.6-1.17-1.12-1.17-1.58,0-.63.23-.95.7-.95Z"/>
    <path class="cls-3" d="M287.23,20.03c.05.03.2.11.43.23.23.12.4.2.49.25.1.04.24.12.43.23.19.11.34.19.43.25.1.06.22.15.37.27.15.12.26.22.33.31.07.09.14.2.23.32.08.12.14.25.17.38.03.14.04.28.04.43,0,.06-.04.29-.1.7-.07.41-.14.95-.21,1.64-.07.69-.1,1.38-.1,2.07,0,.84.04,2.42.12,4.72.08,2.31.12,3.87.12,4.68,0,.51-.19,1.05-.56,1.62s-.76.85-1.17.85c-.69,0-1.22-.34-1.59-1.01-.37-.67-.56-1.31-.56-1.91,0-.72.08-1.98.23-3.78.15-1.8.24-3.04.27-3.73.05-1.29.08-2.96.08-5,0-.87-.23-1.5-.7-1.89-6.79,6.27-10.9,9.41-12.33,9.41-.39,0-.58-.16-.58-.5s.38-.82,1.15-1.48c.77-.66,1.95-1.7,3.54-3.11s3.09-2.91,4.49-4.5c.96-1.08,2.06-2.59,3.3-4.54,1.24-1.95,1.86-3.31,1.86-4.09,0-.06-.21-.25-.62-.56-.41-.31-.62-.65-.62-1.01,0-.24.2-.5.6-.77s.85-.4,1.34-.4c.91,0,1.83.39,2.76,1.17.93.78,1.4,1.48,1.4,2.12,0,.21-.24.61-.72,1.19-.48.58-1.17,1.42-2.06,2.5-.89,1.08-1.66,2.07-2.29,2.97Z"/>
    <path class="cls-3" d="M332.12,25.56c-1.32,1.95-2.74,3.58-4.27,4.88-1.53,1.3-3.32,2.53-5.38,3.67-.47.24-1.09.5-1.88.77-.78.27-1.29.41-1.5.41-.3,0-.57-.07-.8-.2s-.35-.28-.35-.43c0-.24.12-.43.35-.58.23-.15.59-.33,1.07-.54.48-.21.86-.4,1.13-.58,2.03-1.32,4.18-3.27,6.43-5.85,1.62-1.89,3.11-4.54,4.45-7.96.33-.84.49-1.65.49-2.43-1.32,0-3.33.39-6.02,1.17-.25.09-.79.27-1.63.54-.84.27-1.51.47-2.02.61-.51.13-.94.2-1.3.2-.66,0-1.43-.41-2.31-1.24-.88-.83-1.32-1.48-1.32-1.96,0-.57.36-.85,1.07-.85.19,0,.62.07,1.3.2s1.17.2,1.5.2c1.1,0,4.09-.46,8.99-1.4.91-.18,1.67-.41,2.29-.7s1.06-.43,1.34-.43c.77,0,1.59.52,2.47,1.55.88,1.04,1.32,1.84,1.32,2.41,0,.54-.33,1.01-.99,1.4-.66.39-1.1.76-1.32,1.12-.22.36-.69,1.3-1.4,2.81-.72,1.51-1.29,2.59-1.73,3.22ZM341.27,13.01c0,1.23-.5,1.84-1.48,1.84-.82,0-1.32-.28-1.48-.85-.27-.93-.69-1.68-1.24-2.25-.22-.24-.53-.48-.93-.72-.4-.24-.67-.43-.8-.58-.27-.3-.41-.58-.41-.85,0-.39.33-.58.99-.58.91,0,2.03.4,3.36,1.21s2,1.74,2,2.79ZM345.15,10.22c0,1.29-.5,1.94-1.48,1.94-.8,0-1.29-.3-1.48-.9-.27-.93-.69-1.68-1.24-2.25-.22-.24-.53-.48-.93-.72-.4-.24-.67-.43-.8-.58-.27-.3-.41-.58-.41-.85,0-.36.33-.54.99-.54.91,0,2.03.39,3.36,1.17,1.33.78,2,1.7,2,2.75Z"/>
  </g>
  <g>
    <path class="cls-2" d="M6.8,10.25S-.67-4.32,12.81,4.97c2.7-.92,15.05-7.5,30.61-.01,1.98-1.32,12.93-8.1,6.42,5.3.16,1.29,8.89,17.59,2.63,25.75-6.26,8.15-25.07,13.26-42.4,5.6s-3.27-31.34-3.27-31.34Z"/>
    <line class="cls-2" x1="47.57" y1="9.32" x2="50.47" y2="11.9"/>
    <line class="cls-2" x1="9.32" y1="9" x2="5.57" y2="12.59"/>
    <circle class="cls-4" cx="12.72" cy="25.6" r="2.21"/>
    <circle class="cls-4" cx="43.96" cy="25.6" r="2.21"/>
    <path class="cls-1" d="M1.94,32.45s5.05-4.27,9.32,0-2.41,8.56-2.41,8.56"/>
    <path class="cls-1" d="M47.01,40.63s-5.7-2.68-1.65-8.12,8.72.35,8.72.35"/>
    <path class="cls-1" d="M18.36,31.04s1.64-7.28,9.71-6.27,14.06,5.89,9,11.01-18.98,3.55-18.71-4.74Z"/>
    <line class="cls-2" x1="32.32" y1="29.59" x2="32.32" y2="33.36"/>
    <line class="cls-2" x1="24.67" y1="29.59" x2="24.67" y2="33.36"/>
  </g>
</svg>