<?xml version="1.0" encoding="UTF-8"?>
<svg id="_レイヤー_1" data-name="レイヤー_1" xmlns="http://www.w3.org/2000/svg" viewBox="0 0 249.19 38.23">
  <defs>
    <style>
      .cls-1 {
        fill: #87b79b;
      }

      .cls-1, .cls-2 {
        stroke: #151515;
        stroke-miterlimit: 10;
        stroke-width: .71px;
      }

      .cls-3 {
        fill: #d4533a;
      }

      .cls-2 {
        fill: #de7ba7;
      }
    </style>
  </defs>
  <g>
    <path class="cls-3" d="M59.49,15.55c.08,0,.32.08.7.23.38.15.89.22,1.53.22,1.18,0,3.16-.09,5.94-.27.11-.96.17-2.1.17-3.42,0-.57-.3-1.12-.89-1.64-.59-.52-.89-.86-.89-1.01,0-.33.12-.56.35-.7.23-.13.68-.2,1.34-.2.99,0,2.01.23,3.05.7,1.04.47,1.57,1.18,1.57,2.14,0,.39-.14.71-.41.97-.27.25-.41.41-.41.47-.06.87-.14,1.68-.25,2.43,2.42-.27,3.83-.57,4.25-.9.69-.57,1.35-.86,1.98-.86.44,0,1.09.34,1.94,1.01.85.67,1.28,1.36,1.28,2.05,0,.45-.3.84-.91,1.17-.44.24-.8.99-1.07,2.25-.28,1.26-.53,2.68-.76,4.25-.23,1.58-.5,2.69-.8,3.35-.6,1.26-1.39,2.31-2.35,3.15-.96.84-1.72,1.26-2.27,1.26-.77,0-1.32-.92-1.65-2.75-.08-.3-.25-.52-.49-.67-.25-.09-.48-.25-.7-.47-.22-.22-.33-.4-.33-.52,0-.42.21-.63.62-.63.17,0,.47.04.91.13.44.09.76.13.95.13.71,0,1.35-.34,1.9-1.03.55-.69.95-1.55,1.22-2.59.26-1.04.45-2.02.58-2.95.12-.93.19-1.77.19-2.52,0-.54-.09-.91-.27-1.12-.18-.21-.46-.31-.85-.31-.58,0-1.79.12-3.63.36-.96,5.13-2.89,9.27-5.77,12.42-1.32,1.44-2.85,2.66-4.6,3.65-1.75.99-3.06,1.49-3.94,1.49-.33,0-.49-.23-.49-.68,0-.18.17-.46.52-.83.34-.38.68-.65,1.01-.83,2.06-1.02,4-2.8,5.83-5.35,1.83-2.55,3.08-5.67,3.77-9.36-2.5.36-3.9.63-4.21.81-.49.27-.88.4-1.15.4-.55,0-1.22-.3-2-.9-.78-.6-1.17-1.12-1.17-1.58,0-.63.23-.95.7-.95Z"/>
    <path class="cls-3" d="M117.16,14.52c.6,0,1.5.37,2.68,1.1,1.18.74,1.77,1.36,1.77,1.87,0,.96-.47,1.44-1.4,1.44-.3,0-1.09-.13-2.37-.38-1.28-.25-2.82-.38-4.64-.38.83,1.02,1.24,1.8,1.24,2.34,0,.45-.19.93-.58,1.44-.39.51-.61.83-.66.94-1.32,3.15-3.43,5.86-6.33,8.12-2.9,2.27-5.24,3.4-7.03,3.4-.11,0-.23-.05-.37-.16-.14-.11-.21-.23-.21-.38,0-.33.33-.69.99-1.08,2.58-1.47,4.97-3.5,7.15-6.1,2.18-2.59,3.28-4.7,3.28-6.32,0-.93-1-1.47-3.01-1.62-.88.18-1.83.4-2.84.65-1.02.26-1.82.46-2.41.61-.59.15-1,.23-1.22.23-.52,0-1.17-.37-1.94-1.1-.77-.74-1.15-1.28-1.15-1.64,0-.72.25-1.08.74-1.08.08,0,.43.11,1.05.34.62.23,1.37.34,2.25.34,4.64,0,8.63-.46,11.96-1.39.44-.12.89-.29,1.36-.5.47-.21.84-.38,1.11-.5.27-.12.47-.18.58-.18ZM104.81,9.5c.56.17,1.02.25,1.38.25s1.57-.19,3.65-.58c2.08-.39,3.28-.67,3.61-.85.66-.36,1.17-.54,1.53-.54.6,0,1.13.29,1.59.88.45.58.68,1.04.68,1.37,0,.84-1.48,1.26-4.45,1.26-.85,0-2.12.22-3.81.67-1.69.45-2.73.67-3.11.67-.44,0-1.09-.3-1.94-.9-.85-.6-1.28-1.11-1.28-1.53,0-.63.36-.95,1.07-.95.16,0,.53.08,1.09.25Z"/>
    <path class="cls-3" d="M159.33,22.71c-.14,0-.43.65-.89,1.93-.45,1.29-.68,2.04-.68,2.25,0,.24.2.44.6.61.4.17.8.39,1.2.67.4.29.6.7.6,1.24,0,.39-.11.75-.33,1.08s-.4.5-.54.5h-.33c-.17,0-.39.03-.66.09-.27.06-.59.09-.95.09-.27,0-.67-.04-1.2-.11-.52-.07-.93-.11-1.24-.11l-4.21.36c-.3.12-.59.2-.87.25-.28.04-.59.08-.95.11-.36.03-.66.06-.91.09-.14.03-.36.08-.68.16-.32.08-.56.11-.72.11s-.36.05-.58.16c-.22.11-.4.16-.54.16-.3,0-.61-.15-.93-.45-.32-.3-.53-.48-.64-.54-.33-.18-.81-.64-1.44-1.39l-.04-.32c-.03-.18-.04-.37-.04-.58,0-.6.17-.9.5-.9h.08c.08,0,.27.06.56.18.29.12.71.23,1.28.34.56.11,1.23.16,2,.16,1.13,0,2.69-.18,4.7-.54l2.1-.36c.11,0,.29-.05.54-.16.25-.1.37-.17.37-.2.96-1.83,1.44-3.11,1.44-3.83,0-.15.05-.67.17-1.55.11-.88.17-1.48.17-1.78,0-.12-.04-.3-.12-.54-.08-.24-.12-.45-.12-.63,0-.03-.06-.1-.19-.2-.12-.11-.21-.16-.27-.16-.08,0-.21-.02-.39-.07s-.36-.07-.56-.07c-.22,0-.49.03-.82.09-.33.06-.67.14-1.01.25s-.56.16-.64.16l-1.2.13c0,.09-.14.13-.41.13-.47,0-1.03.08-1.69.25-.66.17-1.15.25-1.48.25-.3,0-.64.05-1.01.16s-.67.22-.89.34l-.33.13-.29.27c-.17.18-.33.27-.49.27-.14,0-.29-.03-.45-.09-.17-.06-.3-.12-.41-.18l-.17-.09s-.21-.12-.56-.27c-.34-.15-.65-.31-.93-.47-.28-.16-.54-.43-.78-.81-.25-.38-.37-.8-.37-1.28,0-.81.21-1.22.62-1.22.05,0,.1,0,.14.02.04.01.08.04.1.07s.13.07.31.11c.18.04.41.08.68.11.19.03.34.08.43.16.1.08.41.13.93.16l1.4.13c1.65-.12,3.13-.32,4.45-.61,1.32-.29,2.34-.46,3.05-.52.55-.03,1.08-.07,1.61-.13s.91-.11,1.17-.16c.26-.04.39-.08.39-.11s.1-.07.31-.11.45-.1.74-.18c.29-.08.49-.16.6-.25.11-.09.22-.13.33-.13.03,0,.1,0,.23.02.12.02.24.02.35.02.08,0,.38.21.91.63.52.42,1.06.99,1.61,1.71.55.72.82,1.4.82,2.03,0,.12-.03.18-.08.18,0,.15-.12.32-.37.52-.25.2-.54.41-.87.63-.33.23-.55.4-.66.52-.08.09-.17.23-.27.43s-.17.35-.23.47l-.08.22ZM159.74,12.32c0-.18.08-.37.23-.56.15-.2.41-.29.76-.29.19,0,.42.03.68.09.26.06.47.12.64.18.17.06.26.09.29.09.44,0,1.04.22,1.81.67.14.09.29.21.45.36s.29.29.39.4c.1.12.14.2.14.23.58.81.87,1.51.87,2.11s-.04.86-.12.86l-.16.22c-.08.15-.21.29-.39.43-.18.13-.38.2-.6.2-.25,0-.45-.05-.6-.16-.15-.1-.32-.27-.49-.5-.18-.22-.38-.41-.6-.56-.08-.06-.24-.28-.47-.67-.23-.39-.38-.61-.43-.67-.06-.06-.18-.15-.37-.27-.19-.12-.34-.25-.45-.4-.14-.18-.34-.4-.62-.65-.28-.25-.5-.48-.68-.68-.18-.19-.27-.34-.27-.43ZM169.22,11.46c0,.09.03.29.1.58.07.3.1.56.1.76,0,.12,0,.25-.02.38-.01.13-.04.26-.06.38v.13c0,.12-.16.3-.47.54-.32.24-.63.36-.93.36-.47,0-1.04-.33-1.73-.99-.11-.09-.19-.26-.25-.52-.06-.25-.12-.44-.21-.56-.08-.12-.21-.23-.39-.34-.18-.1-.34-.26-.47-.47-.27-.39-.52-.59-.74-.59-.06,0-.12-.04-.21-.13-.08-.09-.15-.13-.21-.13s-.11-.01-.16-.04c-.06-.03-.14-.07-.25-.13s-.23-.12-.37-.18c-.19-.09-.35-.17-.47-.25-.12-.07-.21-.13-.27-.18-.06-.04-.1-.08-.12-.09-.03-.01-.06-.02-.08-.02-.06,0-.11-.04-.17-.13-.06-.09-.08-.17-.08-.22s.09-.18.27-.36c.18-.18.29-.27.35-.27.55,0,1.26.07,2.14.2s1.46.2,1.73.2c.58.21,1.04.41,1.38.61.34.2.54.35.6.45.05.11.1.18.14.23.04.04.1.07.19.07.05,0,.18.11.37.31.19.21.29.35.29.41Z"/>
    <path class="cls-3" d="M187.69,9.43c.74,0,1.46.28,2.14.83.69.56,1.03,1.06,1.03,1.51,0,.3-.04.63-.1.99-.07.36-.1.69-.1.99,0,.12.01,1.21.04,3.29s.04,3.18.04,3.33c0,.54-.17,1.02-.49,1.44-.33.42-.65.63-.95.63-.41,0-.78-.22-1.11-.65-.33-.43-.5-.98-.5-1.64,0-.06,0-.28.02-.67.01-.39.02-.87.02-1.44v-1.58c0-2.73-.29-4.23-.87-4.5-.96-.42-1.44-.86-1.44-1.3,0-.27.2-.54.6-.81.4-.27.95-.4,1.67-.4ZM195.89,6.96c.63,0,1.37.41,2.23,1.21.85.81,1.28,1.61,1.28,2.38,0,.51-.12.95-.37,1.31-.28.39-.41.83-.41,1.3,0,4.77-.59,8.7-1.77,11.79-.66,1.77-1.55,3.43-2.66,4.97s-2.19,2.77-3.24,3.67c-1.04.9-1.99,1.61-2.82,2.12-.84.51-1.45.77-1.83.77-.41,0-.62-.21-.62-.63,0-.57.54-1.26,1.61-2.07.36-.27.77-.62,1.24-1.06.47-.43,1.08-1.06,1.83-1.87.76-.81,1.46-1.79,2.1-2.93.65-1.14,1.11-2.29,1.38-3.46.88-3.6,1.32-7.53,1.32-11.79,0-1.23-.04-2.12-.1-2.68-.07-.55-.11-.84-.12-.85-.01-.01-.12-.1-.31-.25-.36-.33-.54-.6-.54-.81,0-.27.18-.52.54-.77.36-.24.78-.36,1.28-.36Z"/>
    <path class="cls-3" d="M219.1,19.24c.22,0,.73.15,1.55.45.81.3,1.3.45,1.46.45.3,0,3.11-.25,8.41-.74,5.3-.5,8.37-.8,9.19-.92.33-.06,1.2-.23,2.62-.5,1.42-.27,2.36-.41,2.82-.41.66,0,1.5.31,2.51.92s1.53,1.21,1.53,1.78c0,.6-.2,1.13-.6,1.6-.4.46-.83.7-1.3.7-.27,0-1.07-.14-2.39-.43s-2.25-.43-2.8-.43c-1.15,0-3.24.08-6.27.23-3.24.18-5.17.33-5.77.45-.14.03-.58.14-1.32.34-.74.2-1.48.38-2.23.54-.74.17-1.39.31-1.94.43-.82.12-1.31.18-1.44.18-.69,0-1.74-.44-3.15-1.33s-2.12-1.55-2.12-2c0-.87.41-1.3,1.24-1.3Z"/>
  </g>
  <g>
    <path class="cls-1" d="M21.46,27.74c-.26,6.7-9.56,11-18.05,9.98-8.49-1.02,3.42-11,3.42-11l5.87-1.07,3.99-.2,4.77,2.28Z"/>
    <path class="cls-1" d="M34.28,27.91s3.86,2.15,5.71,3.57,3.16,4.22-7.5,6.17c-10.66,1.95-10.83-9.41-10.83-9.41l4.82-1.37h4.46l3.33,1.04Z"/>
    <path class="cls-2" d="M21.28,26.55c8.42,9.82,14.67.25,14.91-1.47C38.9,8.7,22.12,1.42,22.12,1.42c0,0-2.29-1.41-4.67-.98,0,0-23.09,15.47-12.12,28.24s22.82-6.88,14.49-15.15"/>
  </g>
</svg>