<?xml version="1.0" encoding="UTF-8"?>
<svg xmlns="http://www.w3.org/2000/svg" xmlns:xlink="http://www.w3.org/1999/xlink" version="1.1" viewBox="0 0 231 55.3">
  <defs>
    <style>
      .cls-1, .cls-2 {
        fill: none;
      }

      .cls-3 {
        isolation: isolate;
      }

      .cls-4 {
        clip-path: url(#clippath-1);
      }

      .cls-5 {
        fill: #d4533a;
      }

      .cls-2 {
        stroke: #0e0704;
        stroke-miterlimit: 10;
        stroke-width: .7px;
      }

      .cls-6 {
        fill: #fdf0e3;
      }

      .cls-7 {
        clip-path: url(#clippath);
      }
    </style>
    <clipPath id="clippath">
      <rect class="cls-1" y="0" width="55.3" height="55.3"/>
    </clipPath>
    <clipPath id="clippath-1">
      <rect class="cls-1" y="0" width="55.3" height="55.3"/>
    </clipPath>
  </defs>
  <!-- Generator: Adobe Illustrator 28.6.0, SVG Export Plug-In . SVG Version: 1.2.0 Build 709)  -->
  <g>
    <g id="_レイヤー_1">
      <g class="cls-3">
        <g class="cls-3">
          <path class="cls-5" d="M87.8,23c0,.5-.1.9-.4,1.3-.3.3-.5.5-.8.6h-.4c-.1.1-.5.4-.9.9-.8,2.4-1.2,3.7-1.2,4.1v.7c0,.2.2.4.7.5.5.1.9.4,1.2.9.2.2.3.4.3.6s0,0,0,.1c0,0,0,.1,0,.2s0,.2-.1.3c0,.1-.2.3-.4.5-.2.2-.4.3-.7.4h-.5c0,0-.2.1-.2.1-.1,0-.4,0-.9-.3-.4-.2-.8-.3-1.2-.3s-.5,0-.8.1c-.4,0-1,.2-1.7.2-.7,0-1.4.1-1.9.1-.6,0-.9,0-1,.1l-1.4.3c-.9.2-1.9.3-2.9.5s-1.5.2-1.6.2c-.4,0-.7,0-1-.2-.3-.2-.6-.2-.8-.2s-.5-.2-1-.6c-.5-.4-.8-.7-.8-.9s0-.3,0-.4c0-.1.2-.3.4-.6.2-.2.6-.3,1-.3s.6,0,1,.1c.4,0,.6.1.7.1h2.4c.1-.2,1.4-.3,3.9-.6,2.4-.2,3.8-.4,4.2-.6,0,0,.1,0,.2,0s.2,0,.2,0c0,0,.1-.1.2-.3,0-.1.1-.4.2-.7,0-.4.1-.8.2-1.4l.4-3.4c0,0,0-.3,0-.7,0-.4,0-.6,0-.7,0-.2,0-.3-.1-.4,0,0-.3,0-.6,0s-.8,0-1.3,0c-.5,0-1,.1-1.4.2h-.6c-.3,0-.5.1-.7.2-.2,0-.4,0-.5,0-.4,0-1.2,0-2.4.2-1.2,0-2.2.2-3,.3s-1.5.2-2,.4c-.2,0-.4.1-.5.1s-.6-.2-1.5-.6c-.2,0-.4-.4-.7-.9-.3-.5-.4-1-.4-1.4s0-.5.2-.6c.1-.2.2-.3.3-.3s.2,0,.2,0c.1,0,.2,0,.4.2.1.1.3.2.4.2.9,0,2.7.1,5.2.1,4.4,0,6.9-.2,7.4-.6.3-.3.8-.5,1.7-.7.8-.2,1.2-.3,1.3-.3h0c.2,0,.6.1,1.2.4.6.3,1.1.5,1.6.8l.7.4.6.5h0c0,.2,0,.3,0,.5,0,.2,0,.4,0,.6Z"/>
          <path class="cls-5" d="M124.8,22.8s.1,0,.2,0c.1,0,.2,0,.3,0,.3,0,.5-.3.8-.8l.3-.7c.2-.4.6-1.1,1-2.1.5-1,.7-1.7.7-2.1s-.2-.7-.6-1.2c-.4-.5-.8-.9-1.2-1.2l-.6-.5c0,0,0-.1,0-.2,0-.6.5-.9,1.4-.9h0s.1,0,.1,0c1.8,0,2.8.2,3.1.5l.9.5h.1c0,.2.2.4.3.5.1.1.2.2.2.2l.4.5c.7,1,1.1,1.8,1.1,2.3,0,.7-.1,1.2-.4,1.4,0,0-.3.1-.5.2-.3,0-.4.2-.6.3-1,1.1-1.8,2.2-2.5,3.2-.6,1.1-.9,1.8-.9,2.3s0,.2,0,.3c.7.7,1.2,1.1,1.4,1.3.2.2.4.5.7.9.3.4.4.7.5,1,0,.3,0,.6,0,1,0,.8-.1,1.3-.4,1.7s-.6.5-.9.5-.4,0-.7,0-.4-.1-.6-.2h-.2c-.1,0-.3-.3-.4-.6-.1-.4-.3-.8-.5-1.2s-.3-.8-.5-.9c-.5-.6-.9-.9-1-.9s-.2,0-.3.2l-1.2,1.8c-.7,1.1-1.7,2.3-3,3.5-1.3,1.2-2.4,2.1-3.3,2.7-.9.6-1.4.9-1.6,1l-.8.6c-2,1.2-3.9,1.8-5.9,1.8s-.3,0-.5-.2c-.2-.1-.2-.3-.2-.5s0-.2,0-.2c0,0,.2-.1.3-.2.1,0,.3-.2.5-.3.2,0,.4-.2.8-.4.3-.2.7-.4,1-.6l3-1.9c.5-.3,1.5-1.1,3-2.4,1.5-1.3,2.4-2.1,2.6-2.4l1.5-1.9c1.3-1.8,2-2.9,2-3.4s-.7-.7-2.1-1.5c-1.4-.8-2.1-1.3-2.2-1.4,0-.2-.1-.4-.1-.5,0-.3.2-.4.6-.4s1.4.2,2.6.6l1.8.6Z"/>
          <path class="cls-5" d="M161.2,22.7c-.4.4-1,.6-1.7.6s-1.3-.3-2-1c-.7-.7-1.3-1.4-1.7-2.1-.2-.3-.5-.7-.9-1-.4-.4-.8-.7-1.2-.9-.3-.3-.5-.5-.5-.6,0-.3.3-.5.8-.7s1-.3,1.5-.3c.9,0,1.9.1,3.2.4,1.2.3,2.1.6,2.5,1.1.5.5.8,1.3.8,2.4s-.2,1.7-.8,2.1ZM169.1,28.7c-.5.5-1.7,1.5-3.6,3.1-1.8,1.5-3.1,2.6-3.7,3.3-1.6,1.5-2.9,2.3-4.1,2.3s-1.7-.4-2.8-1.2c-1-.8-1.6-1.6-1.6-2.2s.1-1.4.4-2.2c.3-.8.6-1.2.9-1.2s.5.2,1.1.7c.6.5,1.2.7,1.7.7,2.1,0,6.3-2.8,12.5-8.3,3.3-2.9,5.9-5.4,7.9-7.5.5-.5.8-.8.9-.8.4,0,.6.3.6.9s-1.2,2.6-3.6,5.4c-2.4,2.8-4.7,5.2-6.8,7.2Z"/>
          <path class="cls-5" d="M208.3,36.9c0,.3.1.7.3,1.2.2.5.2.8.2,1.1,0,.3-.2.8-.6,1.4-.4.6-.7.9-1.1.9-.6,0-1.3-.7-2-2.1-.7-1.4-1.1-2.5-1.1-3.4s0-.8.2-1.4c.2-.6.3-1.1.3-1.4,0-.6.2-2.1.3-4.6s.2-4.2.2-5.4c0-2.3-.1-4.6-.4-6.9,0-.7-.2-1.2-.4-1.4-.3-.4-.6-.7-.9-1-.3-.2-.4-.6-.4-1.1s.2-.6.5-.9c.3-.2.8-.3,1.3-.3s1.1.1,1.7.4c.9.4,1.5.7,2,1.1.5.4.7.9.7,1.4s-.1.8-.4,1.3c-.3.5-.5.8-.5,1.1-.2,1.7-.3,3.6-.3,5.7.6-.2,1-.3,1.4-.3,1.4,0,2.9.4,4.7,1.3.5.3,1.1.8,1.6,1.5.6.8.8,1.6.8,2.5s-.2,1.5-.7,2c-.4.5-1,.7-1.5.7s-.9-.2-1.2-.5c-.3-.3-.7-1-1.2-1.8-.5-.9-.8-1.6-1.1-2-.3-.4-.7-.8-1.2-1.3-.5-.4-1.1-.7-1.6-.8,0,7.2.1,11.5.3,13Z"/>
        </g>
      </g>
      <g class="cls-7">
        <g class="cls-4">
          <g>
            <path class="cls-6" d="M13,25.5c-3,4.7.4,8.1,3.9,6.3,2.6-1.3,2.5-1.4,5.1-3.9,2.1-2,2.1-4.6-.7-5.6s-6.7.8-8.2,3.2"/>
            <path class="cls-2" d="M13,25.5c-3,4.7.4,8.1,3.9,6.3,2.6-1.3,2.5-1.4,5.1-3.9,2.1-2,2.1-4.6-.7-5.6s-6.7.8-8.2,3.2Z"/>
            <path class="cls-6" d="M42.5,25.5c3,4.7-.3,8.1-3.9,6.3-2.6-1.3-2.5-1.4-5.1-3.9-2.1-2-2.1-4.6.7-5.6,2.8-1,6.7.8,8.2,3.2"/>
            <path class="cls-2" d="M42.5,25.5c3,4.7-.3,8.1-3.9,6.3-2.6-1.3-2.5-1.4-5.1-3.9-2.1-2-2.1-4.6.7-5.6,2.8-1,6.7.8,8.2,3.2Z"/>
            <path class="cls-6" d="M32.6,35c-.3-.2-.5,0-.8,0-.3.1-2.5.3-3.4-1,.5,0,.7,0,1.4-1.1.7-1.1-.5-1.7-2.1-1.7s-2.9.6-2.1,1.7c.6.9,1,1,1.5,1,0,0-1.8,1.8-3.8,1-.3,0-.3,0-.5,0s-.1.5.8.7,2.8.2,4.1-1.3h.1s.6,1,1.7,1.2,2.4,0,2.6,0,.7-.2.5-.5"/>
            <path class="cls-2" d="M32.6,35c-.3-.2-.5,0-.8,0-.3.1-2.5.3-3.4-1,.5,0,.7,0,1.4-1.1.7-1.1-.5-1.7-2.1-1.7s-2.9.6-2.1,1.7c.6.9,1,1,1.5,1,0,0-1.8,1.8-3.8,1-.3,0-.3,0-.5,0s-.1.5.8.7,2.8.2,4.1-1.3h.1s.6,1,1.7,1.2,2.4,0,2.6,0,.7-.2.5-.5h0Z"/>
            <path class="cls-6" d="M48.2,23.1c3.1-2,2.7-6,2.5-6.5-2-6.1-8.4-5.8-9.7-5.4-2.8.8-4.1,1.9-4.7,2.6,0,0,0,0,0,0-9.2-3.1-16.5-.2-17.1,0-1.4-1.8-3.6-2.4-5-2.6-5.4-.8-9.7,2.7-9.6,6.9,0,2.9,1.7,4.5,2.7,5.1,0,0,0,0,0,.1-6.2,10.4,3.1,17.7,4.7,18.7,15.7,8.9,30.9,2,35.3-3.2,4.4-5.2,4-10.2,1.1-15.5,0,0,0,0,0-.1M49.5,31.4c-.5,5.8-8.1,14.4-21.2,14.1-13.2-.2-21.7-7.5-22.1-12.5-.2-1.1-1.1-4.6,1.5-9.2,2.6-4.6,9.4-8.9,11.7-9.3,0,0,8.6-3.4,17,.2,1.5.5,7.2,3.3,8.8,5.8.6.7,4.8,5.1,4.4,10.9"/>
            <path class="cls-2" d="M48.2,23.1c3.1-2,2.7-6,2.5-6.5-2-6.1-8.4-5.8-9.7-5.4-2.8.8-4.1,1.9-4.7,2.6,0,0,0,0,0,0-9.2-3.1-16.5-.2-17.1,0-1.4-1.8-3.6-2.4-5-2.6-5.4-.8-9.7,2.7-9.6,6.9,0,2.9,1.7,4.5,2.7,5.1,0,0,0,0,0,.1-6.2,10.4,3.1,17.7,4.7,18.7,15.7,8.9,30.9,2,35.3-3.2,4.4-5.2,4-10.2,1.1-15.5,0,0,0,0,0-.1h0ZM49.5,31.4c-.5,5.8-8.1,14.4-21.2,14.1-13.2-.2-21.7-7.5-22.1-12.5-.2-1.1-1.1-4.6,1.5-9.2,2.6-4.6,9.4-8.9,11.7-9.3,0,0,8.6-3.4,17,.2,1.5.5,7.2,3.3,8.8,5.8.6.7,4.8,5.1,4.4,10.9h0Z"/>
          </g>
        </g>
      </g>
    </g>
  </g>
</svg>