<?xml version="1.0" encoding="UTF-8"?>
<svg xmlns="http://www.w3.org/2000/svg" version="1.1" viewBox="0 0 350 49.7">
  <defs>
    <style>
      .cls-1 {
        fill: none;
        stroke: #d4533a;
        stroke-miterlimit: 10;
        stroke-width: 2.1px;
      }

      .cls-2 {
        fill: #d4533a;
      }
    </style>
  </defs>
  <!-- Generator: Adobe Illustrator 28.7.1, SVG Export Plug-In . SVG Version: 1.2.0 Build 142)  -->
  <g>
    <g id="_レイヤー_1" data-name="レイヤー_1">
      <g>
        <path class="cls-2" d="M57.4,19.3c.2,0,.8.1,1.8.3,1,.2,1.8.3,2.3.3s.9,0,1.3,0c.4,0,1-.1,1.6-.2.6-.1,1.1-.2,1.5-.3-.1-4-.7-6.4-1.6-7.1-.1,0-.3-.2-.5-.4-.2-.2-.4-.3-.4-.3,0,0-.2-.2-.3-.3-.1-.1-.2-.2-.3-.3,0,0,0-.2-.1-.3,0-.1-.1-.2-.1-.3,0-.1,0-.3,0-.4,0-.9.7-1.3,2-1.3s1.8.6,2.7,1.8c.9,1.2,1.5,2.7,1.6,4.6.4.5,1.1.9,2.2,1.1,1,.2,2,.4,2.8.5.8.1,1.2.4,1.2.8s0,.7-.3,1c-.2.3-.5.5-.9.7-.4.2-.9.4-1.3.5-.4.1-1,.3-1.6.6-.7.2-1.3.4-1.7.6v7.6c3.7-2.1,7.2-3.1,10.4-3.1s5.1.6,7.1,1.7c2,1.1,3,2.7,3,4.8s-.3,2.9-.9,4.2c-.6,1.3-1.3,2.3-2.2,3.1-.9.8-1.9,1.5-3,2.1-1.1.6-2.1,1-3,1.2-.9.2-1.8.4-2.5.4-1.2,0-2.1-.5-2.8-1.5-.7-1-1-2.2-1-3.5s.4-2.9,1.1-4.4c.7-1.4,1.3-2.2,1.8-2.2s.7.2.7.6-.1.6-.4,1.6c-.2.9-.4,1.8-.4,2.5,0,1.9.4,2.8,1.3,2.8,1.6,0,3.2-.7,5-2.1,1.7-1.4,2.6-3,2.6-4.8s-.6-2.6-1.9-3.4c-1.3-.8-2.7-1.2-4.3-1.2s-2.8.2-4.1.7c-1.3.5-3.4,1.6-6.3,3.3,0,1.4,0,3.2.1,5.3,0,2.2.1,3.5.1,3.9s-.2,1.1-.7,1.7c-.5.6-1,.9-1.6.9s-1.2-.5-1.9-1.4c-.7-1-1.4-1.9-2-2.9-.6-.9-1.1-1.4-1.5-1.4s-.6.4-1.3,1.1c-.8.7-1.5,1.1-2.2,1.1-1.3,0-2-.5-2-1.6s.2-1.3.6-1.7c.4-.5,1-.9,1.7-1.2.7-.3,1.8-1,3.2-1.8,1.4-.9,2.9-1.9,4.3-3v-8.1c-2.9,1.1-4.5,1.6-5,1.6-.8,0-1.7-.4-2.7-1.1-1-.7-1.5-1.4-1.5-2.1s.3-1.1.8-1.1ZM65.8,33.2l-2.9,2.4,2.9,2.1v-4.5ZM68.8,17v1.5c.8-.2,1.4-.4,1.8-.7l-1.8-.8ZM88.7,16.2c1.5,0,2.7.5,3.9,1.6,1.1,1,1.7,2.2,1.7,3.5s-.2.8-.6,1.1c-.4.3-.9.5-1.5.5s-1.4-.5-2.1-1.5c-.7-1-1.3-1.5-2-1.5s-1.9,0-2.8.2-1.4.2-1.5.2c-.5,0-.7-.3-.7-1s.6-1.2,1.9-2c1.2-.8,2.5-1.2,3.8-1.2Z"/>
        <path class="cls-2" d="M113.7,21c-.7-.5-1.3-1.2-1.7-2-.4-.8-.7-1.5-.7-2.1s0-.8.3-1.1c.2-.3.4-.5.6-.5s.6.1.8.4c.2.3.6.7,1,1.3.4.6.8,1.1,1.3,1.5.2.2,1.6.9,4.2,2.1.3.2.7.3,1,.4.3.1.7.3,1,.4.4.1.7.3,1,.4v-.6c0-2.2.2-3.3.5-3.3s.8,1,1.4,3c.2.8.6,1.4,1.1,1.9.1,0,.4.3.7.6.4.3.6.5.8.6.1.1.4.3.6.5.3.2.5.5.6.6.1.2.2.4.3.6,0,.2.1.5.1.7,0,.5-.2.9-.6,1.3-.4.4-.9.6-1.4.6s-1.3-.3-1.9-.8c-.6-.5-1.3-1.2-2.1-2-.8-.8-1.5-1.4-2.2-1.8-.7-.4-1.8-.8-3.2-1.3-1.4-.5-2.6-1.1-3.6-1.8ZM131.8,42.6c-2.1.5-4.4.8-7.1.8s-4.5-.5-6.2-1.4c-3.1-1.8-4.7-4.4-4.7-7.9s.4-2.7,1.1-4.4c.7-1.6,1.6-3,2.7-4.2.3-.4.7-.6,1.2-.6s.7.2.7.5-.1.5-.4.8c-.8.8-1.5,2-2.1,3.5-.5,1.4-.8,2.9-.8,4.3s.6,2.3,1.8,3c1.2.7,2.9,1.1,5.1,1.1,3.2,0,5.2-.1,6.1-.3,1.7-.4,2.7-.5,2.9-.5,1.2,0,2.2.3,2.9.8.7.5,1.1,1.1,1.1,1.7s-.5,1-1.4,1.6c-.9.6-1.9,1-2.9,1.3ZM129.9,18.2c-.3,0-1.6.8-3.9,2-.2,0-.4.1-.5.1-.4,0-.6-.1-.6-.4s.2-.4.6-.8c.3-.2.9-.7,1.8-1.3.9-.6,1.7-1.2,2.2-1.7.6-.5.9-1,.9-1.4s0-.3,0-.4c0-.1-.1-.2-.3-.3-.1,0-.2-.2-.3-.3,0,0-.3-.2-.5-.2-.2,0-.4-.1-.5-.1,0,0-.3,0-.6-.1-.3,0-.5,0-.5-.1-.1,0-.4,0-.8,0-.4,0-.7,0-.9-.2-.2-.1-.2-.3-.2-.6s.3-.6,1-.8c.7-.2,1.4-.3,2.1-.3,1.8,0,3.5.5,5.1,1.4,1.7.9,2.5,1.8,2.5,2.5s-.2,1.2-.6,1.6c-.4.4-.9.6-1.6.6-1,0-2.4.3-4.3.9Z"/>
        <path class="cls-2" d="M167.5,34.7c.3,0,.5-.2.8-.6.2-.4.5-.9.7-1.4.2-.5.4-1,.7-1.4.3-.4.6-.6,1-.6s.3,0,.4.3c.1.2.2.4.2.7s0,.3,0,.4c0,.1-.2.3-.3.5-.1.2-.3.4-.3.7-.3.6-.4,1.3-.4,2.1s.1,1.6.3,2.4c.3,1.4.5,2.2.5,2.4s-.2.7-.5,1c-.4.3-.8.5-1.2.5-1.1,0-2.3-.4-3.6-1.1s-2.4-1.7-3.4-3c-1-1.2-1.9-2.8-2.6-4.8s-1-4-1-6.2.1-2.6.3-4.9c.2-2.3.3-4.1.3-5.5s-.2-.6-.5-.9c-.3-.4-.5-.7-.5-.9,0-.8.5-1.1,1.6-1.1s1.5.3,2.1.9c.9.9,1.4,2.2,1.4,3.7s-.2,2.2-.6,4.1c-.4,1.8-.6,3.1-.6,3.7,0,2.9.5,5.4,1.6,7.4.3.4.5.8.8,1s.6.4,1,.6c.4.1,1,.2,1.8.2ZM189.3,21.9c.4.5.7,1.2,1,2.1.3.9.5,1.7.5,2.6s-.3,1.8-.8,2.5c-.5.6-1.1.9-1.7.9-1.2,0-2-.8-2.4-2.4,0-.3,0-.6,0-1.1v-1c0-1-.3-2-.8-2.8-.1-.2-.3-.4-.5-.5-.2-.2-.3-.3-.5-.4-.1,0-.3-.2-.6-.3-.3-.1-.5-.2-.6-.2-.1,0-.4,0-.7-.2-.3,0-.6-.1-.7-.2,0,0,0,0-.2,0-.2,0-.4-.1-.5-.1-.1,0-.2,0-.4-.1-.1,0-.2-.1-.3-.2,0,0,0-.2,0-.3,0-.4.3-.7,1-.9.7-.2,1.4-.3,2.1-.3,1.6,0,2.8.3,3.7.8.2.1.4.3.6.4.2.1.4.2.4.2,0,0,.1.1.3.3.2.2.3.4.5.5.1.2.4.5.7,1Z"/>
        <path class="cls-2" d="M214.3,24.2c.7-.7,1.5-1.3,2.5-1.9.9-.6,1.7-1,2.3-1.4.6-.3,1-.5,1-.6v-3.2c-1.6.4-2.8.5-3.6.5-1.2,0-2.2-.2-2.9-.5-.6-.3-1.2-.7-1.8-1.2,0,0-.1-.1-.2-.2,0,0-.1-.1-.2-.1,0,0-.1,0-.2-.1,0,0-.1-.1-.1-.2,0,0,0-.2,0-.3,0-.1,0-.2,0-.4,0-.3.1-.6.3-.8.2-.2.4-.3.6-.3s.2,0,.4.2c.2.1.5.3.8.4.3.2.6.3.8.4.7.3,1.6.4,2.6.4s1.3,0,1.7-.3c.4-.2,1.1-.5,1.9-1v-2c0-1.8-.1-2.7-.4-2.8-1.1-.2-1.6-.5-1.6-.9,0-.7.7-1,2-1s1.9.2,2.1.7c0,.2.1.6.1,1.1s0,.8,0,1.1c0,.8,0,1.3,0,1.5,0,.5,0,.9,0,1.2,1.5-1.1,2.8-1.7,3.8-1.7s1,.1,1.4.3c.4.2.6.6.6,1.1s0,.7-.1.9c0,.2-.2.4-.4.4-.1,0-.4.2-.7.4-1.2.6-2.7,1.3-4.5,2.1v1.2c0,1,0,1.8,0,2.2,2.1-.5,3.8-.7,5.1-.7,4,0,7.1,1.3,9.3,3.8.8.9,1.4,2.2,2,3.8.6,1.6.9,3.1.9,4.4,0,4-1.3,7.2-3.9,9.5-2.1,1.9-4.5,3.2-7.2,4.1-2.9.9-5.5,1.4-7.7,1.4s-.6,0-.7-.2c-.1-.2-.2-.3-.2-.5,0-.5.7-.9,2.1-1.1,3.9-.8,7.2-2.4,9.9-4.8,2.7-2.4,4-5.1,4-8.2s-.7-5.1-2.1-7c-.6-.8-1.6-1.6-2.9-2.2-1.3-.6-2.7-1-4.1-1s-2.3.1-2.7.3c.3.9.4,1.8.4,2.8,0,1.5-.7,3.9-2,7.2,0,1.3.2,2.6.3,4s.2,2.3.2,2.6-.1.8-.3,1.1c-.2.3-.5.5-.8.5-.5,0-.9-.1-1.2-.4-.3-.3-.5-.6-.6-.9,0-.3-.2-.9-.3-1.7-.4.4-.8.9-1.3,1.4-.5.5-.8.9-1.1,1.2-.3.3-.7.6-1.1.9-1.3,1-2.7,1.5-4,1.5s-.6,0-.9,0c-.3,0-.5-.2-.7-.3-.2-.1-.3-.3-.4-.4,0,0-.2-.3-.4-.5-.2-.2-.3-.4-.4-.4-.4-.5-.7-1.2-1-2.1-.3-.9-.4-1.8-.4-2.5,0-1.6.5-3.4,1.4-5.2.8-1.6,2.4-3.4,4.8-5.7ZM213.4,28.5c-.9,1.3-1.7,2.8-2.2,4.5-.5,1.7-.8,3.1-.8,4.1s.2,1.1.7,1.1c1.1,0,2.3-.6,3.5-1.8,1.8-1.8,2.9-3,3.4-3.6.9-1.2,1.6-2.8,2.1-4.8v-5.5c-1.5.7-2.7,1.6-3.7,2.5-.9.9-1.9,2.1-3,3.6Z"/>
        <path class="cls-2" d="M263.9,6.6c.5,0,1.5.9,2.9,2.7,1.4,1.8,2.1,3,2.1,3.6,0,.9-.1,1.8-.4,2.7s-.4,1.8-.4,2.6c.8,0,1.5.2,2,.6.5.4.9.8,1.1,1.3.2.4.3,1,.5,1.7.7-.3,1.5-.7,2.3-1.3.9-.6,1.8-1,2.7-1.4.9-.3,2.1-.5,3.6-.5,3,0,5.4,1.2,7.1,3.5,1.7,2.3,2.5,5.1,2.5,8.4s-.6,3.9-1.9,5.7c-1.3,1.8-2.8,3.3-4.7,4.4-1.9,1.1-3.8,2-5.7,2.7-2,.7-3.7,1-5.2,1s-.4,0-.4-.3c0-.4.2-.7.6-.8,3.7-1.2,6.9-3,9.5-5.3,2.6-2.3,3.9-4.8,3.9-7.3s-.2-2.8-.6-4.2c-.4-1.4-1.1-2.7-2-3.8-.9-1.1-1.9-1.6-3.1-1.6-1.9,0-3.2.2-4.1.5-.9.4-2.4,1.3-4.4,2.7-.2.7-.8,1.4-1.8,2.2-1,.8-1.6,1.4-1.9,1.7-.2.9-.2,1.9-.2,3.2s.3,3,.8,5c.5,1.9.8,3.2.8,3.7,0,1-.2,1.9-.6,2.9-.4.9-.8,1.4-1.3,1.4s-1.3-.3-1.8-1c-.5-.7-.8-1.5-1-2.4-.3-1.8-.6-3.2-1.1-4.3-.2.4-.5,1-.9,1.8-.4.8-.8,1.5-1.1,2-.3.5-.6.7-.9.7-.6,0-1.1-.3-1.7-.8-.6-.5-.8-1.1-.8-1.7,0-.9.1-1.6.4-2.1.2-.5.7-1.1,1.4-1.8.7-.7,1.2-1.3,1.6-1.8-.9-2.8-1.8-4.4-2.8-4.6-.5-.2-.9-.5-1.1-1.1-.2-.6-.4-1.1-.4-1.6,0-.8,1.1-1.5,3.4-2.1.4-.1.9-.4,1.4-.7s1.1-.8,1.9-1.4c.7-.6,1.3-1.1,1.8-1.4.2-2.1.2-3.8.2-5.1s-.5-2.2-1.5-3.9c-1-1.7-1.5-2.7-1.5-2.8,0-.9.3-1.3,1-1.3ZM265.4,24.3c-.4.3-.8.6-1.2.9-.4.3-.7.5-1,.6-.3.1-.6.3-1.1.6-.5.2-.9.4-1.2.6.3,1.7.9,3.2,1.6,4.6l2.6-3.8c0-.9,0-2.1.3-3.5ZM265.5,32.8l-1,2c.6,1.8,1.1,3.1,1.5,3.8-.3-1.2-.4-3.2-.4-5.9ZM268.3,22.4l-.3.2v1.9c.5-.6.7-1.2.7-1.6s-.1-.5-.4-.5Z"/>
        <path class="cls-2" d="M327.3,18.7c0-4.5-.2-7-.6-7.5-.2-.2-.4-.4-.7-.6-.3-.2-.5-.5-.7-.6-.1-.2-.2-.3-.2-.5,0-.9.5-1.4,1.5-1.4s2.3.3,3,.8c.7.5,1.1,1.9,1.4,4.1,0,.6.7,1.3,2,2.1,1.2.8,2.1,1.3,2.7,1.5.4,0,1.3.2,2.6.4,1.3.2,2.4.4,3,.8.7.3,1,.9,1,1.6,0,1.2-.9,1.8-2.8,1.8s-1.1-.1-3.1-.4c-1.9-.3-3.4-.4-4.5-.4s-1,0-1.4,0c0,4.3-.1,7.3-.3,9-.2,1.5-.6,2.7-1.2,3.7-.6.9-1.4,1.3-2.6,1.3s-1.2-.3-1.8-1-1.3-1.5-2.1-2.6c-.8-1.1-1.4-1.9-1.9-2.3-1-1-1.5-1.7-1.5-1.9s.1-.3.3-.3c.6,0,1.7.5,3.3,1.5,1.6,1,2.8,1.5,3.7,1.5s.4-.2.5-.7c.1-.5.2-1.1.3-1.9,0-.8.1-1.5.1-2.3,0-.7,0-1.4,0-2.1,0-.7,0-1.1,0-1.1-3.3.6-5.2,1-5.8,1.1-1.7.5-3.3,1.1-4.8,1.7,0,5.6.1,9.6.4,11.9.3,2,.7,3.3,1.3,3.9.6.7,1.5,1,2.7,1,2.2,0,4.3-.1,6.5-.4,2.5-.4,4.6-.5,6.4-.5s1.6.2,2.2.5c.6.4.9.9.9,1.6,0,1.8-3.7,2.7-11,2.7s-1.4,0-2,0c-.6,0-1.1,0-1.6-.2-.5,0-.9-.1-1.1-.2-.2,0-.6-.1-1.2-.3-.6-.2-1-.3-1.1-.3-.5-.2-1.3-.7-2.3-1.5s-1.7-1.6-2-2.2c-.7-1.3-1.1-4.1-1.1-8.5s0-4.3.1-6.3c-.8.2-1.9.5-3.2,1-1.3.4-2.2.7-2.8.7-.8,0-1.8-.4-2.9-1.2-1.1-.8-1.7-1.7-1.7-2.8s.4-1.4,1.2-1.4,1.1.1,2.5.4c1.4.3,2.6.4,3.6.4,1.4,0,2.6-.3,3.4-.8,0-2.8-.2-4.8-.7-6.1,0-.3-.5-.7-1.3-1.3-.8-.6-1.2-1.1-1.2-1.5,0-.8.6-1.1,1.7-1.1s2.2.3,3.3,1c1.1.7,1.6,1.5,1.6,2.4s0,1.3-.2,2.6c-.2,1.3-.3,2.4-.3,3.3,3.5-.5,7-1.1,10.5-2ZM330.7,15.2v2.8c1.2-.2,1.9-.4,2.2-.5-.3-.2-.6-.4-.9-.7-.3-.3-.5-.6-.8-.9s-.4-.5-.5-.6Z"/>
      </g>
      <g>
        <path class="cls-1" d="M36.1,25.6s7.9,3.6,12.8-.8c-.9,1.4-5.7,11.2-15.1,9.9,0,1.2-3.5,6.6-8.3,2.5-.5,1.1-2.1,7.1-9.2,2.6-.9,0-7.3,6.4-13.2-3.1-1.5-2.6-.5-9,1.1-10.4-.5-.9-3.7-4.8-.2-10.8,1.3-1.8,4.4-3.8,8-2.5.7-1.3,11.1-8.8,14.7,4.7,1.4-.3,8.7-3.6,9.4,8Z"/>
        <path class="cls-1" d="M16.3,39.7s-2.5-4.1-.3-6.7c2.2-2.6,5.9-2.5,5.9,1.8-.1.7-.4,2.1-2.3,1.7"/>
        <path class="cls-1" d="M4.2,26.2s2.2-2,3.6-2c1.3,0,3.1.2,4.8,3,1.7,2.8-2,5.8-2,5.8,0,0-1.1.8-2.2.2-1.1-.6-1.9-2-1.3-2.9.6-.9,1.4-1.4,2.2-.7"/>
        <path class="cls-1" d="M26.7,17.6s-.3,8-3.8,8.7c-.6.1-4.4,1.8-7.3-1.1-2.9-2.9-.7-7.2-.3-7.6.4-.5,2-1.9,4.5-.9,2.5,1,1.6,3.9,1.6,3.9"/>
        <path class="cls-1" d="M36.1,25.6s-2.1,4.1-4.4,3.6-3.5-2.6-3.1-3.6c.4-1,1.2-3.2,3-2.1.6.5.8.9.6,2"/>
      </g>
    </g>
  </g>
</svg>