<?xml version="1.0" encoding="UTF-8"?>
<svg xmlns="http://www.w3.org/2000/svg" version="1.1" viewBox="0 0 512 512">
  <defs>
    <style>
      .cls-1 {
        fill: #fef1e4;
      }

      .cls-2 {
        fill: #e29385;
      }

      .cls-3 {
        fill: #ea7750;
      }

      .cls-4 {
        fill: none;
        stroke: #312c2b;
        stroke-miterlimit: 10;
      }
    </style>
  </defs>
  <!-- Generator: Adobe Illustrator 28.7.1, SVG Export Plug-In . SVG Version: 1.2.0 Build 142)  -->
  <g>
    <g id="_レイヤー_1">
      <path class="cls-1" d="M323.1,139.6s37.9,50.5,14.4,90.7c-7.8,16.2-23.6,59-51.6,43.7-28-15.3-48.8-41.6-75.1,5.8,2,10.6,20.5,47.8,89.8,15.1-.9,7.6-4.8,39,12.1,66.5-13.4,9.4-156.7,105.7-226.9-64.8-5.5-20.9-23.8-117.3,99-174.8,34.3-16.6,110.6-10.7,138.3,17.8Z"/>
      <path class="cls-3" d="M308.8,285.5l32-18.7s31.9,17.5,31.4,21.6-49.9,76.1-56.7,74-30.3-57-6.6-76.9h0Z"/>
      <path class="cls-2" d="M304.1,140.2s-43.7-19.2-50.7-6.5c3.8,7.8,17,58.5,7.1,80.3-10,21.9-12.5,31.3-12.5,31.3l14.6,5.5s57.1-38.1,41.6-110.6h0Z"/>
      <path class="cls-2" d="M195.7,130.8s-55.4,21.2-45.2,29.4c4.3,3.5,61.9,48.6,68.8,94.8l9.4-4.5s17.3-36.2-32.9-119.7Z"/>
      <path class="cls-2" d="M106,200.3s-20.3,40.6-12,57.7c13.6-6.6,58.3-17.1,113.1,14.1,3.1-6.7,4.9-7.6,4.9-7.6,0,0-65.8-76.3-106-64.2Z"/>
      <path class="cls-2" d="M102.7,311.5s12.2,37.4,25.2,39.7c7.5-7.7,22.7-41,83-58.8l-4.5-9.3s-74.4-2.1-103.7,28.4h0Z"/>
      <path class="cls-2" d="M234,310.1l-12.1-6.5s-51.5,35.9-53.9,76.3c7.3,5,49.9,15.1,48.7,8.6-1.2-6.4-6.3-55.5,17.3-78.4h0Z"/>
      <path class="cls-2" d="M249.8,314l13.4-1.7s21,51,30.6,48.5c9.7-2.5-29,24.4-31.3,22.6s-32.7-52-12.7-69.4h0Z"/>
      <path class="cls-3" d="M425,188s44.8-28.9,21.3,27.4c-23.5,56.4-75.5,70.8-75.5,70.8,0,0-16.7-14.8-24-17.6-7.3-2.8,17.8-88.7,42.8-100.8,7.3-3.5,21.5-17.4,27.7-4.8,6.1,12.7,7.7,24.9,7.7,24.9h0Z"/>
      <g>
        <path class="cls-4" d="M379.2,251.2s68.5-70.4,31.9-93.3c-13.4-.7-21.5,9.9-21.5,9.9"/>
        <path class="cls-4" d="M425,188s48.4-20.8,21.3,27.4c-27.1,48.3-68.1,68.1-68.1,68.1"/>
        <path class="cls-4" d="M384.6,171.3s-37.6,59.5-34,72"/>
        <path class="cls-4" d="M318.6,280.6s2.9-2.6,15-10.4c12.1-7.8,20,3.8,34.8,9.8,14.8,5.9-36.3,74.8-50.2,81.5-27.7-31-13.5-74.1-13.5-74.1,0,0-68.7,45.2-93.8-7.6-1.9-11.4,28.3-46.6,85.4-2.6,14.4,2.7,64.1-61.3,45.5-99.5-18.6-38.1-17.4-43.1-36-50.5"/>
        <path class="cls-4" d="M296.5,124.5s-134.8-61-207.5,92.5"/>
        <path class="cls-4" d="M83.8,237s-17.9,51.7,39.5,121.4c57.4,69.7,136.7,36.7,194.8,3.1"/>
      </g>
    </g>
  </g>
</svg>