<?xml version="1.0" encoding="UTF-8"?>
<svg id="_レイヤー_4" data-name="レイヤー_4" xmlns="http://www.w3.org/2000/svg" viewBox="0 0 694.93 141.2">
  <defs>
    <style>
      .cls-1, .cls-2 {
        fill: #fef1e4;
      }

      .cls-3 {
        fill: none;
        stroke: #312c2b;
      }

      .cls-3, .cls-2 {
        stroke-miterlimit: 10;
      }

      .cls-4 {
        fill: #e29385;
      }

      .cls-5 {
        fill: #ea7750;
      }

      .cls-2 {
        stroke: #231815;
      }
    </style>
  </defs>
  <g>
    <path class="cls-2" d="M173.68,110.02l10.4,17.44c-4.02,2.24-8.28,4.03-12.75,5.37-4.47,1.34-8.72,2.01-12.75,2.01-8.72,0-16.24-1.65-22.56-4.95-6.32-3.3-11.1-7.94-14.34-13.92-3.24-5.98-4.86-12.83-4.86-20.54,0-7.15,1.87-13.75,5.62-19.79,3.74-6.04,8.86-10.82,15.35-14.34,6.48-3.52,13.58-5.28,21.3-5.28,10.51,0,19.15,3.08,25.91,9.22,6.76,6.15,11.15,14.93,13.17,26.33l-53.67,17.11c3.58,4.14,8.44,6.21,14.59,6.21,4.7,0,9.56-1.62,14.59-4.86ZM144.67,79.66c-3.13,3.58-4.7,8.39-4.7,14.42v1.51l32.2-10.9c-2.35-6.93-7.32-10.4-14.93-10.4-5.26,0-9.45,1.79-12.58,5.37Z"/>
    <path class="cls-2" d="M274.06,60.46c5.31,3.08,9.53,7.52,12.66,13.33,3.13,5.81,4.7,12.75,4.7,20.8s-1.73,15.12-5.2,21.22c-3.47,6.09-8.11,10.79-13.92,14.09-5.81,3.3-12.13,4.95-18.95,4.95-9.95,0-18.17-3.13-24.65-9.39v7.38h-23.48V.5h23.31v64.07c3.13-2.57,7.1-4.67,11.91-6.29,4.81-1.62,10.17-2.43,16.1-2.43,6.37,0,12.21,1.54,17.53,4.61ZM257.79,112.36c2.96-1.79,5.34-4.28,7.13-7.46,1.79-3.19,2.68-6.68,2.68-10.48,0-5.81-1.9-10.62-5.7-14.42-3.8-3.8-8.39-5.7-13.75-5.7-4.59,0-8.61,1.06-12.08,3.19-3.47,2.12-5.93,4.98-7.38,8.55v17.95c4.03,7.38,10.51,11.07,19.45,11.07,3.46,0,6.68-.89,9.64-2.68Z"/>
    <path class="cls-2" d="M303.24,25.07c2.63-2.29,5.62-3.44,8.97-3.44s6.15,1.15,8.72,3.44c2.57,2.29,3.86,5.12,3.86,8.47s-1.29,6.15-3.86,8.39c-2.57,2.24-5.48,3.35-8.72,3.35s-6.35-1.12-8.97-3.35c-2.63-2.23-3.94-5.03-3.94-8.39s1.31-6.18,3.94-8.47ZM323.28,59.54v73.29h-23.48V59.54h23.48Z"/>
    <path class="cls-2" d="M387.43,132.49c-4.86,1.56-9.64,2.35-14.34,2.35-12.75,0-22.84-3.44-30.27-10.31-7.44-6.88-11.15-16.35-11.15-28.43,0-7.82,1.82-14.67,5.45-20.54,3.63-5.87,8.41-10.34,14.34-13.42,5.93-3.07,12.3-4.61,19.12-4.61,12.19,0,22.08,3.24,29.69,9.73l-11.4,15.09c-4.81-3.8-10.18-5.7-16.1-5.7-4.92,0-9.09,1.84-12.49,5.53-3.41,3.69-5.12,8.33-5.12,13.92s1.84,10.26,5.53,14c3.69,3.75,8.5,5.62,14.42,5.62,5.14,0,9.39-1.4,12.75-4.19l11.74,14.76c-3.24,2.57-7.3,4.64-12.16,6.21Z"/>
    <path class="cls-2" d="M475.98,62.22c4.64,4.14,7.01,9.39,7.13,15.77v54.84h-23.48v-46.12c-.33-7.15-3.91-10.73-10.73-10.73-5.37,0-9.67,2.52-12.91,7.55-3.24,5.03-4.86,11.52-4.86,19.46v29.85h-23.48V.5h22.98v70.61c2.68-4.7,6.4-8.39,11.15-11.07,4.75-2.68,10.37-4.02,16.86-4.02,6.93,0,12.72,2.07,17.36,6.21Z"/>
    <path class="cls-2" d="M500.64,25.07c2.63-2.29,5.62-3.44,8.97-3.44s6.15,1.15,8.72,3.44c2.57,2.29,3.86,5.12,3.86,8.47s-1.29,6.15-3.86,8.39c-2.57,2.24-5.48,3.35-8.72,3.35s-6.35-1.12-8.97-3.35c-2.63-2.23-3.94-5.03-3.94-8.39s1.31-6.18,3.94-8.47ZM520.68,59.54v73.29h-23.48V59.54h23.48Z"/>
    <path class="cls-2" d="M566.04,65.74c3.52-3.13,7.13-5.56,10.82-7.3,3.69-1.73,6.6-2.6,8.72-2.6l-1.17,23.48c-.67-.11-1.62-.17-2.85-.17-4.7,0-8.83,1.23-12.41,3.69-3.58,2.46-6.32,5.62-8.22,9.48-1.9,3.86-2.85,7.8-2.85,11.82v28.68h-23.31V59.54h21.13l1.84,16.77c2.01-3.91,4.78-7.43,8.3-10.57Z"/>
    <path class="cls-2" d="M596.9,25.07c2.63-2.29,5.62-3.44,8.97-3.44s6.15,1.15,8.72,3.44c2.57,2.29,3.86,5.12,3.86,8.47s-1.29,6.15-3.86,8.39c-2.57,2.24-5.48,3.35-8.72,3.35s-6.35-1.12-8.97-3.35c-2.63-2.23-3.94-5.03-3.94-8.39s1.31-6.18,3.94-8.47ZM616.94,59.54v73.29h-23.48V59.54h23.48Z"/>
    <path class="cls-2" d="M694.43,112.53v20.29h-68.43v-20.29h68.43Z"/>
  </g>
  <g>
    <path class="cls-1" d="M61.21,45.91s17.56,10.49,15.44,25.45c-.36,5.83.15,20.58-10.12,19.41-10.26-1.17-19.74-6.51-21.83,10.94,1.89,2.93,12,11.83,28.79-6.48.65,2.38,3.32,12.29,11.78,18.48-2.87,4.45-34.04,50.89-76.01,8.37-4.21-5.58-21.52-32.27,8.28-64.57,8.24-9.19,31.87-16.77,43.67-11.6Z"/>
    <path class="cls-5" d="M74.8,91.4l7.3-9.54s11.72,1.32,12.06,2.64-5.63,28.94-7.95,29.16-16.07-13.4-11.41-22.26Z"/>
    <path class="cls-4" d="M55.58,48.4s-15.47-.4-16.02,4.26c2.09,1.88,12.27,15.44,11.96,23.23-.31,7.78.07,10.91.07,10.91l5.07-.14s12.46-18.41-1.08-38.26Z"/>
    <path class="cls-4" d="M21.95,58.87s-14.01,13.14-9.98,14.35c1.72.51,24.51,7,32.26,20.02l2.26-2.52s.75-12.96-24.54-31.85Z"/>
    <path class="cls-4" d="M3.53,90.7s-1.12,14.67,3.46,18.79c3.28-3.65,15.38-12.28,35.64-9.62.11-2.39.55-2.88.55-2.88,0,0-29.08-14.82-39.65-6.29Z"/>
    <path class="cls-4" d="M16.18,124.48s8.24,9.74,12.42,8.8c1.3-3.23,1.79-15.1,17.69-27.79l-2.49-2.24s-22.56,8.47-27.62,21.22Z"/>
    <path class="cls-4" d="M55.4,107.95l-4.44-.47s-11.04,17.06-6.81,29.5c2.8.6,16.83-1.6,15.66-3.38s-8.7-15.87-4.41-25.65Z"/>
    <path class="cls-4" d="M60.59,107.19l3.81-2.15s12.54,12.72,15.13,10.8-5.69,10.87-6.62,10.61-16.17-11.58-12.32-19.27Z"/>
    <path class="cls-5" d="M97.72,47.95s9.9-14.16,9.75,5.62c-.15,19.79-13.98,30.49-13.98,30.49,0,0-6.83-2.4-9.35-2.34-2.52.05-5.52-28.79.49-35.48,1.77-1.97,4.31-7.87,7.71-4.82s5.37,6.53,5.37,6.53Z"/>
    <g>
      <path class="cls-3" d="M91.72,72.52s11.92-29.51-1.85-31.89c-4.1,1.43-5.23,5.6-5.23,5.6"/>
      <path class="cls-3" d="M97.72,47.95s11.97-12.18,9.75,5.62c-2.22,17.8-12.1,28.79-12.1,28.79"/>
      <path class="cls-3" d="M83.54,47.88s-3.99,22.45-1.39,25.76"/>
      <path class="cls-3" d="M77.15,88.75s.55-1.13,3.21-4.95c2.66-3.82,6.48-1.3,11.63-1.33s-1.74,26.88-5.08,30.6c-12.13-5.91-13.13-20.56-13.13-20.56,0,0-15.06,21.99-29.07,9.21-1.95-3.2,2.77-17.46,25.31-11.24,4.66-.96,11.71-26.24,1.45-35.4-10.25-9.16-10.49-10.8-16.99-10.73"/>
      <path class="cls-3" d="M51.39,44.64S3.49,42.87.5,97.8"/>
      <path class="cls-3" d="M1.36,104.43s.98,17.71,26.73,31.58c25.75,13.87,45.5-5.75,58.81-22.93"/>
    </g>
  </g>
</svg>