<?xml version="1.0" encoding="UTF-8"?>
<svg xmlns="http://www.w3.org/2000/svg" version="1.1" viewBox="0 0 220 43.8">
  <defs>
    <style>
      .cls-1 {
        fill: #efefef;
      }

      .cls-2 {
        isolation: isolate;
      }

      .cls-3 {
        fill: #fff;
      }
    </style>
  </defs>
  <!-- Generator: Adobe Illustrator 28.6.0, SVG Export Plug-In . SVG Version: 1.2.0 Build 709)  -->
  <g>
    <g id="_レイヤー_1">
      <g class="cls-2">
        <g class="cls-2">
          <path class="cls-1" d="M79.1,18.9s.1,0,.2,0,.2,0,.3,0c.2,0,.5-.2.7-.7l.3-.6c.2-.4.5-1,1-2,.4-.9.6-1.6.6-2s-.2-.7-.6-1.1c-.4-.4-.8-.8-1.2-1.1l-.6-.4c0,0,0-.1,0-.2,0-.6.4-.9,1.3-.9h0s.1,0,.1,0c1.7,0,2.6.2,2.9.5l.8.5h.1c0,.2.2.3.3.4,0,.1.2.2.2.2l.3.5c.7,1,1,1.7,1,2.1,0,.7-.1,1.1-.3,1.3,0,0-.2.1-.5.2-.2,0-.4.2-.5.2-1,1-1.7,2-2.3,3-.6,1-.8,1.7-.8,2.2s0,.2,0,.3c.7.6,1.1,1,1.3,1.2.2.2.4.5.7.8.3.4.4.7.5.9,0,.3,0,.6,0,1,0,.7-.1,1.2-.4,1.6-.2.3-.5.5-.8.5s-.4,0-.6,0-.4-.1-.6-.2h-.2c-.1,0-.3-.3-.4-.6-.1-.3-.3-.7-.4-1.1-.2-.4-.3-.7-.5-.9-.5-.5-.8-.8-.9-.8s-.2,0-.2.2l-1.1,1.7c-.7,1.1-1.6,2.1-2.9,3.2-1.2,1.1-2.3,1.9-3.1,2.5-.8.6-1.3.9-1.5,1l-.8.6c-1.8,1.1-3.7,1.7-5.5,1.7s-.3,0-.4-.2c-.2-.1-.2-.3-.2-.4s0-.2,0-.2c0,0,.2-.1.3-.2s.3-.2.5-.2.4-.2.7-.4c.3-.2.6-.4,1-.6l2.8-1.8c.5-.3,1.4-1,2.8-2.2,1.4-1.2,2.2-1.9,2.5-2.3l1.4-1.8c1.2-1.7,1.9-2.7,1.9-3.1s-.6-.7-1.9-1.4c-1.3-.7-2-1.2-2-1.3,0-.2-.1-.3-.1-.4,0-.2.2-.4.6-.4s1.3.2,2.4.6l1.7.6Z"/>
          <path class="cls-1" d="M105.6,24.9c.1,0,.8.2,2,.5,1.2.3,2.6.5,4.3.5,5,0,8.8-.2,11.6-.7.2,0,.5-.2.9-.5.4-.3.8-.4,1.1-.4.8,0,1.7.3,2.8.9,1.1.6,1.7,1.3,1.7,2s-.2.9-.5,1.2c-.3.4-.7.5-1.1.5s-.9,0-1.7-.3c-.8-.2-1.5-.3-2-.3-2.4-.2-5-.3-7.9-.3s-3.2.2-5.5.5c-2.3.3-3.6.5-4,.5s-.9-.4-1.5-1.3c-.6-.9-.9-1.6-.9-2.2s.2-.6.7-.6ZM109.4,15.9c.4,0,.9.2,1.6.5.7.3,1.2.5,1.6.5,2.9,0,5.2-.2,6.9-.7,1.7-.4,2.9-.7,3.5-.7s1.1.2,1.6.7c.6.5.8,1,.8,1.6,0,.9-.4,1.4-1.3,1.4s-.8,0-2.3-.1c-1.4,0-3.1-.1-5-.1s-2.1.2-3.3.5c-1.2.3-2.1.4-2.5.4s-.9-.4-1.4-1.3c-.6-.8-.9-1.6-.9-2.2s.2-.6.7-.6Z"/>
          <path class="cls-1" d="M169,31s-.4,0-1.2,0c-.8,0-1.8-.1-2.9-.2-1.1,0-2.1,0-3,0-3,0-6.6.5-10.9,1.6h-.2c-.1.2-.3.3-.5.4-.2,0-.4.1-.6.1-.4,0-.7-.1-1.1-.3s-.5-.3-.6-.3c0,0-.2-.1-.4-.2s-.4-.3-.6-.5c-.3-.3-.4-.6-.4-.9,0-.5.2-.7.7-.7s.7,0,1.1.1c.4,0,.7.1,1,.1.5,0,1.8-.1,3.7-.4,1.9-.3,3.5-.4,4.6-.5.6,0,1.1-.1,1.5-.2.4,0,.7-.1.9-.2.2,0,.3-.1.4-.2,0,0,.1-.1.2-.2,0-.1,0-.2.1-.2,0-.1.1-.6.1-1.5v-.5c0-.2,0-.8,0-1.6s0-1.5,0-1.9c0-.7,0-1.2-.2-1.4,0,0-.3-.1-.7-.1-.9,0-1.6,0-2,.2h-.5c-.6.2-1.1.4-1.7.7-.5.3-.9.4-1.1.4-.8,0-1.5-.2-2.2-.5-.7-.3-1-.7-1-1.1s0-.2,0-.3c0-.1.1-.2.3-.3.1-.1.3-.2.5-.2s.5,0,.9.1c.4,0,.8.1,1,.1s.4,0,1-.2c.6-.1,1.3-.3,2.3-.4,1-.2,1.9-.3,2.8-.3.7,0,1.2-.2,1.4-.4.2-.2.4-.3.6-.3s.6,0,1,.2c.4.1.6.3.7.4,0,.2.4.5.8.9.5.4.7.8.7,1.1s-.3.6-.8,1c-.5.4-.8.8-.8,1.1s0,.1,0,.2c0,0,0,.2-.1.3,0,.1-.1.2-.1.3l-.6,1.4c-.4,1-.6,1.7-.6,2.1s0,.2,0,.3c0,0,.2.2.6.3.3,0,.8.1,1.4.1s1.2-.1,1.4-.3.6-.3,1-.3,1.1.1,1.8.4c.7.3,1,.4,1.1.5l.2.4c.2.3.3.6.3.9,0,.8-.5,1.2-1.4,1.2h-.2Z"/>
          <path class="cls-1" d="M185.3,20.1c.2,0,.7.2,1.6.4.8.3,1.3.5,1.5.5.3,0,3.1-.2,8.4-.7,5.3-.5,8.4-.8,9.2-.9.3,0,1.2-.2,2.6-.5,1.4-.3,2.4-.4,2.8-.4s1.5.3,2.5.9c1,.6,1.5,1.2,1.5,1.8s-.2,1.1-.6,1.6c-.4.5-.8.7-1.3.7s-1.1-.1-2.4-.4c-1.3-.3-2.3-.4-2.8-.4-1.2,0-3.3,0-6.3.2-3.3.2-5.2.3-5.8.5-.1,0-.6.1-1.3.3s-1.5.4-2.2.5c-.7.2-1.4.3-1.9.4-.8.1-1.3.2-1.4.2-.7,0-1.7-.4-3.2-1.3-1.4-.9-2.1-1.6-2.1-2,0-.9.4-1.3,1.2-1.3Z"/>
        </g>
      </g>
      <g>
        <rect class="cls-3" y="2.4" width="21.3" height="4.2"/>
        <rect class="cls-3" x="8.3" y=".4" width="5" height="11.3"/>
        <rect class="cls-3" y="8" width="21.3" height="4"/>
        <rect class="cls-3" x=".3" y="13.1" width="4.3" height="11.7"/>
        <rect class="cls-3" x="16.5" y="13.1" width="4.8" height="11.7"/>
        <rect class="cls-3" x=".3" y="13.1" width="18" height="4"/>
        <rect class="cls-3" x=".3" y="20.9" width="17" height="4"/>
        <rect class="cls-3" x=".3" y="26.3" width="43.9" height="4.1"/>
        <rect class="cls-3" x="8.3" y="24.9" width="4.6" height="10.2"/>
        <rect class="cls-3" y="31.5" width="4.5" height="11.9"/>
        <rect class="cls-3" x="16.5" y="31.5" width="4.2" height="11.9"/>
        <rect class="cls-3" y="31.5" width="20.7" height="4"/>
        <rect class="cls-3" x=".3" y="39.8" width="20.5" height="4"/>
        <rect class="cls-3" x="23.2" y="2.4" width="21.3" height="4.2"/>
        <rect class="cls-3" x="31.5" y=".4" width="5" height="11.3"/>
        <rect class="cls-3" x="23.2" y="8" width="21.3" height="4"/>
        <rect class="cls-3" x="23.5" y="13.1" width="4.3" height="11.7"/>
        <rect class="cls-3" x="39.7" y="13.1" width="4.8" height="11.7"/>
        <rect class="cls-3" x="23.5" y="13.1" width="18" height="4"/>
        <rect class="cls-3" x="23.5" y="20.9" width="17" height="4"/>
        <rect class="cls-3" x="31.5" y="24.9" width="4.6" height="10.2"/>
        <rect class="cls-3" x="23.2" y="31.5" width="4.5" height="11.9"/>
        <rect class="cls-3" x="39.7" y="31.5" width="4.2" height="11.9"/>
        <rect class="cls-3" x="23.2" y="31.5" width="20.7" height="4"/>
        <rect class="cls-3" x="23.5" y="39.8" width="20.5" height="4"/>
      </g>
    </g>
  </g>
</svg>