<?xml version="1.0" encoding="UTF-8"?>
<svg xmlns="http://www.w3.org/2000/svg" version="1.1" viewBox="0 0 375.3 369">
  <defs>
    <style>
      .cls-1 {
        fill: none;
        stroke: #f0f0f0;
        stroke-width: 2.8px;
      }

      .cls-1, .cls-2, .cls-3 {
        stroke-miterlimit: 10;
      }

      .cls-2 {
        fill: #d4533a;
      }

      .cls-2, .cls-3 {
        stroke: #231815;
        stroke-width: .7px;
      }

      .cls-3 {
        fill: #f0f0f0;
      }
    </style>
  </defs>
  <!-- Generator: Adobe Illustrator 28.6.0, SVG Export Plug-In . SVG Version: 1.2.0 Build 709)  -->
  <g>
    <g id="_レイヤー_1">
      <g>
        <path class="cls-3" d="M.4,151.4h362.4s6.5,140.7-131.8,189.6v21.4s-1.4,4.2-7.4,5.7-84.5,0-84.5,0c0,0-6.9-2.6-6.9-8.2v-19.4S10,310.6.4,151.4Z"/>
        <g>
          <polygon class="cls-2" points="57.8 169.9 57.8 173.2 57.8 175.3 57.8 185.7 62.4 185.7 63.2 185.7 78 185.7 78 180.6 63.2 180.6 63.2 175.3 81.5 175.3 81.5 190.2 52.9 190.2 52.9 174.5 52.9 169.4 13.6 169.4 13.6 174.2 13.6 174.5 13.6 194.7 14.6 194.7 18.9 194.7 37.9 194.7 38.5 194.7 43 194.7 43 184.3 43 183.8 43 178.6 22.3 178.6 22.3 184.3 37.9 184.3 37.9 189.3 18.9 189.3 18.9 174.5 47.5 174.5 47.5 195.5 49.5 195.5 52.9 195.5 81.5 195.5 82.1 195.5 87.4 195.5 87.4 175.3 87.4 169.9 57.8 169.9"/>
          <polygon class="cls-2" points="145.4 169.9 145.4 173.2 145.4 175.3 145.4 185.7 150 185.7 150.8 185.7 165.6 185.7 165.6 180.6 150.8 180.6 150.8 175.3 169 175.3 169 190.2 140.4 190.2 140.4 174.5 140.4 169.4 101.2 169.4 101.2 174.2 101.2 174.5 101.2 194.7 102.1 194.7 106.4 194.7 125.4 194.7 126 194.7 130.6 194.7 130.6 184.3 130.6 183.8 130.6 178.6 109.9 178.6 109.9 184.3 125.4 184.3 125.4 189.3 106.4 189.3 106.4 174.5 135 174.5 135 195.5 137.1 195.5 140.4 195.5 169 195.5 169.7 195.5 174.9 195.5 174.9 175.3 174.9 169.9 145.4 169.9"/>
          <polygon class="cls-2" points="233.4 169.9 233.4 173.2 233.4 175.3 233.4 185.7 238.1 185.7 238.8 185.7 253.6 185.7 253.6 180.6 238.8 180.6 238.8 175.3 257.1 175.3 257.1 190.2 228.5 190.2 228.5 174.5 228.5 169.4 189.2 169.4 189.2 174.2 189.2 174.5 189.2 194.7 190.2 194.7 194.5 194.7 213.5 194.7 214.1 194.7 218.6 194.7 218.6 184.3 218.6 183.8 218.6 178.6 197.9 178.6 197.9 184.3 213.5 184.3 213.5 189.3 194.5 189.3 194.5 174.5 223.1 174.5 223.1 195.5 225.1 195.5 228.5 195.5 257.1 195.5 257.7 195.5 263 195.5 263 175.3 263 169.9 233.4 169.9"/>
          <polygon class="cls-2" points="320.6 169.9 320.6 173.2 320.6 175.3 320.6 185.7 325.2 185.7 326 185.7 340.8 185.7 340.8 180.6 326 180.6 326 175.3 344.3 175.3 344.3 190.2 315.6 190.2 315.6 174.5 315.6 169.4 276.4 169.4 276.4 174.2 276.4 174.5 276.4 194.7 277.3 194.7 281.6 194.7 300.7 194.7 301.2 194.7 305.8 194.7 305.8 184.3 305.8 183.8 305.8 178.6 285.1 178.6 285.1 184.3 300.7 184.3 300.7 189.3 281.6 189.3 281.6 174.5 310.2 174.5 310.2 195.5 312.3 195.5 315.6 195.5 344.3 195.5 344.9 195.5 350.1 195.5 350.1 175.3 350.1 169.9 320.6 169.9"/>
        </g>
      </g>
      <path class="cls-1" d="M36.1,76.1s-8.9-10.3-15.1-4.1c-4.4,4.4-2,6.9-.3,7.9.4.2.4.9-.1,1-3.1,1-10.1,4-5.3,8.8.3.3.4.8.2,1.1-1,2.1-3.7,8.8,1.1,8.6,3.1,0,4.7-.5,5.5-.9.4-.2.8,0,1,.4.3,1.2,1.5,2.7,5.3,1"/>
      <path class="cls-1" d="M40.1,82.2s6.7.9,6.4,5.9c-.3,3.7-2.6,4.5-3.8,4.8-.4,0-.6.4-.4.8.9,2,2.7,7.5-3.5,6.7"/>
      <path class="cls-1" d="M324.7,14.1c2.3-5.1,9.5-18.1,16.2-6.9.6.9,1.8,1.2,2.7.6,4.4-2.9,14.4-10.5,19.9-3.6,3.6,4.5,2.5,7.6.8,9.4-.9,1-.4,2.7,1,3.1,4.2,1.2,9.9,4.2,8.3,11.4-2,8.5-11.9,9.1-16.2,8.9-1.1,0-2,.8-2,1.9,0,3.6-.9,10.8-6.5,11-4.9.2-7.9-1.1-9.4-2-.7-.4-1.6-.4-2.2,0-2.9,2.3-11,7.5-16.6,0-3.8-5-3.5-8.5-2.4-10.7.6-1.2-.1-2.6-1.4-2.8-4-.6-9.3-2.9-7.1-11.9,2.6-10.3,9.2-8.8,12.3-7.4,1,.4,2.1,0,2.5-.9h0Z"/>
      <text/>
    </g>
  </g>
</svg>