<?xml version="1.0" encoding="UTF-8"?>
<svg id="_レイヤー_1" data-name="レイヤー 1" xmlns="http://www.w3.org/2000/svg" xmlns:xlink="http://www.w3.org/1999/xlink" viewBox="0 0 1366.28 771.5">
  <defs>
    <style>
      .cls-1 {
        clip-path: url(#clippath);
      }

      .cls-2, .cls-3, .cls-4, .cls-5 {
        fill: none;
      }

      .cls-2, .cls-6, .cls-7, .cls-8, .cls-9, .cls-10 {
        stroke-width: 0px;
      }

      .cls-3 {
        stroke: #231815;
      }

      .cls-3, .cls-11, .cls-12, .cls-4, .cls-5 {
        stroke-miterlimit: 10;
      }

      .cls-13 {
        clip-path: url(#clippath-1);
      }

      .cls-6, .cls-11 {
        fill: #fef1e4;
      }

      .cls-7, .cls-12 {
        fill: #f0f0f0;
      }

      .cls-14 {
        opacity: .45;
      }

      .cls-11 {
        stroke: #0f0700;
        stroke-width: .71px;
      }

      .cls-12 {
        stroke: #000;
        stroke-width: .28px;
      }

      .cls-4 {
        stroke: #f0f0f0;
        stroke-width: 8.5px;
      }

      .cls-8 {
        fill: #e29285;
      }

      .cls-9 {
        fill: #ea7750;
      }

      .cls-10 {
        fill: #df543a;
      }

      .cls-5 {
        stroke: #312c2b;
      }
    </style>
    <clipPath id="clippath">
      <rect class="cls-2" x="487.24" y="159.22" width="858.9" height="612.28"/>
    </clipPath>
    <clipPath id="clippath-1">
      <rect class="cls-2" x="487.24" y="159.22" width="858.9" height="612.28"/>
    </clipPath>
  </defs>
  <rect class="cls-10" x=".14" y=".14" width="1366" height="768"/>
  <g>
    <rect class="cls-7" x="1346.14" y="736.97" width="20" height="11.17"/>
    <rect class="cls-7" x=".14" y="736.97" width="20" height="11.17"/>
    <g>
      <rect class="cls-7" x="146.2" y="736.97" width="1067.6" height="11.17"/>
      <g>
        <path class="cls-7" d="M61.88,706.4v33.24H28.65v-33.24h33.24M70.39,697.89H20.14v50.24h50.24v-50.24h0Z"/>
        <path class="cls-7" d="M104.28,665v33.24h-33.24v-33.24h33.24M112.78,656.5h-50.24v50.24h50.24v-50.24h0Z"/>
        <path class="cls-7" d="M104.28,622.88v33.24h-33.24v-33.24h33.24M112.78,614.38h-50.24v50.24h50.24v-50.24h0Z"/>
        <path class="cls-7" d="M145.78,665v33.24h-33.24v-33.24h33.24M154.28,656.5h-50.24v50.24h50.24v-50.24h0Z"/>
        <polyline class="cls-4" points="150.05 748.14 150.05 725.08 150.05 702.01 128.89 702.01 107.73 702.01 107.73 725.08 107.73 748.14"/>
      </g>
      <g>
        <path class="cls-7" d="M1337.64,706.39v33.24h-33.24v-33.24h33.24M1346.14,697.89h-50.24v50.24h50.24v-50.24h0Z"/>
        <path class="cls-7" d="M1295.24,665v33.24h-33.24v-33.24h33.24M1303.75,656.5h-50.24v50.24h50.24v-50.24h0Z"/>
        <path class="cls-7" d="M1295.24,622.88v33.24h-33.24v-33.24h33.24M1303.75,614.38h-50.24v50.24h50.24v-50.24h0Z"/>
        <path class="cls-7" d="M1253.74,665v33.24h-33.24v-33.24h33.24M1262.25,656.5h-50.24v50.24h50.24v-50.24h0Z"/>
        <polyline class="cls-4" points="1216.23 748.14 1216.23 725.07 1216.23 702.01 1237.39 702.01 1258.56 702.01 1258.56 725.07 1258.56 748.14"/>
      </g>
    </g>
  </g>
  <g>
    <path class="cls-11" d="M317.61,424.35c-15.66,24.29,1.81,41.62,19.88,32.49,13.61-6.88,12.77-7.31,26.1-20.07,11.06-10.58,11.1-23.9-3.55-28.97s-34.41,4.11-42.43,16.55Z"/>
    <path class="cls-11" d="M469.42,424.35c15.66,24.29-1.81,41.62-19.88,32.49-13.61-6.88-12.77-7.31-26.1-20.07-11.06-10.58-11.1-23.9,3.55-28.97s34.41,4.11,42.43,16.55Z"/>
    <path class="cls-11" d="M418.53,473.22c-1.81-.93-2.54-.46-3.96.13-1.41.59-13.05,1.43-17.65-5.42,2.43.14,3.56-.24,7.23-5.45,3.83-5.45-2.32-8.66-10.75-8.63-9.21.03-14.87,2.95-10.75,8.63,3.33,4.59,5.11,5.35,7.71,5.39-.46.49-9.04,9.5-19.7,4.9-1.32-.43-1.66-.31-2.44.37s-.49,2.82,3.87,3.41c4.36.59,14.49,1.26,20.9-6.64h.78s3.33,4.88,8.91,6.22c5.58,1.35,12.58.38,13.56-.08.98-.46,3.33-.88,2.3-2.82Z"/>
    <path class="cls-11" d="M498.8,411.94c15.92-10.17,14.13-30.78,12.92-33.65-10.39-31.52-43.34-29.71-50.16-27.89-14.64,4.16-21.15,9.95-23.96,13.63-.16-.08-.26-.12-.26-.12-47.42-16.14-85.19-1.29-88.13-.08-7.16-9-18.57-12.44-25.62-13.64-27.59-4.11-49.99,14.09-49.67,35.29.23,14.9,8.87,22.9,13.99,26.35-.18.19-.35.38-.53.57-32.18,53.41,16.09,91.36,24.29,96.51,81.08,45.82,159.06,10.52,181.78-16.47,22.72-27,20.55-52.46,5.73-79.8-.13-.23-.26-.46-.39-.69ZM505.88,454.84c-2.3,29.84-41.61,73.95-109.5,72.81-67.89-1.13-111.82-38.72-114.02-64.56-1.11-5.46-5.67-23.65,7.81-47.39,13.48-23.74,48.35-45.66,60.15-48.08,0,0,44.31-17.63,87.59.88,7.7,2.73,36.97,16.79,45.29,30.1,3.16,3.45,24.97,26.39,22.67,56.22Z"/>
  </g>
  <rect class="cls-12" x=".14" y="8.07" width="1366" height="22.4"/>
  <polygon class="cls-12" points="1273.46 2.69 1273.46 35.7 1119.95 35.7 1119.95 2.69 1086.41 2.69 1086.41 35.7 909.83 35.7 909.83 2.69 876.29 2.69 876.29 35.7 699.34 35.7 699.34 .14 665.8 .14 665.8 35.7 490.96 35.7 490.96 .14 457.41 .14 457.41 35.7 280.34 35.7 280.34 .14 246.8 .14 246.8 35.7 94.14 35.7 94.14 .14 60.6 .14 60.6 35.7 60.6 213.07 255.82 213.07 255.82 66.16 272.93 66.16 272.93 213.07 468.15 213.07 468.15 66.16 479.13 66.16 479.13 213.07 674.35 213.07 674.35 66.16 687.04 66.16 687.04 213.07 882.26 213.07 882.26 68.7 896.99 68.7 896.99 213.07 1092.21 213.07 1092.21 68.7 1111.78 68.7 1111.78 213.07 1307 213.07 1307 68.7 1307 35.7 1307 2.69 1273.46 2.69"/>
  <g>
    <path class="cls-11" d="M171.75,397.71l9.29-6.48s12.15,26.84,32.81,46.89l-9.29,6.48s-8.87-23.38-32.81-46.89Z"/>
    <path class="cls-11" d="M206.95,448.01l9.29-6.48s12.15,26.84,32.81,46.89c-4.65,3.24-9.29,6.48-9.29,6.48,0,0-8.87-23.38-32.81-46.89Z"/>
    <path class="cls-11" d="M242.14,498.31l9.29-6.48s12.15,26.84,32.81,46.89c-4.65,3.24-9.29,6.48-9.29,6.48,0,0-8.87-23.38-32.81-46.89Z"/>
    <path class="cls-11" d="M170.2,432.3l9.29-6.48s12.15,26.84,32.81,46.89l-9.29,6.48s-8.87-23.38-32.81-46.89Z"/>
    <path class="cls-11" d="M204.76,481.69l9.29-6.48s12.15,26.84,32.81,46.89c-4.65,3.24-9.29,6.48-9.29,6.48,0,0-8.87-23.38-32.81-46.89Z"/>
    <path class="cls-11" d="M239.32,531.08l9.29-6.48s12.15,26.84,32.81,46.89c-4.65,3.24-9.29,6.48-9.29,6.48,0,0-8.87-23.38-32.81-46.89Z"/>
    <path class="cls-11" d="M211.37,403.6s-5.36,9.19,7.56,26.84c1.49-3.62,1.87-16.23-7.56-26.84Z"/>
    <path class="cls-11" d="M230.45,403.13s-9.48,4.85-8.18,26.68c3.22-2.24,10.37-12.66,8.18-26.68Z"/>
    <path class="cls-11" d="M245.18,411.23s-10.65-.29-20.02,19.49c3.9-.43,15.18-6.14,20.02-19.49Z"/>
    <path class="cls-11" d="M222.55,522.68s-1.98-10.44-23.34-15.31c1.25,3.71,9.24,13.47,23.34,15.31Z"/>
    <path class="cls-11" d="M221.12,531.42s-9.22-4.86-26.53,8.58c3.62,1.31,16.16,1.13,26.53-8.58Z"/>
    <path class="cls-11" d="M219.82,525.08s-7.38-7.35-27.88.42c3.07,2.31,15.1,5.83,27.88-.42Z"/>
  </g>
  <g class="cls-14">
    <path class="cls-7" d="M1202.55,606.01h-117.04c-23.94-15.1,0-34.18,0-34.18h73.21c8.9,0,16.11-8.05,16.11-17.99v-.28c0-9.94-7.21-17.99-16.11-17.99h-266.19c-8.9,0-16.11,8.05-16.11,17.99v.28c0,9.94,7.21,17.99,16.11,17.99h90.64s29.29,15.96,0,34.18h-152.69c-8.9,0-16.11,8.05-16.11,17.99v.28c0,9.94,7.21,17.99,16.11,17.99h51.67s20.06,14.68,0,30.65h-39.14c-8.9,0-16.11,8.05-16.11,17.99v.28c0,9.94,7.21,17.99,16.11,17.99h172.16c8.9,0,16.11-8.05,16.11-17.99v-.28c0-9.94-7.21-17.99-16.11-17.99h-70.06c-15.47-17.98,0-30.65,0-30.65h257.45c8.9,0,16.11-8.05,16.11-17.99v-.28c0-9.94-7.21-17.99-16.11-17.99Z"/>
    <path class="cls-7" d="M1136.29,672.92h-54.25c-8.9,0-16.11,8.05-16.11,17.99v.28c0,9.94,7.21,17.99,16.11,17.99h54.25c8.9,0,16.11-8.05,16.11-17.99v-.28c0-9.94-7.21-17.99-16.11-17.99Z"/>
  </g>
  <g class="cls-14">
    <path class="cls-7" d="M388.33,276.76h-117.04c-23.94-9.92,0-22.45,0-22.45h73.21c8.9,0,16.11-5.29,16.11-11.81v-.19c0-6.52-7.21-11.81-16.11-11.81H78.3c-8.9,0-16.11,5.29-16.11,11.81v.19c0,6.52,7.21,11.81,16.11,11.81h90.64s29.29,10.48,0,22.45H16.25c-8.9,0-16.11,5.29-16.11,11.81v.19c0,6.52,7.21,11.81,16.11,11.81h51.67s20.06,9.64,0,20.13H28.78c-8.9,0-16.11,5.29-16.11,11.81v.19c0,6.52,7.21,11.81,16.11,11.81h172.16c8.9,0,16.11-5.29,16.11-11.81v-.19c0-6.52-7.21-11.81-16.11-11.81h-70.06c-15.47-11.81,0-20.13,0-20.13h257.45c8.9,0,16.11-5.29,16.11-11.81v-.19c0-6.52-7.21-11.81-16.11-11.81Z"/>
    <path class="cls-7" d="M135.28,320.7h-54.25c-8.9,0-16.11,5.29-16.11,11.81v.19c0,6.52,7.21,11.81,16.11,11.81h54.25c8.9,0,16.11-5.29,16.11-11.81v-.19c0-6.52-7.21-11.81-16.11-11.81Z"/>
  </g>
  <g class="cls-1">
    <g class="cls-13">
      <path class="cls-6" d="M709.85,480.33l10.4,17.44c-4.02,2.24-8.28,4.02-12.75,5.37-4.47,1.34-8.72,2.01-12.75,2.01-8.72,0-16.24-1.65-22.56-4.95-6.32-3.3-11.1-7.94-14.34-13.92-3.24-5.98-4.86-12.83-4.86-20.54,0-7.15,1.87-13.75,5.62-19.79,3.74-6.04,8.86-10.82,15.35-14.34,6.48-3.52,13.58-5.28,21.3-5.28,10.51,0,19.15,3.08,25.91,9.22,6.76,6.15,11.15,14.93,13.17,26.33l-53.67,17.11c3.58,4.14,8.44,6.2,14.59,6.2,4.7,0,9.56-1.62,14.59-4.86M680.84,449.98c-3.13,3.58-4.7,8.39-4.7,14.42v1.51l32.2-10.9c-2.35-6.93-7.32-10.4-14.93-10.4-5.26,0-9.45,1.79-12.58,5.37"/>
      <path class="cls-3" d="M709.85,480.33l10.4,17.44c-4.02,2.24-8.28,4.02-12.75,5.37-4.47,1.34-8.72,2.01-12.75,2.01-8.72,0-16.24-1.65-22.56-4.95-6.32-3.3-11.1-7.94-14.34-13.92-3.24-5.98-4.86-12.83-4.86-20.54,0-7.15,1.87-13.75,5.62-19.79,3.74-6.04,8.86-10.82,15.35-14.34,6.48-3.52,13.58-5.28,21.3-5.28,10.51,0,19.15,3.08,25.91,9.22,6.76,6.15,11.15,14.93,13.17,26.33l-53.67,17.11c3.58,4.14,8.44,6.2,14.59,6.2,4.7,0,9.56-1.62,14.59-4.86ZM680.84,449.98c-3.13,3.58-4.7,8.39-4.7,14.42v1.51l32.2-10.9c-2.35-6.93-7.32-10.4-14.93-10.4-5.26,0-9.45,1.79-12.58,5.37Z"/>
      <path class="cls-6" d="M810.23,430.77c5.31,3.08,9.53,7.52,12.66,13.33,3.13,5.82,4.7,12.75,4.7,20.8s-1.73,15.12-5.2,21.21c-3.47,6.1-8.11,10.79-13.92,14.09-5.82,3.3-12.13,4.95-18.95,4.95-9.95,0-18.17-3.13-24.65-9.39v7.38h-23.48v-132.33h23.31v64.07c3.13-2.57,7.1-4.67,11.91-6.29,4.81-1.62,10.17-2.43,16.1-2.43,6.37,0,12.21,1.54,17.53,4.61M793.96,482.68c2.96-1.79,5.34-4.28,7.13-7.46,1.79-3.19,2.68-6.68,2.68-10.48,0-5.81-1.9-10.62-5.7-14.42-3.8-3.8-8.39-5.7-13.75-5.7-4.58,0-8.61,1.06-12.07,3.19-3.47,2.12-5.93,4.98-7.38,8.55v17.95c4.02,7.38,10.51,11.07,19.45,11.07,3.47,0,6.68-.89,9.64-2.68"/>
      <path class="cls-3" d="M810.23,430.77c5.31,3.08,9.53,7.52,12.66,13.33,3.13,5.82,4.7,12.75,4.7,20.8s-1.73,15.12-5.2,21.21c-3.47,6.1-8.11,10.79-13.92,14.09-5.82,3.3-12.13,4.95-18.95,4.95-9.95,0-18.17-3.13-24.65-9.39v7.38h-23.48v-132.33h23.31v64.07c3.13-2.57,7.1-4.67,11.91-6.29,4.81-1.62,10.17-2.43,16.1-2.43,6.37,0,12.21,1.54,17.53,4.61ZM793.96,482.68c2.96-1.79,5.34-4.28,7.13-7.46,1.79-3.19,2.68-6.68,2.68-10.48,0-5.81-1.9-10.62-5.7-14.42-3.8-3.8-8.39-5.7-13.75-5.7-4.58,0-8.61,1.06-12.07,3.19-3.47,2.12-5.93,4.98-7.38,8.55v17.95c4.02,7.38,10.51,11.07,19.45,11.07,3.47,0,6.68-.89,9.64-2.68Z"/>
      <path class="cls-6" d="M839.41,395.39c2.63-2.29,5.62-3.44,8.97-3.44s6.15,1.15,8.72,3.44c2.57,2.29,3.86,5.11,3.86,8.47s-1.29,6.15-3.86,8.39c-2.57,2.24-5.48,3.35-8.72,3.35s-6.35-1.12-8.97-3.35c-2.63-2.24-3.94-5.03-3.94-8.39s1.31-6.18,3.94-8.47M859.45,503.14h-23.48v-73.29h23.48v73.29Z"/>
      <path class="cls-3" d="M839.41,395.39c2.63-2.29,5.62-3.44,8.97-3.44s6.15,1.15,8.72,3.44c2.57,2.29,3.86,5.11,3.86,8.47s-1.29,6.15-3.86,8.39c-2.57,2.24-5.48,3.35-8.72,3.35s-6.35-1.12-8.97-3.35c-2.63-2.24-3.94-5.03-3.94-8.39s1.31-6.18,3.94-8.47ZM859.45,503.14h-23.48v-73.29h23.48v73.29Z"/>
      <path class="cls-6" d="M923.6,502.81c-4.86,1.56-9.64,2.35-14.34,2.35-12.75,0-22.84-3.44-30.27-10.32-7.44-6.88-11.15-16.35-11.15-28.43,0-7.82,1.82-14.67,5.45-20.54,3.63-5.87,8.41-10.34,14.34-13.42,5.93-3.07,12.3-4.61,19.12-4.61,12.18,0,22.08,3.24,29.68,9.73l-11.4,15.09c-4.81-3.8-10.18-5.7-16.1-5.7-4.92,0-9.09,1.85-12.5,5.54-3.41,3.69-5.11,8.33-5.11,13.92s1.85,10.26,5.54,14c3.69,3.75,8.49,5.62,14.42,5.62,5.14,0,9.39-1.4,12.75-4.19l11.74,14.76c-3.24,2.57-7.3,4.64-12.16,6.21"/>
      <path class="cls-3" d="M923.6,502.81c-4.86,1.56-9.64,2.35-14.34,2.35-12.75,0-22.84-3.44-30.27-10.32-7.44-6.88-11.15-16.35-11.15-28.43,0-7.82,1.82-14.67,5.45-20.54,3.63-5.87,8.41-10.34,14.34-13.42,5.93-3.07,12.3-4.61,19.12-4.61,12.18,0,22.08,3.24,29.68,9.73l-11.4,15.09c-4.81-3.8-10.18-5.7-16.1-5.7-4.92,0-9.09,1.85-12.5,5.54-3.41,3.69-5.11,8.33-5.11,13.92s1.85,10.26,5.54,14c3.69,3.75,8.49,5.62,14.42,5.62,5.14,0,9.39-1.4,12.75-4.19l11.74,14.76c-3.24,2.57-7.3,4.64-12.16,6.21Z"/>
      <path class="cls-6" d="M1012.15,432.53c4.64,4.14,7.01,9.39,7.13,15.77v54.84h-23.48v-46.12c-.33-7.15-3.91-10.73-10.73-10.73-5.37,0-9.67,2.52-12.91,7.55-3.24,5.03-4.86,11.52-4.86,19.46v29.85h-23.48v-132.32h22.98v70.61c2.68-4.7,6.4-8.39,11.15-11.07,4.75-2.68,10.37-4.02,16.86-4.02,6.93,0,12.72,2.07,17.36,6.2"/>
      <path class="cls-3" d="M1012.15,432.53c4.64,4.14,7.01,9.39,7.13,15.77v54.84h-23.48v-46.12c-.33-7.15-3.91-10.73-10.73-10.73-5.37,0-9.67,2.52-12.91,7.55-3.24,5.03-4.86,11.52-4.86,19.46v29.85h-23.48v-132.32h22.98v70.61c2.68-4.7,6.4-8.39,11.15-11.07,4.75-2.68,10.37-4.02,16.86-4.02,6.93,0,12.72,2.07,17.36,6.2Z"/>
      <path class="cls-6" d="M1036.8,395.39c2.63-2.29,5.62-3.44,8.97-3.44s6.15,1.15,8.72,3.44c2.57,2.29,3.86,5.11,3.86,8.47s-1.29,6.15-3.86,8.39c-2.57,2.24-5.48,3.35-8.72,3.35s-6.35-1.12-8.97-3.35c-2.63-2.24-3.94-5.03-3.94-8.39s1.31-6.18,3.94-8.47M1056.85,503.14h-23.48v-73.29h23.48v73.29Z"/>
      <path class="cls-3" d="M1036.8,395.39c2.63-2.29,5.62-3.44,8.97-3.44s6.15,1.15,8.72,3.44c2.57,2.29,3.86,5.11,3.86,8.47s-1.29,6.15-3.86,8.39c-2.57,2.24-5.48,3.35-8.72,3.35s-6.35-1.12-8.97-3.35c-2.63-2.24-3.94-5.03-3.94-8.39s1.31-6.18,3.94-8.47ZM1056.85,503.14h-23.48v-73.29h23.48v73.29Z"/>
      <path class="cls-6" d="M1102.21,436.06c3.52-3.13,7.13-5.56,10.82-7.3,3.69-1.73,6.6-2.6,8.72-2.6l-1.17,23.48c-.67-.11-1.62-.17-2.85-.17-4.7,0-8.83,1.23-12.41,3.69-3.58,2.46-6.32,5.62-8.22,9.48-1.9,3.86-2.85,7.8-2.85,11.82v28.68h-23.31v-73.29h21.13l1.84,16.77c2.01-3.91,4.78-7.43,8.3-10.57"/>
      <path class="cls-3" d="M1102.21,436.06c3.52-3.13,7.13-5.56,10.82-7.3,3.69-1.73,6.6-2.6,8.72-2.6l-1.17,23.48c-.67-.11-1.62-.17-2.85-.17-4.7,0-8.83,1.23-12.41,3.69-3.58,2.46-6.32,5.62-8.22,9.48-1.9,3.86-2.85,7.8-2.85,11.82v28.68h-23.31v-73.29h21.13l1.84,16.77c2.01-3.91,4.78-7.43,8.3-10.57Z"/>
      <path class="cls-6" d="M1133.07,395.39c2.63-2.29,5.62-3.44,8.97-3.44s6.15,1.15,8.72,3.44c2.57,2.29,3.86,5.11,3.86,8.47s-1.29,6.15-3.86,8.39c-2.57,2.24-5.48,3.35-8.72,3.35s-6.35-1.12-8.97-3.35c-2.63-2.24-3.94-5.03-3.94-8.39s1.31-6.18,3.94-8.47M1153.11,503.14h-23.48v-73.29h23.48v73.29Z"/>
      <path class="cls-3" d="M1133.07,395.39c2.63-2.29,5.62-3.44,8.97-3.44s6.15,1.15,8.72,3.44c2.57,2.29,3.86,5.11,3.86,8.47s-1.29,6.15-3.86,8.39c-2.57,2.24-5.48,3.35-8.72,3.35s-6.35-1.12-8.97-3.35c-2.63-2.24-3.94-5.03-3.94-8.39s1.31-6.18,3.94-8.47ZM1153.11,503.14h-23.48v-73.29h23.48v73.29Z"/>
      <rect class="cls-6" x="1162.17" y="482.85" width="68.43" height="20.29"/>
      <rect class="cls-3" x="1162.17" y="482.85" width="68.43" height="20.29"/>
      <path class="cls-6" d="M597.38,416.23s17.56,10.49,15.44,25.45c-.36,5.83.15,20.58-10.12,19.41-10.26-1.17-19.74-6.51-21.83,10.94,1.89,2.93,12,11.83,28.79-6.48.65,2.38,3.32,12.29,11.78,18.48-2.87,4.45-34.04,50.89-76.01,8.37-4.21-5.58-21.52-32.27,8.28-64.57,8.24-9.19,31.87-16.77,43.67-11.6"/>
      <path class="cls-9" d="M610.97,461.72l7.3-9.55s11.72,1.32,12.06,2.65c.33,1.32-5.63,28.94-7.95,29.16-2.31.22-16.07-13.4-11.41-22.26"/>
      <path class="cls-8" d="M591.75,418.72s-15.46-.4-16.02,4.26c2.09,1.88,12.27,15.44,11.96,23.23-.31,7.78.08,10.91.08,10.91l5.07-.14s12.46-18.41-1.08-38.26"/>
      <path class="cls-8" d="M558.11,429.18s-14.01,13.14-9.97,14.35c1.72.51,24.51,7,32.26,20.02l2.26-2.52s.75-12.96-24.54-31.85"/>
      <path class="cls-8" d="M539.7,461.02s-1.12,14.67,3.46,18.79c3.28-3.65,15.38-12.28,35.64-9.62.11-2.39.55-2.88.55-2.88,0,0-29.08-14.82-39.65-6.29"/>
      <path class="cls-8" d="M552.35,494.79s8.24,9.74,12.42,8.8c1.3-3.23,1.79-15.1,17.69-27.79-1.61-1.44-2.49-2.24-2.49-2.24,0,0-22.56,8.47-27.62,21.22"/>
      <path class="cls-8" d="M591.57,478.27l-4.44-.47s-11.04,17.06-6.81,29.5c2.8.61,16.83-1.6,15.66-3.38-1.16-1.78-8.69-15.87-4.41-25.65"/>
      <path class="cls-8" d="M596.76,477.51l3.81-2.15s12.54,12.72,15.13,10.8c2.59-1.92-5.69,10.87-6.62,10.61-.93-.25-16.17-11.58-12.32-19.27"/>
      <path class="cls-9" d="M633.88,418.26s9.9-14.17,9.75,5.62c-.15,19.79-13.98,30.49-13.98,30.49,0,0-6.83-2.4-9.35-2.35-2.51.05-5.52-28.79.49-35.48,1.77-1.97,4.31-7.87,7.71-4.82s5.38,6.53,5.38,6.53"/>
      <path class="cls-5" d="M627.88,442.83s11.92-29.51-1.85-31.89c-4.1,1.43-5.23,5.6-5.23,5.6"/>
      <path class="cls-5" d="M633.88,418.26s11.97-12.17,9.75,5.62c-2.22,17.8-12.1,28.79-12.1,28.79"/>
      <path class="cls-5" d="M619.7,418.2s-3.99,22.45-1.39,25.76"/>
      <path class="cls-5" d="M613.31,459.06s.55-1.13,3.21-4.95c2.66-3.82,6.48-1.3,11.63-1.33,5.15-.03-1.74,26.88-5.08,30.6-12.13-5.92-13.13-20.56-13.13-20.56,0,0-15.06,21.99-29.07,9.21-1.95-3.2,2.77-17.46,25.31-11.24,4.66-.96,11.71-26.24,1.45-35.4-10.25-9.17-10.49-10.81-16.99-10.73"/>
      <path class="cls-5" d="M587.56,414.96s-47.9-1.77-50.89,53.15"/>
      <path class="cls-5" d="M537.53,474.75s.98,17.71,26.73,31.58c25.75,13.87,45.49-5.75,58.81-22.93"/>
    </g>
  </g>
</svg>