<?xml version="1.0" encoding="UTF-8"?>
<svg xmlns="http://www.w3.org/2000/svg" version="1.1" viewBox="0 0 367.3 46.4">
  <defs>
    <style>
      .cls-1 {
        fill: #fff;
      }

      .cls-1, .cls-2 {
        stroke: #d4533a;
        stroke-miterlimit: 10;
      }

      .cls-3 {
        fill: #d4533a;
      }

      .cls-2 {
        fill: none;
      }
    </style>
  </defs>
  <!-- Generator: Adobe Illustrator 28.6.0, SVG Export Plug-In . SVG Version: 1.2.0 Build 709)  -->
  <g>
    <g id="_レイヤー_1">
      <g>
        <path class="cls-3" d="M72.4,7.6c.6,0,1.2.3,1.9.8.7.5,1,1,1,1.5s-.1,1-.4,1.7c-.3.6-.7,1.3-1.1,2.1-.4.7-1.2,2-2.1,3.7-1,1.7-2,3.6-2.9,5.6,1.9,0,3.5.1,4.8.4s3.1.8,5.2,1.5c0-1.5-.1-2.8-.4-3.8-.3-1-.4-1.5-.4-1.6,0-.6.3-.9,1-.9s.8.1,1.2.3c.4.2.7.5.8.9,0,.4.4,1.5,1.1,3.4.7,1.9,1.1,3.2,1.5,4,3.5,2.4,5.3,4.1,5.3,5.1s-.9,1.4-2.8,1.4-1.2-.2-1.7-.5c-.5-.4-1.1-.9-1.8-1.7-.7-.8-1.3-1.4-1.9-1.8-.6,2.8-2.2,5.4-5,7.7-2.8,2.3-5.2,3.5-7.3,3.5s-.7-.2-.7-.5.3-.4,1-.7c4.8-2,8-5.9,9.7-11.7-2.2-1.7-5.3-2.6-9.1-2.6s-1.1,0-1.5.2c-1.3,3.3-2.5,5.7-3.5,7.2s-1.8,2.5-2.7,3c-.8.5-1.9.7-3.3.7s-1.6-1.5-1.6-4.5,2.9-6.2,8.8-8.3c2.4-4.3,4.5-8.4,6.2-12.3-1.9,1.9-3.8,2.9-5.4,2.9s-1.5-.2-2.1-.7c-.6-.4-.9-1-.9-1.7s0-.4.2-.5.5-.1,1.2-.1,1.5-.3,2.3-.9c.8-.6,1.7-1.2,2.6-1.8s1.9-.9,2.9-.9h0ZM64.3,26.1c-1.4.5-2.7,1.2-3.8,2.2s-1.7,1.9-1.7,2.8.2,1.1.5,1.1c.5,0,1.3-.5,2.2-1.5.9-1,1.8-2.6,2.7-4.7h0Z"/>
        <path class="cls-3" d="M114,11.4c-.1.2-.7.9-1.8,2.2s-1.8,2.3-2.2,2.9c-.5.6-1.1,1.6-1.9,2.8-.8,1.2-1.5,2.4-2.1,3.5,2.1-1.8,4.3-2.7,6.5-2.7s3.1.5,4,1.5c1,1,1.4,2.2,1.4,3.8s-.2,2.5-.5,4.2c-.3,1.7-.5,2.9-.5,3.4,0,1.5.8,2.3,2.3,2.3s1.6-.2,2.3-.7c.8-.5,1.5-1.1,2-1.8s1-1.3,1.4-1.8c.3-.5.6-1,.8-1.4.2-.5.4-1.1.7-1.9s.4-1.4.6-1.9c.2-.4.4-.6.7-.6s.5.5.5,1.4c0,1.6-.4,3.4-1.2,5.3-.8,1.9-1.9,3.6-3.3,5-1.4,1.4-2.8,2.1-4.2,2.1s-3.2-.5-4.1-1.5c-.9-1-1.4-1.9-1.4-2.8s.2-2.2.5-3.9c.3-1.7.5-2.9.5-3.8,0-1.3-.3-2.4-1-3.4-.7-1-1.3-1.4-2-1.4s-1.9.3-3.1,1-2.1,1.3-2.7,2.1c-2.6,3.4-3.9,7.7-3.9,13s0,.2,0,.3c0,.1-.2.2-.4.4s-.4.2-.7.2c-.7,0-1.3-.4-1.7-1.1s-.6-1.7-.6-2.9.7-3,2.1-6.3c1.4-3.3,2.9-6.5,4.6-9.6.7-1.4,1.6-2.9,2.6-4.5s1.8-2.8,2.3-3.6c.5-.8.7-1.5.7-1.9s-.2-.9-.5-1.4c-.3-.5-.5-.8-.5-.9,0-.4,0-.7.1-.9,0-.2.3-.2.6-.2.8,0,1.7.4,2.6,1.1.2.2.5.8.8,1.6.3.8.4,1.5.4,1.9s0,.2,0,.3c0,0-.1.2-.3.3-.1.1-.2.2-.3.3h0Z"/>
        <path class="cls-3" d="M143.2,25.6c1.1-1.4,2.1-3,3.1-5,1.7-3.6,2.6-5.9,2.7-6.8,0,0-.2,0-.4,0s-.4,0-.4,0c-1.7,0-3-.7-3.9-2-.4-.5-.5-1-.5-1.4s0-.5.3-.8c.2-.2.4-.4.7-.4s.5.2,1.1.8c.6.5,1.3.8,2,.8s1.1,0,1.3-.1.6-.3,1.1-.7c0-.4-.2-1-.6-1.8-.4-.7-.6-1.2-.6-1.5s.2-.3.7-.3,1.3.2,2,.6c.7.4,1,.8,1,1.3s0,.1,0,.2c.8-.3,1.4-.5,1.9-.5.9,0,1.3.4,1.3,1.4s-.1.9-.4,1.4c-.2.4-.6.7-.9.8-.2,0-.4.1-.8.3s-.8.4-1.3.7c-.5.3-.9.5-1.2.6,0,.2-.3.8-.6,1.6s-.6,1.4-.7,1.9c-.2.5-.4,1.2-.7,2s-.5,1.5-.7,2c-.2.5-.4,1-.5,1.2,0,.2-.3.7-.5,1.5-.3.8-.6,1.6-.9,2.4s-.7,1.5-1.1,2.2c0,.1-.2.3-.4.6s-.3.5-.4.6-.2.3-.4.5c-.2.2-.3.4-.4.5s-.3.2-.5.3-.4.1-.6.1c-.4,0-.6-.3-.8-.9s-.2-1.1-.2-1.7.4-1.6,1.2-2.6h0ZM155.4,40.3c-.7,0-1.3,0-1.8-.2-.5-.1-.9-.2-1.1-.3s-.7-.3-1.3-.7c-.5-.3-.9-.7-1.3-1.3s-.6-1.2-.6-1.8.2-1.4.5-2.1.7-1.1,1-1.3c.3-.3.8-.6,1.4-1,.3-.2.9-.4,1.9-.6,1-.2,1.7-.3,2.3-.3s.9,0,1.2,0c0-.3-.2-.9-.3-1.9-.1-.6-.2-1.4-.2-2.5s.1-2.9.4-4.5c.2-1.5.6-2.2,1.1-2.2s.4.4.4,1.2,0,.9,0,1.9c0,1,0,1.7,0,2.2s.1,1.8.3,3.4c.2,1.6.3,2.6.4,2.9,2.2,1,3.9,1.9,4.9,2.9.4.4.6,1,.6,1.9s-.1.9-.4,1.3c-.3.3-.6.5-1,.5s-.9-.2-1.6-.7c-.1,0-.4-.3-.9-.8-.5-.5-1-.8-1.3-1.1,0,.4-.1.8-.3,1.3-.1.5-.4,1-.7,1.6-.3.6-.8,1.1-1.4,1.5s-1.4.6-2.2.6h0ZM151.5,35.4c0,.5.4,1.1,1.3,1.7.4.3,1,.5,2,.5s1.5-.4,2-1.3c.4-.7.6-1.4.8-2.3-.5-.3-1.4-.5-2.8-.5s-1.4.2-2.2.5c-.7.4-1.1.8-1.1,1.4h0ZM160.8,13.2c-1.3-.8-1.9-1.4-1.9-1.6,0-.4.4-.6,1.1-.6,1.5,0,3.3.9,5.4,2.7.1,0,.4.3.7.6s.6.5.7.7c.1.1.3.3.5.6.2.3.4.5.4.8s.1.6.1,1c0,.9,0,1.5-.3,1.9-.2.3-.5.5-1,.5s-.5,0-.7,0-.3-.1-.4-.2c-.1,0-.2-.2-.4-.3s-.3-.3-.4-.4c-.9-.7-1.8-1.1-2.6-1.1h-.3c-.5,0-.7-.1-.7-.3s.4-.5,1.1-.9,1.1-.8,1.1-1c0-.4-.9-1.2-2.6-2.3h0Z"/>
        <path class="cls-3" d="M193.9,38.9c-1.3,0-1.9-.2-1.9-.7s.2-.4.6-.6.8-.2,1.3-.2.9,0,1.7-.3,1.6-.5,2.7-.9c1.1-.4,2.1-1,3.2-1.7,1.1-.8,2.1-1.6,3-2.6.9-1,1.7-2.3,2.3-3.8s.9-3.2.9-5.1-.3-3.7-.8-5.3-1.3-2.9-2.1-3.8c-2.2-2.3-4.9-3.5-7.9-3.6.2,2,.4,4.2.4,6.4s-.5,4.9-1.6,7.8c-1.1,2.9-2.4,5.2-4.1,7.1-1.9,2.1-3.8,3.1-5.8,3.1s-1.3-.3-1.7-.9-.9-1.4-1.3-2.4c-.8-2-1.2-4.4-1.2-7.1s.2-2.4.6-4.1,1.2-3.4,2.2-5c.9-1.4,1.7-2.3,2.4-3,.8-.7,1.8-1.3,3.1-2,1.9-1,4.3-1.5,7.3-1.5s2.9.3,4.7.9c1.8.6,3.2,1.4,4.1,2.3,3.3,3.2,5,6.9,5,11s-.4,4.6-1.3,6.5c-.9,1.9-2,3.5-3.3,4.6-1.3,1.1-2.8,2.1-4.4,2.8s-3.1,1.3-4.4,1.5-2.5.4-3.6.4h0ZM195.2,13.1c0-1,0-1.9-.2-2.8-1.9.3-3.4.7-4.4,1.4-2.2,1.3-4,3.1-5.3,5.6-.6,1.1-1,2.4-1.3,3.9s-.4,2.6-.4,3.3.2,2.2.6,3.6.8,2.1,1.1,2.1c.7,0,1.6-.4,2.7-1.3,1.1-.8,2.1-2,3.2-3.4,1.1-1.4,2-3.2,2.8-5.5.8-2.2,1.1-4.5,1.1-6.9h0Z"/>
        <path class="cls-3" d="M247.2,20.4c0,.5-.1.9-.4,1.2-.2.3-.5.5-.8.6h-.4c-.1.1-.4.4-.9.8-.8,2.2-1.1,3.5-1.1,3.8v.6c0,.2.2.4.7.5.4.1.8.4,1.1.9.2.2.2.4.2.5s0,0,0,.1c0,0,0,.1,0,.2s0,.1-.1.3-.2.3-.4.4-.4.3-.7.3h-.5c0,0-.2.1-.2.1-.1,0-.4,0-.8-.3-.4-.2-.8-.3-1.1-.3s-.4,0-.8.1c-.4,0-.9.2-1.6.2-.7,0-1.3.1-1.8.1-.5,0-.8,0-.9.1l-1.3.3c-.9.1-1.8.3-2.7.5-.9.1-1.4.2-1.5.2-.3,0-.6,0-.9-.2s-.5-.2-.7-.2-.4-.2-.9-.5c-.5-.3-.7-.6-.7-.9s0-.2,0-.4c0-.1.2-.3.4-.5s.6-.3,1-.3.6,0,.9.1c.4,0,.6.1.7.1h2.2c.1-.2,1.3-.3,3.6-.5,2.3-.2,3.6-.4,3.9-.6,0,0,.1,0,.2,0s.2,0,.2,0,.1-.1.2-.3c0-.1.1-.4.2-.7,0-.3.1-.8.2-1.3l.4-3.1c0,0,0-.3,0-.6s0-.5,0-.7,0-.3-.1-.4c0,0-.3,0-.6,0s-.7,0-1.2,0c-.5,0-.9.1-1.3.2h-.5c-.2,0-.4.1-.6.2-.2,0-.3,0-.5,0-.4,0-1.1,0-2.2.2s-2,.2-2.8.3c-.8,0-1.4.2-1.9.4-.2,0-.3.1-.5.1s-.5-.2-1.4-.5c-.2,0-.4-.4-.7-.9s-.4-.9-.4-1.4,0-.4.1-.6c.1-.1.2-.2.3-.3s.1,0,.2,0c.1,0,.2,0,.4.2s.3.2.4.2c.9,0,2.5.1,4.8.1,4.1,0,6.5-.2,6.9-.6.3-.3.8-.5,1.6-.6.8-.2,1.1-.3,1.2-.3h0c.2,0,.6.1,1.1.4.6.3,1,.5,1.5.7l.6.4.5.5h0c0,.1,0,.3,0,.5s0,.4,0,.5h0Z"/>
        <path class="cls-3" d="M281.8,20.2s.1,0,.2,0c.1,0,.2,0,.3,0,.2,0,.5-.2.7-.7l.3-.6c.2-.4.5-1,1-2s.6-1.6.6-2-.2-.7-.6-1.1-.8-.8-1.1-1.1l-.6-.4c0,0,0-.1,0-.2,0-.6.4-.9,1.3-.9h0s.1,0,.1,0c1.6,0,2.6.2,2.9.5l.8.5h.1c0,.2.2.3.3.4.1.1.2.2.2.2l.3.5c.7,1,1,1.7,1,2.1,0,.7-.1,1.1-.3,1.3,0,0-.2.1-.5.2-.2,0-.4.2-.5.2-1,1-1.7,2-2.3,3-.6,1-.8,1.7-.8,2.2s0,.2,0,.3c.7.6,1.1,1,1.3,1.2.2.2.4.5.7.8.3.4.4.7.5.9s0,.6,0,1c0,.7-.1,1.2-.4,1.5-.2.3-.5.5-.8.5s-.4,0-.6,0-.4-.1-.6-.2h-.2c-.1,0-.3-.3-.4-.6s-.3-.7-.4-1.1c-.2-.4-.3-.7-.5-.9-.5-.5-.8-.8-.9-.8s-.2,0-.2.2l-1.1,1.7c-.7,1-1.6,2.1-2.8,3.2s-2.2,1.9-3,2.5-1.3.9-1.5,1l-.8.6c-1.8,1.1-3.7,1.7-5.5,1.7s-.3,0-.4-.2c-.1-.1-.2-.3-.2-.4s0-.2,0-.2.1-.1.3-.2.3-.2.5-.2.4-.2.7-.4c.3-.2.6-.3,1-.6l2.8-1.8c.5-.3,1.4-1,2.8-2.2,1.4-1.2,2.2-1.9,2.5-2.3l1.4-1.8c1.2-1.7,1.9-2.7,1.9-3.1s-.6-.7-1.9-1.4c-1.3-.7-2-1.2-2-1.3,0-.2-.1-.3-.1-.5,0-.2.2-.4.6-.4s1.3.2,2.4.6l1.7.6h0Z"/>
        <path class="cls-3" d="M315.7,20.1c-.4.4-.9.6-1.6.6s-1.2-.3-1.9-1c-.7-.6-1.2-1.3-1.6-1.9-.2-.3-.5-.6-.9-.9s-.8-.6-1.1-.9c-.3-.2-.5-.4-.5-.6,0-.3.2-.5.7-.7s1-.3,1.4-.3c.8,0,1.8.1,3,.4,1.2.3,2,.6,2.4,1.1.5.5.7,1.3.7,2.2s-.2,1.6-.7,1.9h0ZM323.1,25.8c-.5.5-1.6,1.4-3.3,2.9s-2.9,2.5-3.5,3.1c-1.5,1.4-2.7,2.2-3.8,2.2s-1.6-.4-2.6-1.2c-1-.8-1.5-1.5-1.5-2.1s.1-1.3.4-2,.5-1.1.8-1.1.5.2,1,.7,1.1.7,1.6.7c2,0,5.9-2.6,11.7-7.8,3-2.7,5.5-5.1,7.3-7.1.5-.5.8-.8.9-.8.4,0,.5.3.5.8s-1.1,2.4-3.4,5-4.4,4.8-6.3,6.7h0Z"/>
        <path class="cls-3" d="M359.6,33.4c0,.3.1.7.3,1.1s.2.8.2,1c0,.3-.2.7-.5,1.3-.3.6-.7.8-1,.8-.5,0-1.2-.7-1.9-1.9-.7-1.3-1-2.3-1-3.2s0-.7.2-1.3c.1-.6.2-1,.3-1.3,0-.6.2-2,.3-4.3s.2-4,.2-5.1c0-2.2-.1-4.3-.4-6.5,0-.7-.2-1.1-.4-1.4-.3-.4-.6-.7-.9-.9-.2-.2-.4-.5-.4-1s.2-.6.5-.8c.3-.2.7-.3,1.2-.3s1,.1,1.6.4c.8.3,1.4.7,1.9,1s.7.8.7,1.4-.1.8-.4,1.2c-.3.4-.4.8-.5,1-.2,1.6-.2,3.3-.2,5.3.5-.2,1-.3,1.3-.3,1.3,0,2.7.4,4.4,1.3.5.2,1,.7,1.5,1.4.5.7.8,1.5.8,2.4s-.2,1.5-.6,1.9c-.4.5-.9.7-1.4.7s-.9-.2-1.1-.5-.7-.9-1.1-1.7c-.4-.8-.8-1.5-1-1.8-.3-.4-.7-.8-1.1-1.2-.5-.4-1-.7-1.5-.8,0,6.8.1,10.8.3,12.1h0Z"/>
      </g>
      <g>
        <path class="cls-2" d="M20.4.7c-1,0-1.8.8-1.8,1.8v2.6l-1.2-1c-.8-.6-1.9-.5-2.5.3-.6.8-.5,1.9.3,2.5l3,2.5c.2.1.3.2.5.3v1.6c0,1,.8,1.8,1.8,1.8s1.8-.8,1.8-1.8V2.6c0-1-.8-1.8-1.8-1.8Z"/>
        <path class="cls-2" d="M29.2.7c1,0,1.8.8,1.8,1.8v2.6l1.2-1c.8-.6,1.9-.5,2.5.3.6.8.5,1.9-.3,2.5l-3,2.5c-.2.1-.3.2-.5.3v1.6c0,1-.8,1.8-1.8,1.8s-1.8-.8-1.8-1.8V2.6c0-1,.8-1.8,1.8-1.8Z"/>
        <path class="cls-1" d="M15.3,13.4s8.7-5.9,19,0c1.5-1.4,6.9-6.4,6.9-6.4,0,0,1.1-1.5,2,1.2.9,2.7.6,7.3-2.2,11.7.5,1.6,10.7,20.7-8.4,25-3.3.5-37,5.5-23.8-24.7-1.1-1.8-3.8-6.8-2.1-13.1.8-1.2-.5-2.4,8.6,6.2h0Z"/>
        <path class="cls-2" d="M12.7,21.6s-1.8-1.1,2.1-1.8c-.2-1.2-.6-3.8,1.1-2.8,1.8,1,6.7,3.8,5.9,7.1s-8.1-1.2-9.2-2.4h0Z"/>
        <path class="cls-2" d="M33.6,16.9s1.7-1.2.9,2.6c1.2.2,3.8.7,2.3,2.1s-5.9,5-8.7,3.1,3.9-7.2,5.5-7.8Z"/>
        <path class="cls-2" d="M32.1,45.1c0,.3-12.1,1.2-15,0-1.2-.8-5.9-5.3.3-9.6,6.2-4.3,17-1.4,17.8,4.1,0,1.9.5,3.1-3.1,5.5Z"/>
        <circle class="cls-3" cx="17.1" cy="29" r="1.8"/>
        <circle class="cls-3" cx="32.5" cy="29" r="1.8"/>
        <circle class="cls-2" cx="22.4" cy="36.6" r=".7"/>
        <circle class="cls-2" cx="27.1" cy="36.6" r=".7"/>
        <path class="cls-3" d="M2.4,40.5c1.7,0,3.5-.6,4.9-1.5,1.5-1,2.3-2.5,3.6-3.6,2.1-1.7,5.7-.3,5.8,2.6,0,.9,1.4.9,1.4,0,0-2.7-3.2-5.4-5.9-4.9-2.2.5-3.1,2.7-4.8,4.1-1.3,1.1-3.2,2.1-5,2-.9,0-.9,1.3,0,1.4h0Z"/>
        <path class="cls-3" d="M47.1,39.2c-1.8,0-3.7-.8-5-2-1.6-1.3-2.5-3.6-4.8-4.1-2.7-.6-5.8,2.1-5.9,4.9,0,.9,1.4.9,1.4,0,0-2.8,3.7-4.4,5.8-2.6,1.3,1.1,2.1,2.6,3.6,3.6,1.4.9,3.2,1.6,4.9,1.5.9,0,.9-1.4,0-1.4h0Z"/>
      </g>
    </g>
  </g>
</svg>