<?xml version="1.0" encoding="UTF-8"?>
<svg id="_レイヤー_1" data-name="レイヤー_1" xmlns="http://www.w3.org/2000/svg" xmlns:xlink="http://www.w3.org/1999/xlink" viewBox="0 0 297.52 37.56">
  <defs>
    <style>
      .cls-1, .cls-2 {
        fill: none;
      }

      .cls-3 {
        fill: #efefef;
      }

      .cls-4 {
        clip-path: url(#clippath-1);
      }

      .cls-5 {
        clip-path: url(#clippath);
      }

      .cls-2 {
        stroke: #f0f0f0;
        stroke-miterlimit: 10;
        stroke-width: 2.13px;
      }
    </style>
    <clipPath id="clippath">
      <rect class="cls-1" width="60.83" height="37.56"/>
    </clipPath>
    <clipPath id="clippath-1">
      <rect class="cls-1" width="60.83" height="37.56"/>
    </clipPath>
  </defs>
  <g>
    <path class="cls-3" d="M79.99,21.49c-1.32,1.95-2.74,3.58-4.27,4.88s-3.32,2.53-5.38,3.67c-.47.24-1.09.5-1.88.77-.78.27-1.28.41-1.5.41-.3,0-.57-.07-.8-.2-.23-.13-.35-.28-.35-.43,0-.24.12-.43.35-.58.23-.15.59-.33,1.07-.54.48-.21.86-.4,1.13-.58,2.03-1.32,4.18-3.27,6.43-5.85,1.62-1.89,3.1-4.54,4.45-7.96.33-.84.49-1.65.49-2.43-1.32,0-3.33.39-6.02,1.17-.25.09-.79.27-1.63.54-.84.27-1.51.47-2.02.61-.51.13-.94.2-1.3.2-.66,0-1.43-.41-2.31-1.24-.88-.83-1.32-1.48-1.32-1.96,0-.57.36-.85,1.07-.85.19,0,.62.07,1.3.2.67.13,1.17.2,1.5.2,1.1,0,4.09-.46,8.99-1.4.91-.18,1.67-.41,2.29-.7.62-.29,1.06-.43,1.34-.43.77,0,1.59.52,2.47,1.55.88,1.04,1.32,1.84,1.32,2.41,0,.54-.33,1.01-.99,1.4s-1.1.76-1.32,1.12c-.22.36-.69,1.3-1.4,2.81-.71,1.51-1.29,2.59-1.73,3.22ZM85.55,9.88c-.72-.78-1.07-1.74-1.07-2.88s.36-2.1,1.07-2.88c.71-.78,1.59-1.17,2.64-1.17s1.92.39,2.64,1.17c.71.78,1.07,1.74,1.07,2.88s-.36,2.1-1.07,2.88c-.71.78-1.59,1.17-2.64,1.17s-1.92-.39-2.64-1.17ZM86.73,5.41c-.4.44-.6.97-.6,1.6s.2,1.16.6,1.6c.4.44.89.65,1.46.65s1.06-.22,1.46-.65c.4-.43.6-.97.6-1.6s-.2-1.16-.6-1.6c-.4-.43-.89-.65-1.46-.65s-1.07.22-1.46.65Z"/>
    <path class="cls-3" d="M107.11,12.18c.88,0,1.77.17,2.66.52.89.34,1.66.52,2.29.52.71,0,4.11-.74,10.18-2.21.77,0,1.55.33,2.35.99.03.03.17.14.43.32.26.18.47.34.62.5s.31.34.47.56c.17.22.25.43.25.61,0,.21-.03.48-.08.81-.06.33-.2.7-.43,1.1-.23.41-.53.64-.89.7-.19.03-.36.19-.5.47-.14.29-.29.92-.47,1.91s-.38,2.43-.6,4.32c.66.36.99.95.99,1.76,0,.6-.18,1.04-.54,1.33s-1.07.43-2.14.43c-.22,0-1-.01-2.33-.04s-2.27-.04-2.82-.04c-.58,0-1.3.04-2.17.13-.87.09-1.42.22-1.67.41-.19,1.05-.43,1.82-.7,2.32s-.65.74-1.11.74c-.82,0-1.39-.88-1.71-2.63-.32-1.75-.58-5.24-.8-10.46-.03-.48-.31-.98-.85-1.51-.54-.52-.93-.79-1.17-.79-.41,0-.79-.12-1.13-.36s-.51-.57-.51-.99c0-.93.8-1.39,2.39-1.39ZM120.68,14.25c-.82,0-2.49.29-5.01.88s-3.8.88-3.85.88c0,1.14.07,2.7.21,4.68.14,1.98.26,3.24.37,3.78,2.75,0,5.39-.33,7.92-.99.44-2.55.66-4.68.66-6.39,0-1.26-.1-2.2-.29-2.83Z"/>
    <path class="cls-3" d="M162.43,21.49c-1.32,1.95-2.74,3.58-4.27,4.88-1.53,1.3-3.32,2.53-5.38,3.67-.47.24-1.09.5-1.88.77-.78.27-1.29.41-1.5.41-.3,0-.57-.07-.8-.2s-.35-.28-.35-.43c0-.24.12-.43.35-.58.23-.15.59-.33,1.07-.54.48-.21.86-.4,1.13-.58,2.03-1.32,4.18-3.27,6.43-5.85,1.62-1.89,3.11-4.54,4.45-7.96.33-.84.49-1.65.49-2.43-1.32,0-3.33.39-6.02,1.17-.25.09-.79.27-1.63.54-.84.27-1.51.47-2.02.61-.51.13-.94.2-1.3.2-.66,0-1.43-.41-2.31-1.24-.88-.83-1.32-1.48-1.32-1.96,0-.57.36-.85,1.07-.85.19,0,.62.07,1.3.2s1.17.2,1.5.2c1.1,0,4.09-.46,8.99-1.4.91-.18,1.67-.41,2.29-.7s1.06-.43,1.34-.43c.77,0,1.59.52,2.47,1.55.88,1.04,1.32,1.84,1.32,2.41,0,.54-.33,1.01-.99,1.4-.66.39-1.1.76-1.32,1.12-.22.36-.69,1.3-1.4,2.81-.72,1.51-1.29,2.59-1.73,3.22Z"/>
    <path class="cls-3" d="M199.79,19.74s.17.09.37.19c.2.1.34.17.42.21.08.04.21.1.37.19s.29.16.37.21c.08.05.19.13.32.23.13.1.22.19.28.27.06.08.12.17.2.27.07.1.12.21.14.33.02.12.04.24.04.37,0,.05-.03.25-.09.6-.06.35-.12.82-.18,1.41-.06.59-.09,1.19-.09,1.78,0,.72.04,2.08.11,4.06.07,1.99.11,3.33.11,4.02,0,.44-.16.9-.48,1.39-.32.49-.66.74-1.01.74-.59,0-1.05-.29-1.36-.87-.32-.58-.48-1.13-.48-1.65,0-.62.06-1.7.2-3.25.13-1.55.21-2.62.23-3.21.05-1.11.07-2.54.07-4.3,0-.75-.2-1.29-.6-1.62-5.84,5.39-9.37,8.09-10.6,8.09-.33,0-.5-.14-.5-.43s.33-.71.99-1.28c.66-.57,1.68-1.46,3.05-2.67,1.37-1.21,2.66-2.5,3.86-3.87.83-.93,1.77-2.23,2.84-3.91,1.06-1.68,1.6-2.85,1.6-3.52,0-.05-.18-.21-.53-.48-.35-.27-.53-.56-.53-.87,0-.21.17-.43.51-.66.34-.23.73-.35,1.15-.35.78,0,1.57.34,2.38,1.01.8.67,1.21,1.28,1.21,1.82,0,.18-.21.52-.62,1.03s-1,1.22-1.77,2.15c-.77.93-1.42,1.78-1.97,2.55Z"/>
    <path class="cls-3" d="M225.13,17.89c.22,0,.73.15,1.55.45.81.3,1.3.45,1.46.45.3,0,3.11-.25,8.41-.74,5.3-.5,8.37-.8,9.19-.92.33-.06,1.2-.23,2.62-.5,1.42-.27,2.36-.41,2.82-.41.66,0,1.5.31,2.51.92s1.53,1.21,1.53,1.78c0,.6-.2,1.13-.6,1.6-.4.46-.83.7-1.3.7-.27,0-1.07-.14-2.39-.43s-2.25-.43-2.8-.43c-1.15,0-3.24.08-6.27.23-3.24.18-5.17.33-5.77.45-.14.03-.58.14-1.32.34-.74.2-1.48.38-2.23.54-.74.17-1.39.31-1.94.43-.82.12-1.31.18-1.44.18-.69,0-1.74-.44-3.15-1.33s-2.12-1.55-2.12-2c0-.87.41-1.3,1.24-1.3Z"/>
    <path class="cls-3" d="M264.46,31.62c0-.39.43-.97,1.28-1.75,1.54-1.44,3.16-3.77,4.86-7,1.7-3.22,2.56-5.72,2.56-7.49,0-.36-.22-.7-.66-1.03s-.66-.62-.66-.86c0-.33.1-.63.31-.9.21-.27.49-.4.84-.4,1.1,0,2.07.47,2.91,1.42.84.95,1.26,1.78,1.26,2.5,0,.18-.03.36-.08.54-.06.18-.11.31-.17.38-.06.08-.15.19-.29.34-.14.15-.22.24-.25.27-.41.48-.76,1.25-1.03,2.29-1.13,4.08-3.9,8-8.33,11.75-.58.51-1.14.77-1.69.77-.58,0-.87-.27-.87-.81ZM283.75,24.37c-1.18.72-2.46,1.08-3.83,1.08-.25,0-.52-.33-.83-.99s-.45-1.14-.45-1.44c0-.12.11-.38.33-.76.17-.3.25-.81.25-1.53,0-1.65.08-3.25.23-4.82.15-1.56.23-2.41.23-2.56,0-.54-.14-.87-.41-.99-.91-.39-1.36-.78-1.36-1.17,0-.48.14-.85.41-1.1s.59-.38.95-.38c.99,0,2.02.41,3.09,1.21,1.07.81,1.61,1.5,1.61,2.07,0,.18-.08.4-.23.65-.15.26-.27.5-.35.74-.44,1.29-.67,3.33-.7,6.12,1.92-.81,5.94-4.02,12.04-9.63.14-.12.36-.37.66-.74.3-.38.57-.65.8-.83.23-.18.47-.27.72-.27.41,0,.62.24.62.72,0,1.14-1.77,3.53-5.3,7.18-3.53,3.65-6.36,6.13-8.47,7.45Z"/>
  </g>
  <g class="cls-5">
    <g class="cls-4">
      <path class="cls-2" d="M38.6,18.1s8.08,3.19,13.14-.7c-.89,1.26-5.82,9.93-15.39,8.79,0,1.08-3.59,5.86-8.48,2.21-.5,1.02-2.13,6.34-9.44,2.27-.89-.06-7.49,5.68-13.49-2.75-1.55-2.27-.48-8.02,1.13-9.27-.53-.84-3.8-4.31-.24-9.63,1.37-1.62,4.46-3.41,8.14-2.21.71-1.2,11.35-7.84,15.04,4.19,1.43-.3,8.92-3.21,9.6,7.1Z"/>
      <path class="cls-2" d="M18.42,30.68s-2.56-3.64-.34-5.97c2.22-2.33,6.06-2.26,6.06,1.57-.13.63-.44,1.89-2.38,1.51"/>
      <path class="cls-2" d="M6.06,18.66s2.27-1.8,3.63-1.82c1.36-.02,3.15.14,4.89,2.67,1.74,2.52-2.01,5.17-2.01,5.17,0,0-1.12.72-2.24.14-1.12-.58-1.96-1.78-1.36-2.57.6-.79,1.43-1.25,2.29-.65"/>
      <path class="cls-2" d="M29,11s-.28,7.16-3.91,7.71c-.59.1-4.46,1.61-7.42-.98-2.96-2.59-.73-6.45-.3-6.73.43-.44,2.03-1.66,4.6-.76,2.58.9,1.6,3.51,1.6,3.51"/>
      <path class="cls-2" d="M38.6,18.1s-2.18,3.69-4.53,3.19c-2.35-.5-3.6-2.29-3.21-3.19.39-.9,1.19-2.86,3.09-1.84.57.44.78.79.64,1.75"/>
    </g>
  </g>
</svg>