<?xml version="1.0" encoding="UTF-8"?>
<svg id="_レイヤー_1" data-name="レイヤー_1" xmlns="http://www.w3.org/2000/svg" viewBox="0 0 297.16 48.36">
  <defs>
    <style>
      .cls-1 {
        fill: #e6bdcb;
      }

      .cls-2 {
        fill: #fef4ea;
        stroke: #272523;
        stroke-miterlimit: 10;
        stroke-width: 1.42px;
      }

      .cls-3 {
        fill: #d4533a;
      }
    </style>
  </defs>
  <g>
    <path class="cls-3" d="M58.77,14.88c0-.99.32-1.49.95-1.49.14,0,.34.02.62.07.27.04.45.07.54.07h1.77c.99,0,1.68.04,2.06.11.38.08.78.11,1.2.11.93,0,2.01-.07,3.24-.2,1.22-.14,1.89-.28,2-.43.03-.06.16-.22.39-.47.23-.25.35-.41.35-.47,0-.03.06-.11.19-.25.12-.13.2-.2.23-.2.3-.12.58-.18.82-.18.19,0,.38.07.58.2.19.13.35.28.47.43.12.15.2.23.23.23.08,0,.17.08.27.23.1.15.17.29.23.4l.08.23c.05,0,.08.03.08.09.27.36.41.72.41,1.08,0,.45-.26.69-.78.72-.25,0-.53.06-.85.18-.32.12-.71.18-1.17.18-.33,0-.71-.03-1.13-.09-.43-.06-.71-.09-.85-.09-.11,0-.27.03-.47.09-.21.06-.43.09-.68.09-.11,0-.27,0-.49-.02-.22-.01-.37-.02-.45-.02-.25,0-.44.04-.58.11-.14.08-.33.11-.58.11-.19,0-.47-.03-.82-.09-.36-.06-.62-.09-.78-.09s-.36.04-.58.11c-.22.08-.56.11-1.03.11h-.58c-.6,0-1.15.04-1.63.14-.48.09-.89.13-1.22.13-.44,0-.81-.05-1.11-.16-.3-.11-.51-.22-.62-.34-.11-.12-.17-.22-.17-.32s-.03-.13-.08-.13c-.03-.03-.04-.09-.04-.18ZM73.53,19.56c0,.24-.08.43-.23.56-.15.13-.3.22-.43.25l-.21.04c0,.06-.07.13-.21.2-.14.08-.34.14-.6.2-.26.06-.53.09-.8.09s-.59-.05-.95-.16c-.36-.1-.78-.16-1.28-.16l-5.44.41c-1.46,0-2.18-.29-2.18-.86,0-.03-.04-.11-.1-.25-.07-.13-.1-.23-.1-.29,0-.18.13-.36.39-.54.26-.18.64-.27,1.13-.27h.49c.36,0,.67-.02.93-.07.26-.04.53-.07.8-.07.17,0,.41,0,.72.02.32.01.53.02.64.02h.33c.08,0,.13,0,.14-.02.01-.01.03-.02.06-.02.08,0,.3.07.66.2.36.13.67.2.95.2s.55-.09.82-.27c.27-.18.48-.36.62-.54.14-.18.21-.3.21-.36s.05-.15.14-.27c.1-.12.17-.18.23-.18l.21-.09c.14-.09.26-.13.37-.13s.21.04.29.13c.08.12.31.23.68.32s.62.21.76.36c.03,0,.14.12.33.36.19.24.29.39.29.45.22.24.33.48.33.72ZM62.15,10.2c-.33,0-.49-.24-.49-.72l.08-.63c0-.36.74-.54,2.23-.54.25,0,.61,0,1.09.02.48.02.82.02,1.01.02.49,0,.82-.03.99-.09.17-.09.38-.15.66-.18.27-.03.49-.07.64-.14.15-.06.23-.18.23-.36,0-.09.06-.26.19-.52.12-.25.21-.38.27-.38l.25-.27c.19-.18.3-.27.33-.27s.1-.04.21-.14c.11-.09.25-.13.41-.13.25,0,.54.2.89.58.34.39.56.58.64.58.06,0,.14.04.27.13.12.09.19.17.19.23l.12.14c.05.06.12.14.21.25.08.11.12.2.12.29.08.3.12.47.12.49,0,.09.01.14.04.14.06,0,.08.11.08.31,0,.63-.41.94-1.24.94-.28,0-.5.02-.66.07-.17.04-.26.07-.29.07-.06,0-.13,0-.23-.02s-.25-.02-.47-.02h-.54c-.27,0-.5-.03-.68-.09-.18-.06-.38-.09-.6-.09s-.56.05-1.01.16c-.45.11-.82.16-1.09.16-.06,0-.14,0-.25-.02-.11-.01-.21-.02-.29-.02-.14,0-.32.02-.54.04-.22.03-.4.04-.54.04-.06,0-.21-.01-.45-.04-.25-.03-.52-.04-.82-.04-.14,0-.34,0-.6.02-.26.02-.42.02-.47.02ZM64.83,28.56c.17,0,.32.06.45.18.14.12.23.18.29.18.08,0,.12.02.12.04,0,.06.03.09.08.09.38.21.88.32,1.48.32,1.51,0,2.32-.17,2.43-.5.03,0,.08.02.14.04.07.03.13.04.19.04.11,0,.33-.13.66-.38.33-.25.7-.38,1.11-.38.36,0,.75.1,1.17.29.43.2.78.38,1.05.56l.41.32s.04.03.04.09c0,.03.03.04.08.04.14,0,.3.12.49.36s.29.45.29.63c0,.12-.03.28-.1.47-.07.2-.12.29-.14.29-.03.12-.04.24-.04.36,0,.27-.08.61-.23,1.01-.15.41-.23.98-.23,1.73s.01,1.12.04,1.12c.17,0,.25.58.25,1.75,0,1.23-.01,2-.04,2.32-.03.31-.19.54-.47.67s-.53.31-.72.52c-.33.36-.85.54-1.57.54s-1.11-.15-1.11-.45c0-.06-.03-.09-.08-.09-.16,0-.35-.2-.56-.61s-.41-.61-.6-.61c-.06,0-.2.02-.43.04-.23.03-.45.04-.64.04-.06,0-.1,0-.14-.02-.04-.01-.08-.02-.1-.02-.19,0-.43.06-.7.18l-.62.27c-.25.09-.39.16-.43.2-.04.04-.06.14-.06.29,0,.06,0,.16.02.29.01.13.02.25.02.34,0,.45-.14.81-.43,1.08-.29.27-.46.54-.52.81-.14.54-.39.81-.74.81h-.45c-.3,0-.56.05-.78.16-.22.1-.39.16-.5.16-.27,0-.41-.08-.41-.22,0-.03-.06-.12-.19-.27-.12-.15-.2-.39-.23-.72l-.37-3.24-.08-.13.08-.18c.03-.12.06-.34.1-.67.04-.33.06-.76.06-1.3,0-.57-.01-1.08-.04-1.53l-.04-.63c0-.06.01-.27.04-.63s.04-.66.04-.9c0-.3-.02-.57-.06-.81-.04-.24-.06-.41-.06-.5,0-.06.01-.13.04-.22v-.14c0-.12-.06-.41-.19-.88-.12-.46-.19-.77-.19-.92v-.18c.05-.12.1-.38.12-.79.03-.41.09-.74.19-1.01.1-.27.27-.41.52-.41.08,0,.23.04.45.13.22.09.43.13.62.13.27,0,.51.07.7.2.19.13.36.2.49.2ZM68.13,24.1h.41l.17.04c.25,0,.54-.15.89-.45.34-.3.52-.51.52-.63,0-.09.1-.22.31-.38.21-.17.4-.25.6-.25.11,0,.22.04.33.14.11.09.21.13.29.13h.25c.3,0,.59.11.87.31.82.75,1.25,1.2,1.28,1.35,0,.3-.14.61-.41.92-.28.32-.47.47-.58.47-.55.06-1.14.09-1.77.09-.25,0-.47,0-.66-.02-.19-.01-.3-.02-.33-.02-.11,0-.25.04-.43.11-.18.08-.34.11-.47.11-.11,0-.27-.02-.47-.07s-.34-.07-.39-.07c-.03,0-.07.02-.12.05-.06.03-.2.07-.43.11-.23.04-.6.07-1.09.07-.39,0-.73-.04-1.03-.13-.3-.09-.58-.14-.82-.14-.11,0-.28.02-.52.04-.23.03-.45.05-.64.05-1.04,0-1.57-.17-1.57-.5,0-.03-.03-.04-.08-.04s-.08-.11-.08-.32c0-.36.1-.65.29-.88.19-.22.38-.37.58-.43l.29-.09s.08.02.17.07c.08.04.2.08.35.11.15.03.32.04.52.04.17,0,.38-.03.66-.09.27-.06.47-.09.58-.09.17,0,.36.06.6.18.23.12.61.18,1.13.18h.87ZM69.24,31.03h-.21c-.11,0-.2-.04-.27-.11-.07-.07-.14-.11-.23-.11-.06,0-.21.04-.47.13-.26.09-.52.14-.76.14-.77,0-1.15,1.05-1.15,3.15l.25,2.92s.15.17.37.41c.22.24.4.36.54.36.05,0,.2-.05.43-.16.23-.11.49-.16.76-.16l1.57-.45c.11-.09.17-.34.17-.76v-.81c0-.39.02-.66.06-.81.04-.15.06-.27.06-.36l-.21-.95s-.04-.04-.04-.13c0-.06,0-.21.02-.45.01-.24.02-.42.02-.54,0-.36-.07-.64-.21-.86-.14-.21-.26-.34-.37-.38-.11-.04-.22-.07-.33-.07ZM95.09,33.01c0,.27-.06.58-.19.95-.12.36-.2.72-.23,1.08-.06,0-.08.04-.08.13,0,.12.06.39.19.81.12.42.19.65.19.68,0,.12.04.28.12.47.08.2.17.37.25.52l.12.23c.05,0,.08.2.08.58,0,.45-.03.67-.08.67-.03.03-.01.06.04.09-.06,0-.08.12-.08.36,0,.42-.13.76-.39,1.04-.26.27-.54.44-.82.52s-.66.15-1.11.22c-.45.07-.74.13-.84.16-.47.15-1.07.23-1.81.23-.36,0-.89-.02-1.61-.04-.71-.03-1.17-.05-1.36-.05-.25,0-.45.03-.62.09-.17.06-.39.09-.66.09-.19,0-.46-.02-.8-.04-.34-.03-.57-.04-.68-.04-.06,0-.21.01-.45.04-.25.03-.45.04-.62.04-.25,0-.41-.04-.49-.11-.08-.08-.14-.11-.17-.11s-.06,0-.1.02c-.04.02-.16.04-.35.07-.19.03-.47.04-.82.04-.88,0-1.32-.09-1.32-.27l-.37-.09c-.27-.06-.41-.1-.41-.13-.03-.03-.06-.04-.08-.04-.14,0-.37-.15-.7-.45s-.51-.63-.54-.99c-.03-.36-.09-.67-.19-.92-.1-.25-.16-.58-.19-.97,0-.15,0-.29-.02-.41-.01-.12-.04-.25-.06-.41-.03-.15-.06-.52-.08-1.1-.03-.58-.04-1.36-.04-2.32,0-.3-.08-1.81-.23-4.54-.15-2.73-.23-4.42-.23-5.08,0-.15.01-.32.04-.52.03-.19.04-.5.04-.92,0-.39,0-.68-.02-.88-.01-.19-.04-.32-.06-.36-.03-.04-.04-.08-.04-.11,0-.09-.03-.19-.08-.31-.06-.12-.08-.21-.08-.27s.03-.18.1-.36c.07-.18.1-.28.1-.31.17-.45.44-.67.82-.67.17,0,.38.08.66.22.27.15.65.23,1.11.23h.21c.14,0,.29.05.47.16.18.11.27.19.27.25s.11.09.33.09.36.1.43.29c.07.2.16.31.27.34.19.03.69.04,1.48.04h1.77c.27,0,.46,0,.56.02s.17.02.23.02c.19,0,.34-.04.45-.14.11-.09.19-.25.25-.47.05-.23.09-.45.1-.68.01-.22.03-.52.06-.9.03-.38.05-.71.08-1.01.03-.12.04-.29.04-.5,0-.3-.05-.79-.14-1.49-.1-.69-.16-1.32-.19-1.89-.03-1.05-.1-1.57-.21-1.57-.03,0-.06-.09-.1-.27-.04-.18-.14-.35-.31-.52-.17-.16-.41-.25-.74-.25-.11,0-.27.03-.47.09-.21.06-.35.09-.43.09-.11,0-.2-.02-.27-.05-.07-.03-.23-.04-.47-.04-1.46,0-2.53.04-3.22.14-.69.09-1.17.13-1.44.13-.44,0-.78-.07-1.03-.2-.25-.14-.39-.2-.41-.2-.36,0-.54-.5-.54-1.48,0-.36.37-.54,1.11-.54.27,0,.54.03.8.09.26.06.56.09.89.09.58,0,1.04-.02,1.4-.07.36-.04.58-.08.66-.11.08-.03.15-.07.21-.11s.12-.07.21-.07l.7.23.16.09c.11.03.25.07.43.11.18.05.36.07.56.07.49,0,.91-.18,1.24-.54.14-.12.3-.23.47-.31.18-.09.31-.21.39-.36.27-.45.52-.78.72-.99.21-.21.35-.31.43-.31s.12-.01.12-.04c0-.18.23-.27.7-.27.33,0,.55.08.66.22.03.03.27.14.72.32.45.18.89.4,1.32.67.43.27.69.56.8.85.03.09.07.2.12.34.05.14.1.25.14.34.04.09.06.17.06.23l.04.14c.03.12.04.22.04.31,0,.24-.05.41-.14.52-.1.11-.21.19-.35.25-.14.06-.25.27-.35.63-.1.36-.14.89-.14,1.57l.04,1.62.21.54c.14.24.21.4.21.49,0,.06-.03.09-.08.09-.03,0-.04.3-.04.9,0,.51.01.77.04.77.05,0,.08.04.08.13,0,.03.05.2.14.52.1.31.14.68.14,1.1v1.57c0,.33.01.65.04.95v.45c0,.06-.03.09-.08.09-.03.03-.01.08.04.13l-.04.23c-.06.18-.14.38-.25.58-.11.21-.26.34-.45.4-.03,0-.11.11-.25.32-.14.21-.31.41-.52.58s-.42.27-.64.27l-.08.04c0,.06-.1.09-.29.09-.06,0-.16.03-.31.09-.15.06-.28.09-.39.09-.19,0-.36-.06-.49-.18-.27-.24-.54-.39-.8-.45-.26-.06-.52-.24-.76-.54-.22-.24-.43-.43-.64-.58-.21-.15-.35-.24-.43-.27l-.12-.05-1.4-.31-.12.04c-.08.03-.22.05-.41.07-.19.02-.45.02-.78.02h-.17c-.44,0-.71.07-.82.2-.11.14-.17.5-.17,1.1,0,.63.01,1.2.04,1.71l.04,3.47c0,.42.01.77.04,1.06.03.29.05.47.06.56.01.09.03.17.04.22.01.06.02.11.02.13,0,.06-.01.24-.04.54-.03.3-.04.56-.04.76l.54,3.11c0,.12-.03.18-.08.18-.03.03-.04.06-.04.09,0,.06.03.18.08.36l.08.27c0,.09.03.13.08.13.03,0,.04.09.04.27,0,.12.11.18.33.18.08,0,.21-.01.39-.04s.28-.05.31-.05.06.02.08.05.08.04.17.04c.17,0,.25.03.25.09s.1.09.29.09c.08,0,.16,0,.23-.02.07-.01.14-.04.21-.07.07-.03.26-.05.58-.07.32-.01.72-.02,1.22-.02h1.61c.47,0,.86-.01,1.17-.04.32-.03.52-.05.62-.07.1-.01.17-.04.23-.07.05-.03.1-.04.12-.04.41-.21.75-.46,1.01-.76.26-.3.43-.55.52-.74s.14-.29.17-.29c.03-.03.04-.06.04-.09s.08-.15.23-.36c.15-.21.23-.33.23-.36l.04-.09s.04-.04.04-.13.03-.25.08-.47c.05-.22.15-.47.29-.74.38-.81.58-1.29.58-1.44,0-.21.07-.43.21-.65.14-.22.25-.34.33-.34.03,0,.1-.07.23-.2.12-.13.21-.2.27-.2.11,0,.25.04.41.11.17.08.29.16.37.25l.17.09c.14.06.21.31.21.76,0,.21-.06.45-.19.72-.12.27-.19.58-.19.95Z"/>
    <path class="cls-3" d="M103.95,26.85c-.28,0-.64-.28-1.09-.83-.45-.55-.68-1.04-.68-1.46,0-.24.32-.36.95-.36.36,0,.8.05,1.32.14.52.09.91.15,1.15.18.99.09,4.36.13,10.1.13v-3.69c-3.71.06-6.06.12-7.05.18,0,.03,0,.08.02.13.01.06.02.11.02.13,0,.48-.12.86-.37,1.12-.58.63-1.32.95-2.23.95-.55,0-.82-.96-.82-2.88,0-.36,0-.85.02-1.46.01-.61.02-1,.02-1.15,0-.51-.03-1.29-.08-2.34-.06-1.05-.08-1.71-.08-1.98,0-.51.07-.86.21-1.06.14-.19.43-.29.87-.29.22,0,.65.25,1.28.74.63.5,1.1.8,1.4.92,1.15.03,3.39.04,6.72.04,0-1.5-.01-2.53-.04-3.1-5.88,0-9.48.12-10.8.36-.82.18-1.44.27-1.85.27-.28,0-.69-.34-1.24-1.04-.52-.66-.78-1.26-.78-1.8,0-.33.37-.5,1.11-.5.41,0,.91.07,1.48.2.58.13,1,.22,1.28.25,1.37.12,4.93.18,10.68.18-.06-.36-.12-.82-.21-1.37-.08-.55-.16-1.03-.23-1.44-.07-.4-.1-.67-.1-.79,0-.57.1-.92.29-1.04.22-.18.71-.27,1.48-.27s2.03.27,3.71.81c.47.15.98.36,1.55.63s.85.48.85.63c0,.42-.3.95-.91,1.58-.58.63-.91,1.04-.99,1.21,2.53-.06,4.21-.1,5.03-.13,1.02-.03,1.83-.51,2.43-1.44.71-1.11,1.2-1.67,1.44-1.67.58,0,1.54.54,2.89,1.62l1.03.81c.69.54,1.2.98,1.53,1.33.33.35.5.64.5.88s-.19.5-.58.77c-.44.3-.81.45-1.11.45-.14,0-1.17-.09-3.09-.27-1.73-.18-3.41-.27-5.03-.27-.11,0-.77,0-1.98.02-1.21.02-2.29.02-3.26.02-.03.3-.05.8-.06,1.51-.01.7-.02,1.24-.02,1.6,1.59,0,3.54-.03,5.85-.09.03-.03.08-.12.17-.27.08-.15.14-.25.18-.32.04-.06.11-.16.21-.29.1-.13.19-.23.27-.29.08-.06.17-.13.27-.23.1-.09.2-.15.31-.18.11-.03.22-.04.33-.04.55,0,1.38.22,2.49.67,1.11.45,1.67.81,1.67,1.08,0,.15-.04.26-.1.34-.07.08-.19.16-.37.25-.18.09-.28.15-.31.18-.36.24-.54.93-.54,2.07v.5c0,.27.02.63.06,1.08.04.45.06.78.06.99,0,1.35-1.07,2.03-3.22,2.03-.3,0-.49-.23-.58-.68-.58,0-1.66,0-3.24.02-1.58.02-2.8.02-3.65.02,0,.48,0,1.09-.02,1.82-.01.74-.02,1.22-.02,1.46v.45c.52,0,1.13,0,1.81-.02.69-.01,1.25-.03,1.69-.04.44-.01.77-.02.99-.02.96-.03,1.69-.41,2.18-1.12.6-.87,1.02-1.3,1.24-1.3.33,0,1.26.3,2.8.9.36.12.79.36,1.3.72.51.36.76.63.76.81,0,.69-.15,1.28-.45,1.75-.41.69-.65,1.12-.7,1.3-.19.63-.29,1.37-.29,2.21h.21c.6,0,1.04-.22,1.32-.67.93-1.41,1.54-2.12,1.81-2.12.19,0,.52.16.99.47.47.32.89.7,1.28,1.15.85.99,1.28,1.73,1.28,2.21,0,.36-.29.65-.87.88-.58.22-1.1.34-1.57.34-.28,0-.61-.04-1.01-.13-.4-.09-.83-.15-1.3-.18-.49-.06-1.21-.09-2.14-.09.03.78.13,1.75.31,2.92.18,1.17.27,1.95.27,2.34,0,.63-.45,1.21-1.34,1.73-.89.53-1.68.79-2.37.79-.52,0-.88-.16-1.07-.47-.19-.32-.3-.88-.33-1.69-.52,0-1.54,0-3.05.02-1.51.02-2.68.02-3.5.02.03.84.04,1.88.04,3.1s-.08,2.03-.25,2.48c-.22.66-.61,1.32-1.17,1.98-.56.66-1.2,1.06-1.92,1.21-.99.18-1.83.27-2.51.27-.14-.57-.45-1.17-.95-1.8-.49-.63-.99-1.04-1.48-1.22-.08-.03-.45-.15-1.09-.36-.65-.21-1.13-.41-1.46-.58-.33-.18-.49-.36-.49-.54,0-.39.22-.58.66-.58.17,0,.77.06,1.81.18,1.04.12,1.8.18,2.27.18.74,0,1.2-.4,1.36-1.21,0-.3.03-1.32.08-3.06-6.27,0-10,.09-11.21.27-.71.12-1.25.18-1.61.18-.3,0-.68-.26-1.13-.79-.45-.52-.68-1-.68-1.42,0-.24.33-.36.99-.36.36,0,.79.04,1.3.13s.89.15,1.13.18c.99.09,4.73.13,11.21.13,0-.42,0-1.08.02-1.98.01-.9.02-1.57.02-2.02-6.93,0-11.21.08-12.86.22-.22.03-.57.11-1.05.23s-.83.18-1.05.18c-.06,0-.11-.01-.17-.04-.06-.03-.12-.08-.19-.16-.07-.07-.13-.15-.19-.22-.06-.07-.13-.18-.23-.31-.1-.14-.19-.25-.27-.34-.03-.03-.12-.13-.29-.29-.17-.16-.29-.32-.37-.47-.08-.15-.12-.33-.12-.54,0-.3.37-.45,1.11-.45.14,0,1.07.11,2.8.31,1.43.12,5.73.18,12.9.18,0-.42,0-1.05.02-1.89.01-.84.02-1.42.02-1.75-5.11,0-8.48.12-10.1.36-.71.12-1.26.18-1.65.18ZM115.7,19.24c0-.36,0-.94-.02-1.73s-.02-1.39-.02-1.78c-.52,0-1.3,0-2.33.02-1.03.02-1.94.03-2.72.05-.78.01-1.44.04-1.96.07-.08.42-.12,1-.12,1.75v1.53c2.31.06,4.7.09,7.17.09ZM120.48,19.24c2.06,0,4.33-.03,6.8-.09,0-.36,0-.87.02-1.53s.02-1.11.02-1.35v-.63c-.55,0-1.61,0-3.17.02-1.57.02-2.76.02-3.59.02-.05,1.56-.08,2.75-.08,3.56ZM120.52,29.95c1.95,0,4.27-.03,6.97-.09,0-.45-.1-1.62-.29-3.51-1.15-.06-1.91-.09-2.27-.09-.11,0-.68,0-1.71.02-1.03.02-1.94.02-2.74.02,0,1.59.01,2.81.04,3.65ZM120.56,31.66c0,.42.01,1.08.04,1.98.03.9.04,1.56.04,1.98.74,0,1.88,0,3.42-.02,1.54-.01,2.62-.04,3.26-.07.11-1.44.17-2.75.17-3.92-.44,0-1.47,0-3.09.02-1.62.02-2.9.02-3.83.02Z"/>
    <path class="cls-3" d="M147.9,11.23c0-.3.05-.55.14-.74.1-.19.19-.32.27-.38.08-.06.17-.09.25-.09s.25.08.5.25c.25.17.61.33,1.09.5.48.17,1.05.25,1.71.25,1.15,0,1.94-.16,2.35-.5.14-.6.21-.96.21-1.08,0-.54-.26-.99-.78-1.35-.66-.48-.99-.83-.99-1.04,0-.24.11-.46.33-.65.22-.19.41-.29.58-.29.41,0,.95.22,1.61.67s1.07.87,1.24,1.26c.58-.09.99-.13,1.24-.13,1.18,0,1.77.38,1.77,1.12,0,.51-.25,1.01-.74,1.51-.49.5-1.32,1.12-2.47,1.87-.58,1.38-1,2.56-1.26,3.56-.26.99-.61,2.7-1.05,5.13,1.24,0,2.2.2,2.88.61s1.37,1.1,2.06,2.09c3.41-5.37,6.8-8.06,10.18-8.06.93,0,1.88.27,2.82.81s1.42,1.23,1.42,2.07c0,1.23-.17,2.23-.51,3.01-.34.78-.94,1.46-1.79,2.02-1.15.81-2.83,1.73-5.03,2.75-2.2,1.02-4.07,2.01-5.61,2.97,0,1.62-.14,2.99-.43,4.09-.29,1.11-.61,1.88-.97,2.29-.36.42-.73.63-1.11.63-.47,0-.82-.34-1.05-1.01-.23-.67-.35-1.49-.35-2.45,0-.09.11-.79.33-2.12-1.21.51-2.18,1.14-2.91,1.89-.73.75-1.09,1.51-1.09,2.29,0,1.35.57,2.42,1.71,3.22,1.14.8,2.25,1.19,3.32,1.19,1.37,0,2.73-.34,4.08-1.03,1.35-.69,2.18-1.04,2.51-1.04.55,0,1,.19,1.36.56s.54.89.54,1.55c0,.48-.21.94-.62,1.37-.41.44-1.23.83-2.45,1.19s-2.78.54-4.68.54c-1.48,0-2.83-.2-4.04-.61s-2.24-1.14-3.09-2.21c-.85-1.06-1.28-2.41-1.28-4.03,0-2.49,2.35-5.14,7.05-7.96,0-1.32-.21-2.43-.64-3.33-.43-.9-.91-1.35-1.46-1.35-.52,0-1.2.38-2.02,1.12-.82.75-1.58,1.62-2.27,2.61-.55.81-1.15,1.47-1.79,1.98s-1.22.76-1.71.76c-.19,0-.43-.13-.7-.41-.28-.27-.41-.64-.41-1.12,0-.33.02-.64.06-.92s.08-.53.1-.72c.03-.19.11-.4.25-.61.14-.21.23-.36.27-.45.04-.09.17-.22.39-.4.22-.18.36-.3.41-.36.05-.06.23-.19.52-.38.29-.19.47-.32.56-.38.88-.63,1.7-1.68,2.45-3.15.76-1.47,1.31-2.79,1.67-3.96.36-1.17.65-2.29.87-3.38-1.32.51-2.27.76-2.84.76-.66,0-1.31-.28-1.96-.85-.65-.57-.97-1.23-.97-1.98ZM163.48,20.55c-.77.96-1.8,3.01-3.09,6.17,1.54-.51,3.47-1.68,5.79-3.51s3.48-3.29,3.48-4.37c0-.33-.14-.67-.43-1.01-.29-.34-.61-.52-.97-.52-1.48,0-3.08,1.08-4.78,3.24Z"/>
    <path class="cls-3" d="M196.66,34.99c.74.42,1.82.7,3.24.83s2.52.35,3.32.65c.55.21.96.53,1.24.97.27.44.41.79.41,1.06,0,.93-1.4,1.39-4.21,1.39-2.34,0-4.34-.83-6.02-2.5-1.68-1.67-2.51-3.17-2.51-4.52,0-2.01.75-3.62,2.25-4.84,1.5-1.21,3.28-1.82,5.34-1.82.99,0,2.18.18,3.57.54,1.39.36,2.69.54,3.9.54.58,0,.98-.08,1.22-.25s.35-.5.35-1.01c0-.66-.12-1.31-.35-1.96-.23-.64-.47-1.15-.72-1.53-.25-.38-.65-.93-1.2-1.67s-.95-1.3-1.2-1.69c-.41-.63-1.02-1.35-1.81-2.16-1.46.57-2.45.9-2.97.99-1.46.24-2.6.36-3.42.36-2.17,0-3.92-.51-5.24-1.53-1.32-1.02-1.98-1.98-1.98-2.88,0-.42.14-.63.41-.63.41,0,.88.23,1.4.67.52.45.95.72,1.28.81,1.4.45,2.89.67,4.45.67.83,0,1.98-.34,3.46-1.04-.27-.27-.67-.69-1.17-1.26-.51-.57-.94-1.02-1.3-1.35-.36-.33-.77-.66-1.24-.99-.38-.24-.58-.79-.58-1.67,0-.63.59-.95,1.77-.95.47,0,.95.17,1.44.5.49.33,1.14.67,1.94,1.01.8.35,1.81.52,3.05.52.6,0,1.08-.07,1.42-.22.34-.15.6-.23.76-.23.44,0,.88.31,1.32.94.66.84.99,1.43.99,1.75,0,1.05-1.25,2.22-3.75,3.51-.08.03-.18.08-.29.13l-.29.13c1.02,1.02,2.06,2.27,3.13,3.74.96,1.32,1.81,2.74,2.56,4.25.74,1.51,1.11,2.6,1.11,3.26,0,1.23-.23,2.33-.7,3.31-.47.98-1.15,1.46-2.06,1.46-.74,0-1.62-.48-2.64-1.44-.96-.9-2.09-1.67-3.38-2.32-1.29-.64-2.49-.97-3.59-.97-1.18,0-2.25.4-3.22,1.19s-1.44,1.72-1.44,2.77c0,1.56.64,2.7,1.94,3.42ZM205.32,11.59c-.77,0-1.69-.04-2.76-.13-.36-.03-.71-.07-1.05-.14-.34-.06-.71-.14-1.09-.25-.39-.1-.73-.19-1.03-.25.74.81,1.72,1.79,2.93,2.93,1.21-.72,2.21-1.44,3.01-2.16Z"/>
    <path class="cls-3" d="M241.72,34.81c-.3.69-.91,1.35-1.81,1.98s-1.75.95-2.51.95c-.55,0-1.04-.39-1.48-1.17-.3-.57-.78-1.52-1.42-2.86-.65-1.33-1.19-2.39-1.63-3.17-.17.54-.46,1.4-.89,2.59-.43,1.19-.68,1.94-.76,2.27-.11.48-.57,1.28-1.38,2.39-.81,1.11-1.45,1.67-1.92,1.67-.27,0-.51-.14-.7-.41-.19-.27-.29-.64-.29-1.12,0-.36.05-.74.17-1.15.11-.41.28-.84.52-1.31.23-.46.43-.85.58-1.15.15-.3.39-.7.72-1.19.33-.5.52-.8.58-.92.85-1.44,1.62-3.15,2.31-5.13.82-2.37,1.33-4.19,1.53-5.45-.55.48-1.2.72-1.94.72s-1.88-.45-3.34-1.35c-.52-.3-.78-.87-.78-1.71,0-.6.15-.9.45-.9.11,0,.44.09.99.27.55.18,1.03.27,1.44.27.63,0,1.39-.16,2.29-.5.89-.33,1.52-.75,1.88-1.26.41-1.32.62-3.11.62-5.35,0-.54-.08-.93-.25-1.17-.11-.18-.28-.4-.5-.65-.22-.25-.37-.47-.45-.65-.08-.18-.12-.43-.12-.77,0-.21.17-.38.52-.52.34-.14.64-.2.89-.2.19,0,.37.02.54.04.17.03.3.07.41.11.11.05.21.11.29.18.08.08.14.14.19.2.04.06.09.12.14.18.05.06.1.11.12.14.63.63.95,1.25.95,1.84,0,.87-.14,1.71-.41,2.52-.27.75-.49,1.68-.66,2.79,1.04-.36,1.95-.54,2.72-.54.3,0,.63.09.99.27.36.18.77.43,1.24.74.47.32.8.52.99.61,1.26.69,1.9,1.8,1.9,3.33,0,5.7-.89,10.55-2.68,14.54ZM233.35,28.56c.5,1.14,1.22,2.22,2.18,3.24.96,1.02,1.66,1.53,2.1,1.53.17,0,.31-.02.43-.07.12-.05.25-.12.37-.23.12-.1.23-.2.33-.29.1-.09.19-.25.29-.47.1-.23.17-.4.23-.52.05-.12.14-.32.25-.61.11-.29.19-.5.23-.65s.11-.4.21-.74c.1-.34.17-.59.23-.74.25-.78.47-2.03.66-3.76.19-1.72.29-3.17.29-4.34,0-.99-.21-1.79-.62-2.39-.41-.6-.92-.9-1.53-.9s-1.24.3-1.9.9c-.66.6-1.17,1.22-1.53,1.85-.83,3.99-1.57,6.72-2.23,8.19ZM255.28,13.21c0,1.23-.49,1.84-1.48,1.84-.83,0-1.32-.28-1.48-.85-.28-.93-.69-1.68-1.24-2.25-.22-.24-.53-.48-.93-.72-.4-.24-.67-.43-.8-.58-.28-.3-.41-.58-.41-.85,0-.39.33-.58.99-.58.91,0,2.03.4,3.36,1.21s2,1.74,2,2.79ZM257.38,25.86c-.28.18-.74.37-1.4.56-.66.2-1.35.46-2.06.79-.25.12-.65.37-1.2.74-.55.38-1.05.71-1.5.99-.45.29-.74.43-.84.43s-.21-.07-.31-.2c-.1-.13-.14-.29-.14-.47,0-.36.18-.72.54-1.08.38-.42.84-.81,1.36-1.17.58-.42,1.03-.97,1.36-1.64.33-.68.5-1.28.5-1.82,0-.33-.05-.64-.14-.94-.1-.3-.19-.54-.27-.72-.08-.18-.25-.42-.5-.72-.25-.3-.43-.5-.54-.58-.11-.09-.35-.31-.72-.65s-.6-.55-.68-.61c-.11-.09-.36-.28-.76-.56s-.68-.52-.84-.72c-.17-.19-.25-.41-.25-.65,0-.39.29-.58.87-.58,1.81,0,3.66.92,5.54,2.77,1.88,1.84,2.82,3.61,2.82,5.29,0,.75-.27,1.28-.82,1.57ZM259.15,10.42c0,1.29-.49,1.94-1.48,1.94-.8,0-1.29-.3-1.48-.9-.28-.93-.69-1.68-1.24-2.25-.22-.24-.53-.48-.93-.72-.4-.24-.67-.43-.8-.58-.28-.3-.41-.58-.41-.85,0-.36.33-.54.99-.54.91,0,2.03.39,3.36,1.17,1.33.78,2,1.7,2,2.75Z"/>
    <path class="cls-3" d="M285.78,21.36c.47.63,1,1.79,1.61,3.47.6,1.68.91,3.33.91,4.95,0,2.91-.38,5.15-1.13,6.73-.76,1.58-1.99,2.95-3.69,4.12-1.76,1.17-3.41,1.75-4.95,1.75-.66,0-.99-.15-.99-.45,0-.21.13-.46.39-.74.26-.29.53-.47.8-.56,2.17-.66,3.87-1.82,5.09-3.49,1.22-1.67,1.83-3.49,1.83-5.47-.41.6-.94,1.07-1.59,1.42-.65.35-1.27.52-1.88.52-.99,0-1.86-.97-2.62-2.9s-1.13-3.76-1.13-5.47.41-2.92,1.22-3.8,1.74-1.33,2.78-1.33c.58,0,1.06.08,1.44.23-.05-.84-.08-2.27-.08-4.28-1.59.24-3.72.83-6.39,1.78-2.67.95-4.41,1.42-5.24,1.42-.47,0-1.1-.33-1.9-.99-.8-.66-1.2-1.3-1.2-1.94,0-.33.14-.58.41-.74.27-.16.54-.25.78-.25.19,0,.5.06.91.18.41.12.8.18,1.15.18,1.1,0,4.96-.75,11.58-2.25.11-1.14.17-1.86.17-2.16,0-.81-.35-1.63-1.05-2.48-.7-.84-1.05-1.36-1.05-1.57,0-.27.11-.53.33-.79s.52-.38.91-.38c.69,0,1.23.16,1.63.47s.69.69.87,1.12c.18.44.49.97.95,1.6.45.63,1.04,1.19,1.75,1.67.36.24.83.45,1.42.63.59.18,1.1.3,1.53.36.43.06,1.03.13,1.81.2.78.08,1.26.13,1.42.16.93.12,1.59.32,1.98.59.38.27.58.69.58,1.26,0,.45-.19.87-.56,1.26s-.85.58-1.42.58c-.38,0-1.27-.12-2.66-.36-1.39-.24-2.67-.36-3.85-.36-.36,0-.91.08-1.65.22-.74.15-1.24.24-1.48.27,0,1.8.08,3.68.25,5.62ZM284.34,25.72c0-1.23-.39-2.14-1.15-2.72-.77-.58-1.46-.88-2.06-.88-.3,0-.55.28-.74.83-.19.56-.29,1.25-.29,2.09,0,1.05.26,2.02.78,2.9.52.89,1.03,1.33,1.53,1.33s.94-.39,1.34-1.17c.4-.78.6-1.57.6-2.38ZM285.91,10.02c0,.93-.04,1.94-.12,3.02.05,0,.34-.05.84-.16.51-.1.9-.16,1.17-.16-.74-1.32-1.37-2.22-1.9-2.7Z"/>
  </g>
  <g>
    <path class="cls-2" d="M8.45,8.87s.47-4.83,6.7-4.44c.86-1.32,3.66-4.68,7.87-2.1,1.4-.94,3.97-3.27,8.03.31,1.4-.47,4.6-1.64,7.33,3.27.94-.08,5.77-.62,6.16,5.3,1.25.47,5.3,1.56,3.51,6.86.6.33,4.62,3.67.9,7.6.41.6,2.96,4.16-1.88,7.46.15.68,1.24,5.74-4.61,6.45.08.86-.26,4.8-6.41,4.54-.15.32-2.86,4.99-7.88,2.09-.67.48-4.21,3.23-7.92-.49-.56.14-4.27,2.36-7.46-2.92-.69,0-5.69.31-5.94-5.35-1.01-.45-5.62-1.67-3.68-7.05-.47-.45-4.58-3.12-.97-7.67-.62-1.21-2.81-4.34,2.01-7.25-.14-.62-1.52-5.44,4.25-6.63Z"/>
    <path class="cls-1" d="M21.29,28.4s3.14,0,1.81,2.94-6.52-1.08-5.69-3.48,2.8-8.04,10.01-2.7c7.21,5.35-4.76,18.2-12.7,11.18-7.95-7.01-5.94-16.53-.39-21.39s24.62-9.12,28.2,12.61c.29,1.62-1.13,6.23-4.95,6.18.98-3.24,3.83-15.5-10.64-19.23-1.96-.2-8.44-.15-11.87,4.86s-1.96,11.23-.54,12.12,3.78,4.61,8.83,2.11c1.47-1.52,3.92-4.46,1.03-6.62s-3.43.83-3.09,1.42Z"/>
  </g>
</svg>