<?xml version="1.0" encoding="UTF-8"?>
<svg id="_レイヤー_1" data-name="レイヤー 1" xmlns="http://www.w3.org/2000/svg" viewBox="0 0 1420 42.77">
  <defs>
    <style>
      .cls-1 {
        fill: #e6c11a;
        stroke-width: 0px;
      }
    </style>
  </defs>
  <polygon class="cls-1" points="47.5 37.74 5.8 37.74 5.8 5.07 35.61 5.07 35.61 27.02 17.15 27.02 17.15 16.31 25.56 16.28 25.56 11.35 12.01 11.35 12.01 32.1 41.52 32.1 41.52 0 0 0 0 42.77 52.98 42.77 52.98 5.11 94.39 5.11 94.39 37.49 64.45 37.49 64.45 15.92 82.5 15.92 82.5 25.88 74.16 25.88 74.16 31.31 88.24 31.31 88.24 10.62 58.85 10.62 58.85 42.77 100 42.77 100 0 47.5 0 47.5 37.74"/>
  <polygon class="cls-1" points="157.5 37.74 115.8 37.74 115.8 5.07 145.61 5.07 145.61 27.02 127.15 27.02 127.15 16.31 135.56 16.28 135.56 11.35 122.01 11.35 122.01 32.1 151.52 32.1 151.52 0 110 0 110 42.77 162.98 42.77 162.98 5.11 204.39 5.11 204.39 37.49 174.45 37.49 174.45 15.92 192.5 15.92 192.5 25.88 184.16 25.88 184.16 31.31 198.24 31.31 198.24 10.62 168.85 10.62 168.85 42.77 210 42.77 210 0 157.5 0 157.5 37.74"/>
  <polygon class="cls-1" points="267.5 37.74 225.8 37.74 225.8 5.07 255.61 5.07 255.61 27.02 237.15 27.02 237.15 16.31 245.56 16.28 245.56 11.35 232.01 11.35 232.01 32.1 261.52 32.1 261.52 0 220 0 220 42.77 272.98 42.77 272.98 5.11 314.39 5.11 314.39 37.49 284.45 37.49 284.45 15.92 302.5 15.92 302.5 25.88 294.16 25.88 294.16 31.31 308.24 31.31 308.24 10.62 278.85 10.62 278.85 42.77 320 42.77 320 0 267.5 0 267.5 37.74"/>
  <g>
    <polygon class="cls-1" points="377.5 37.74 335.8 37.74 335.8 5.07 365.61 5.07 365.61 27.02 347.15 27.02 347.15 16.31 355.56 16.28 355.56 11.35 342.01 11.35 342.01 32.1 371.52 32.1 371.52 0 330 0 330 42.77 382.98 42.77 382.98 5.11 424.39 5.11 424.39 37.49 394.45 37.49 394.45 15.92 412.5 15.92 412.5 25.88 404.16 25.88 404.16 31.31 418.24 31.31 418.24 10.62 388.85 10.62 388.85 42.77 430 42.77 430 0 377.5 0 377.5 37.74"/>
    <polygon class="cls-1" points="487.5 37.74 445.8 37.74 445.8 5.07 475.61 5.07 475.61 27.02 457.15 27.02 457.15 16.31 465.56 16.28 465.56 11.35 452.01 11.35 452.01 32.1 481.52 32.1 481.52 0 440 0 440 42.77 492.98 42.77 492.98 5.11 534.39 5.11 534.39 37.49 504.45 37.49 504.45 15.92 522.5 15.92 522.5 25.88 514.16 25.88 514.16 31.31 528.24 31.31 528.24 10.62 498.85 10.62 498.85 42.77 540 42.77 540 0 487.5 0 487.5 37.74"/>
    <polygon class="cls-1" points="597.5 37.74 555.8 37.74 555.8 5.07 585.61 5.07 585.61 27.02 567.15 27.02 567.15 16.31 575.56 16.28 575.56 11.35 562.01 11.35 562.01 32.1 591.52 32.1 591.52 0 550 0 550 42.77 602.98 42.77 602.98 5.11 644.39 5.11 644.39 37.49 614.45 37.49 614.45 15.92 632.5 15.92 632.5 25.88 624.16 25.88 624.16 31.31 638.24 31.31 638.24 10.62 608.85 10.62 608.85 42.77 650 42.77 650 0 597.5 0 597.5 37.74"/>
  </g>
  <g>
    <polygon class="cls-1" points="707.5 37.74 665.8 37.74 665.8 5.07 695.61 5.07 695.61 27.02 677.15 27.02 677.15 16.31 685.56 16.28 685.56 11.35 672.01 11.35 672.01 32.1 701.52 32.1 701.52 0 660 0 660 42.77 712.98 42.77 712.98 5.11 754.39 5.11 754.39 37.49 724.45 37.49 724.45 15.92 742.5 15.92 742.5 25.88 734.16 25.88 734.16 31.31 748.24 31.31 748.24 10.62 718.85 10.62 718.85 42.77 760 42.77 760 0 707.5 0 707.5 37.74"/>
    <polygon class="cls-1" points="817.5 37.74 775.8 37.74 775.8 5.07 805.61 5.07 805.61 27.02 787.15 27.02 787.15 16.31 795.56 16.28 795.56 11.35 782.01 11.35 782.01 32.1 811.52 32.1 811.52 0 770 0 770 42.77 822.98 42.77 822.98 5.11 864.39 5.11 864.39 37.49 834.45 37.49 834.45 15.92 852.5 15.92 852.5 25.88 844.16 25.88 844.16 31.31 858.24 31.31 858.24 10.62 828.85 10.62 828.85 42.77 870 42.77 870 0 817.5 0 817.5 37.74"/>
    <polygon class="cls-1" points="927.5 37.74 885.8 37.74 885.8 5.07 915.61 5.07 915.61 27.02 897.15 27.02 897.15 16.31 905.56 16.28 905.56 11.35 892.01 11.35 892.01 32.1 921.52 32.1 921.52 0 880 0 880 42.77 932.98 42.77 932.98 5.11 974.39 5.11 974.39 37.49 944.45 37.49 944.45 15.92 962.5 15.92 962.5 25.88 954.16 25.88 954.16 31.31 968.24 31.31 968.24 10.62 938.85 10.62 938.85 42.77 980 42.77 980 0 927.5 0 927.5 37.74"/>
  </g>
  <g>
    <polygon class="cls-1" points="1037.5 37.74 995.8 37.74 995.8 5.07 1025.61 5.07 1025.61 27.02 1007.15 27.02 1007.15 16.31 1015.56 16.28 1015.56 11.35 1002.01 11.35 1002.01 32.1 1031.52 32.1 1031.52 0 990 0 990 42.77 1042.98 42.77 1042.98 5.11 1084.39 5.11 1084.39 37.49 1054.45 37.49 1054.45 15.92 1072.5 15.92 1072.5 25.88 1064.16 25.88 1064.16 31.31 1078.24 31.31 1078.24 10.62 1048.85 10.62 1048.85 42.77 1090 42.77 1090 0 1037.5 0 1037.5 37.74"/>
    <polygon class="cls-1" points="1147.5 37.74 1105.8 37.74 1105.8 5.07 1135.61 5.07 1135.61 27.02 1117.15 27.02 1117.15 16.31 1125.56 16.28 1125.56 11.35 1112.01 11.35 1112.01 32.1 1141.52 32.1 1141.52 0 1100 0 1100 42.77 1152.98 42.77 1152.98 5.11 1194.39 5.11 1194.39 37.49 1164.45 37.49 1164.45 15.92 1182.5 15.92 1182.5 25.88 1174.16 25.88 1174.16 31.31 1188.24 31.31 1188.24 10.62 1158.85 10.62 1158.85 42.77 1200 42.77 1200 0 1147.5 0 1147.5 37.74"/>
    <polygon class="cls-1" points="1257.5 37.74 1215.8 37.74 1215.8 5.07 1245.61 5.07 1245.61 27.02 1227.15 27.02 1227.15 16.31 1235.56 16.28 1235.56 11.35 1222.01 11.35 1222.01 32.1 1251.52 32.1 1251.52 0 1210 0 1210 42.77 1262.98 42.77 1262.98 5.11 1304.39 5.11 1304.39 37.49 1274.45 37.49 1274.45 15.92 1292.5 15.92 1292.5 25.88 1284.16 25.88 1284.16 31.31 1298.24 31.31 1298.24 10.62 1268.85 10.62 1268.85 42.77 1310 42.77 1310 0 1257.5 0 1257.5 37.74"/>
  </g>
  <polygon class="cls-1" points="1367.5 37.74 1325.8 37.74 1325.8 5.07 1355.61 5.07 1355.61 27.02 1337.15 27.02 1337.15 16.31 1345.56 16.28 1345.56 11.35 1332.01 11.35 1332.01 32.1 1361.52 32.1 1361.52 0 1320 0 1320 42.77 1372.98 42.77 1372.98 5.11 1414.39 5.11 1414.39 37.49 1384.45 37.49 1384.45 15.92 1402.5 15.92 1402.5 25.88 1394.16 25.88 1394.16 31.31 1408.24 31.31 1408.24 10.62 1378.85 10.62 1378.85 42.77 1420 42.77 1420 0 1367.5 0 1367.5 37.74"/>
</svg>